<svg id="svg" version="1.1" xmlns="http://www.w3.org/2000/svg" xmlns:xlink="http://www.w3.org/1999/xlink" width="400" height="400" viewBox="0, 0, 400,400"><g id="svgg"><path id="path0" d="M241.800 119.467 C 239.927 119.875,238.222 121.448,221.277 138.400 C 204.602 155.081,202.005 157.868,202.001 159.084 C 202.001 159.351,204.262 161.856,207.027 164.651 C 213.187 170.879,213.200 170.207,206.800 176.501 C 202.439 180.792,202.041 181.304,202.251 182.356 C 202.421 183.203,207.541 188.558,221.567 202.554 L 240.651 221.600 246.441 221.600 L 252.231 221.600 254.815 219.291 C 264.861 210.318,297.529 176.664,297.745 175.066 C 298.143 172.117,297.986 165.607,297.490 164.519 C 296.749 162.892,254.081 120.393,252.544 119.751 C 251.291 119.227,243.809 119.030,241.800 119.467 M250.042 138.975 C 251.009 139.951,252.020 140.986,252.289 141.275 C 252.926 141.959,253.671 142.703,254.329 143.311 C 255.003 143.935,255.597 144.528,258.892 147.870 C 260.373 149.371,262.353 151.356,263.292 152.280 C 265.714 154.663,265.959 154.911,266.720 155.749 C 267.094 156.161,267.634 156.701,267.919 156.949 C 268.205 157.197,268.655 157.634,268.919 157.919 C 269.184 158.205,269.638 158.655,269.929 158.919 C 270.219 159.184,270.759 159.704,271.129 160.076 C 271.708 160.660,273.066 162.010,278.291 167.200 C 281.797 170.683,282.333 169.895,264.038 188.152 C 248.643 203.515,248.111 204.000,246.619 204.000 C 245.130 204.000,244.597 203.518,229.841 188.829 C 221.458 180.485,214.105 173.272,213.500 172.800 C 211.965 171.603,211.959 169.506,213.487 168.509 C 214.085 168.119,215.210 167.112,215.987 166.271 C 217.271 164.881,219.796 162.339,224.488 157.712 C 225.430 156.783,226.953 155.253,227.874 154.312 C 228.794 153.370,230.183 151.970,230.959 151.200 C 231.736 150.430,233.718 148.450,235.364 146.800 C 237.011 145.150,238.592 143.587,238.879 143.327 C 239.165 143.067,240.634 141.582,242.142 140.027 C 245.710 136.349,247.239 136.145,250.042 138.975 M187.000 172.858 C 186.560 173.305,179.495 180.334,171.300 188.478 C 154.411 205.262,155.205 204.095,158.300 207.582 C 165.500 215.696,166.316 216.115,169.127 213.136 C 171.032 211.119,173.493 208.629,175.668 206.520 C 177.864 204.391,182.873 199.401,183.400 198.817 C 183.620 198.574,185.097 197.075,186.682 195.487 C 189.437 192.728,190.196 191.968,194.767 187.400 C 199.913 182.258,199.908 182.093,194.465 176.701 C 189.741 172.021,188.468 171.365,187.000 172.858 M36.132 253.574 C 21.869 258.708,24.378 279.552,39.394 280.688 C 45.491 281.149,52.800 276.915,52.800 272.922 C 52.800 270.754,48.600 270.284,46.757 272.246 C 39.606 279.858,28.269 270.309,34.356 261.800 C 37.340 257.627,42.528 257.274,46.400 260.979 C 48.960 263.429,53.213 262.821,52.546 260.101 C 51.225 254.715,42.547 251.264,36.132 253.574 M360.301 253.407 C 351.159 256.764,352.541 266.778,362.487 269.242 C 366.206 270.163,367.600 271.157,367.600 272.888 C 367.600 275.751,363.868 276.981,361.159 275.012 C 357.375 272.259,356.752 271.947,355.565 272.208 C 352.983 272.775,353.079 274.882,355.814 277.677 C 360.571 282.540,371.098 281.371,373.460 275.719 C 375.772 270.186,370.961 264.000,364.346 264.000 C 361.004 264.000,359.544 259.677,362.390 258.205 C 363.543 257.609,366.094 257.981,366.613 258.821 C 368.444 261.783,373.986 260.614,372.673 257.543 C 371.058 253.766,364.916 251.712,360.301 253.407 M59.894 253.998 L 58.800 254.858 58.800 266.983 L 58.800 279.108 59.786 279.754 C 62.966 281.837,64.800 280.213,64.800 275.313 C 64.800 270.798,65.260 270.066,68.422 269.549 C 74.603 268.536,76.475 269.842,76.579 275.239 C 76.668 279.878,78.684 281.860,81.319 279.900 C 82.139 279.290,82.410 255.176,81.608 254.209 C 79.479 251.644,76.970 253.599,76.682 258.048 C 76.356 263.074,75.788 263.673,71.120 263.908 C 65.962 264.168,65.088 263.419,64.736 258.436 C 64.452 254.401,64.132 253.766,62.188 253.378 C 61.307 253.201,60.696 253.367,59.894 253.998 M98.123 253.604 C 96.859 254.113,96.122 255.424,94.131 260.706 C 91.715 267.114,90.292 270.819,88.793 274.600 C 88.096 276.360,87.434 278.189,87.323 278.665 C 86.840 280.726,91.493 280.991,93.000 278.988 C 93.440 278.403,94.367 277.312,95.060 276.562 L 96.320 275.200 100.460 275.206 C 105.173 275.213,106.182 275.568,107.253 277.600 C 108.724 280.390,111.781 281.389,113.394 279.607 C 114.182 278.736,114.245 278.930,107.874 262.600 C 104.669 254.386,104.488 254.062,102.825 253.600 C 101.109 253.124,99.312 253.125,98.123 253.604 M120.075 254.016 C 118.689 255.307,118.702 278.806,120.089 279.777 C 121.293 280.621,123.325 280.566,124.138 279.669 C 125.330 278.352,125.122 254.671,123.911 253.823 C 122.686 252.965,121.119 253.043,120.075 254.016 M133.611 253.645 C 132.030 254.276,132.013 254.420,132.006 267.051 C 131.999 280.173,131.928 279.766,134.333 280.247 C 137.182 280.816,137.600 279.948,137.600 273.467 C 137.600 266.884,137.913 265.934,139.859 266.618 C 140.484 266.838,141.326 267.554,141.732 268.209 C 142.137 268.864,143.726 271.470,145.264 274.000 C 148.871 279.936,149.386 280.400,152.360 280.400 C 156.147 280.400,156.000 280.952,156.000 266.730 C 156.000 253.179,156.004 253.200,153.330 253.200 C 151.040 253.200,150.617 254.226,150.466 260.140 C 150.324 265.737,150.107 266.409,148.451 266.385 C 147.293 266.368,146.563 265.468,143.359 260.103 C 140.100 254.648,139.602 254.038,138.049 253.607 C 136.275 253.114,134.913 253.126,133.611 253.645 M173.726 253.588 C 172.100 254.270,172.000 255.070,172.000 267.363 L 172.000 279.179 173.180 279.790 C 176.229 281.366,177.475 280.248,177.659 275.772 C 177.844 271.270,178.465 270.632,182.990 270.289 C 189.415 269.803,191.996 267.528,191.999 262.349 C 192.001 257.649,190.332 255.017,186.684 253.965 C 184.869 253.441,174.777 253.148,173.726 253.588 M200.106 254.300 C 199.222 255.269,197.620 258.899,195.206 265.400 C 194.797 266.500,193.462 270.010,192.240 273.200 L 190.017 279.000 190.853 279.700 C 192.831 281.356,195.237 280.431,197.008 277.334 C 198.037 275.536,199.096 275.200,203.742 275.200 C 208.397 275.200,208.612 275.295,210.503 278.200 C 211.943 280.411,213.394 280.914,215.647 279.980 C 217.131 279.366,217.103 278.846,215.355 274.550 C 214.561 272.598,213.504 269.830,213.006 268.400 C 210.403 260.913,207.850 255.145,206.715 254.190 C 204.949 252.704,201.507 252.761,200.106 254.300 M222.750 253.960 L 221.800 254.728 221.678 266.808 C 221.540 280.438,221.532 280.400,224.400 280.400 C 226.472 280.400,227.199 279.457,227.202 276.769 C 227.206 272.795,228.206 270.800,230.193 270.800 C 231.174 270.800,232.664 272.627,234.640 276.253 C 236.494 279.653,237.446 280.400,239.928 280.400 C 242.402 280.400,242.531 279.445,240.581 275.563 C 238.400 271.220,238.359 270.240,240.248 267.764 C 245.320 261.119,242.942 254.718,235.000 253.635 C 229.788 252.924,223.834 253.082,222.750 253.960 M246.500 253.796 C 245.785 254.107,245.198 254.595,245.195 254.881 C 245.192 255.166,245.084 255.791,244.956 256.270 C 244.675 257.317,246.427 258.400,248.400 258.400 C 249.787 258.400,251.577 259.208,252.408 260.209 C 252.845 260.736,252.936 262.711,252.855 269.878 C 252.738 280.101,252.817 280.400,255.618 280.400 C 258.686 280.400,258.756 280.176,258.885 269.908 L 259.000 260.817 260.031 259.787 C 260.824 258.994,261.609 258.703,263.431 258.525 C 267.102 258.167,268.232 256.245,266.133 253.926 C 265.256 252.957,248.683 252.848,246.500 253.796 M273.611 253.625 C 272.029 254.289,272.013 254.424,272.006 267.051 C 271.999 280.469,271.879 279.899,274.793 280.290 C 277.713 280.681,278.000 280.063,278.000 273.387 C 278.000 263.997,279.556 264.482,286.381 276.000 C 288.673 279.867,289.379 280.400,292.213 280.400 C 296.171 280.400,296.000 281.018,296.000 266.730 C 296.000 253.203,295.996 253.184,293.369 253.213 C 290.854 253.240,290.615 253.819,290.462 260.241 C 290.316 266.388,290.159 266.800,287.962 266.800 C 287.588 266.800,283.156 260.224,281.896 257.800 C 279.986 254.124,276.550 252.393,273.611 253.625 M305.000 253.658 C 303.636 254.466,303.612 254.689,303.606 267.077 C 303.599 281.924,302.547 280.400,312.800 280.400 C 321.257 280.400,322.000 280.190,322.000 277.800 C 322.000 275.675,320.957 275.200,316.291 275.200 C 311.103 275.200,308.663 273.923,309.401 271.595 C 309.965 269.819,311.481 269.200,315.268 269.200 C 319.587 269.200,320.800 268.625,320.800 266.577 C 320.800 264.509,319.723 264.000,315.342 264.000 C 306.332 264.000,306.915 258.801,315.970 258.401 C 319.095 258.264,320.907 258.009,321.342 257.648 C 322.194 256.941,322.192 254.658,321.339 253.949 C 320.444 253.205,306.192 252.951,305.000 253.658 M329.200 253.911 L 328.200 254.728 328.073 266.609 C 327.929 279.984,328.017 280.400,330.981 280.400 C 333.408 280.400,334.000 279.544,334.000 276.031 C 334.000 268.764,337.454 268.949,341.209 276.418 C 342.840 279.661,343.803 280.400,346.398 280.400 C 348.891 280.400,349.040 279.237,347.024 275.509 C 344.781 271.360,344.745 270.404,346.734 267.781 C 350.783 262.441,349.690 256.468,344.246 254.194 C 341.557 253.070,330.483 252.862,329.200 253.911 M233.713 258.545 C 235.689 259.381,236.473 260.484,236.326 262.221 C 235.935 266.857,227.600 266.583,227.600 261.934 C 227.600 258.801,230.508 257.188,233.713 258.545 M340.574 258.789 C 344.679 260.780,343.414 264.881,338.517 265.461 C 334.575 265.928,332.434 261.904,335.169 259.169 C 336.579 257.760,338.215 257.645,340.574 258.789 M183.358 258.784 C 187.661 260.420,186.430 265.600,181.739 265.600 C 180.282 265.600,179.715 265.377,178.769 264.431 C 175.775 261.436,179.211 257.207,183.358 258.784 M205.391 264.266 C 207.809 267.718,205.460 271.589,202.025 269.813 C 200.004 268.768,200.088 265.717,202.201 263.437 C 203.285 262.267,204.148 262.491,205.391 264.266 M102.093 263.700 C 104.625 267.593,103.260 271.144,99.648 270.062 C 97.618 269.453,97.148 268.362,97.863 265.918 C 98.705 263.040,100.912 261.883,102.093 263.700 " stroke="none" fill="#283549" fill-rule="evenodd"></path><path id="path1" d="M170.000 0.590 C 170.000 1.081,168.913 1.199,163.500 1.290 C 157.102 1.398,156.998 1.414,156.872 2.300 C 156.750 3.160,156.578 3.200,153.005 3.200 C 148.594 3.200,148.000 3.371,148.000 4.643 C 148.000 5.585,147.940 5.600,144.233 5.600 C 139.937 5.600,139.200 5.782,139.200 6.843 C 139.200 7.463,138.893 7.604,137.500 7.623 C 134.186 7.668,132.611 8.132,132.472 9.105 C 132.358 9.904,132.115 10.000,130.204 10.000 C 128.151 10.000,128.053 10.049,127.800 11.200 L 127.536 12.400 124.368 12.400 C 121.255 12.400,121.200 12.418,121.200 13.400 C 121.200 14.345,121.080 14.400,119.000 14.400 C 116.822 14.400,116.800 14.412,116.800 15.600 C 116.800 16.788,116.778 16.800,114.600 16.800 C 112.520 16.800,112.400 16.855,112.400 17.800 C 112.400 18.744,112.278 18.800,110.232 18.800 C 108.156 18.800,108.053 18.850,107.804 19.980 C 107.563 21.080,107.405 21.168,105.473 21.280 C 103.671 21.384,103.383 21.518,103.272 22.300 C 103.165 23.055,102.897 23.200,101.605 23.200 C 99.462 23.200,98.800 23.536,98.800 24.622 C 98.800 25.469,98.601 25.570,96.700 25.679 C 94.900 25.783,94.582 25.923,94.477 26.662 C 94.402 27.187,93.972 27.621,93.377 27.770 C 92.669 27.948,92.400 28.289,92.400 29.008 C 92.400 29.941,92.272 30.000,90.250 30.000 C 88.181 30.000,88.091 30.045,87.860 31.200 C 87.669 32.153,87.412 32.400,86.610 32.400 C 85.805 32.400,85.600 32.599,85.600 33.379 C 85.600 34.278,85.428 34.368,83.500 34.479 C 81.541 34.592,81.391 34.674,81.273 35.700 C 81.167 36.621,80.956 36.800,79.973 36.800 C 78.988 36.800,78.800 36.961,78.800 37.800 C 78.800 38.600,78.600 38.800,77.800 38.800 C 76.956 38.800,76.800 38.987,76.800 40.000 C 76.800 41.188,76.778 41.200,74.600 41.200 C 72.536 41.200,72.400 41.260,72.400 42.173 C 72.400 42.938,72.164 43.174,71.300 43.273 C 70.436 43.373,70.173 43.636,70.073 44.500 C 69.974 45.361,69.737 45.600,68.981 45.600 C 68.294 45.600,67.945 45.878,67.773 46.565 C 67.629 47.140,67.140 47.629,66.565 47.773 C 65.878 47.945,65.600 48.294,65.600 48.981 C 65.600 49.737,65.361 49.974,64.500 50.073 C 63.636 50.173,63.373 50.436,63.273 51.300 C 63.174 52.164,62.938 52.400,62.173 52.400 C 61.402 52.400,61.200 52.607,61.200 53.400 C 61.200 54.244,61.013 54.400,60.000 54.400 C 58.933 54.400,58.800 54.533,58.800 55.600 C 58.800 56.613,58.644 56.800,57.800 56.800 C 57.000 56.800,56.800 57.000,56.800 57.800 C 56.800 58.644,56.613 58.800,55.600 58.800 C 54.533 58.800,54.400 58.933,54.400 60.000 C 54.400 61.013,54.244 61.200,53.400 61.200 C 52.607 61.200,52.400 61.402,52.400 62.173 C 52.400 62.938,52.164 63.174,51.300 63.273 C 50.436 63.373,50.173 63.636,50.073 64.500 C 49.974 65.361,49.737 65.600,48.981 65.600 C 48.294 65.600,47.945 65.878,47.773 66.565 C 47.629 67.140,47.140 67.629,46.565 67.773 C 45.878 67.945,45.600 68.294,45.600 68.981 C 45.600 69.737,45.361 69.974,44.500 70.073 C 43.636 70.173,43.373 70.436,43.273 71.300 C 43.174 72.164,42.938 72.400,42.173 72.400 C 41.260 72.400,41.200 72.536,41.200 74.600 C 41.200 76.778,41.188 76.800,40.000 76.800 C 38.987 76.800,38.800 76.956,38.800 77.800 C 38.800 78.600,38.600 78.800,37.800 78.800 C 36.961 78.800,36.800 78.988,36.800 79.973 C 36.800 80.956,36.621 81.167,35.700 81.273 C 34.674 81.391,34.592 81.541,34.479 83.500 C 34.368 85.428,34.278 85.600,33.379 85.600 C 32.599 85.600,32.400 85.805,32.400 86.610 C 32.400 87.412,32.153 87.669,31.200 87.860 C 30.045 88.091,30.000 88.181,30.000 90.250 C 30.000 92.272,29.941 92.400,29.008 92.400 C 28.289 92.400,27.948 92.669,27.770 93.377 C 27.621 93.972,27.187 94.402,26.662 94.477 C 25.923 94.582,25.783 94.900,25.679 96.700 C 25.570 98.601,25.469 98.800,24.622 98.800 C 23.536 98.800,23.200 99.462,23.200 101.605 C 23.200 102.897,23.055 103.165,22.300 103.272 C 21.518 103.383,21.384 103.671,21.280 105.473 C 21.168 107.405,21.080 107.563,19.980 107.804 C 18.850 108.053,18.800 108.156,18.800 110.232 C 18.800 112.278,18.744 112.400,17.800 112.400 C 16.855 112.400,16.800 112.520,16.800 114.600 C 16.800 116.778,16.788 116.800,15.600 116.800 C 14.412 116.800,14.400 116.822,14.400 119.000 C 14.400 121.080,14.345 121.200,13.400 121.200 C 12.418 121.200,12.400 121.255,12.400 124.368 L 12.400 127.536 11.200 127.800 C 10.049 128.053,10.000 128.151,10.000 130.204 C 10.000 132.115,9.904 132.358,9.105 132.472 C 8.132 132.611,7.668 134.186,7.623 137.500 C 7.604 138.893,7.463 139.200,6.843 139.200 C 5.782 139.200,5.600 139.937,5.600 144.233 C 5.600 147.940,5.585 148.000,4.643 148.000 C 3.371 148.000,3.200 148.594,3.200 153.005 C 3.200 156.578,3.160 156.750,2.300 156.872 C 1.414 156.998,1.398 157.102,1.290 163.500 C 1.199 168.913,1.081 170.000,0.590 170.000 C 0.075 170.000,0.000 173.824,0.000 200.000 C 0.000 226.176,0.075 230.000,0.590 230.000 C 1.081 230.000,1.199 231.087,1.290 236.500 C 1.398 242.898,1.414 243.002,2.300 243.128 C 3.160 243.250,3.200 243.422,3.200 246.995 C 3.200 251.406,3.371 252.000,4.643 252.000 C 5.585 252.000,5.600 252.060,5.600 255.767 C 5.600 260.063,5.782 260.800,6.843 260.800 C 7.463 260.800,7.604 261.107,7.623 262.500 C 7.668 265.814,8.132 267.389,9.105 267.528 C 9.904 267.642,10.000 267.885,10.000 269.796 C 10.000 271.849,10.049 271.947,11.200 272.200 L 12.400 272.464 12.400 275.632 C 12.400 278.745,12.418 278.800,13.400 278.800 C 14.345 278.800,14.400 278.920,14.400 281.000 C 14.400 283.178,14.412 283.200,15.600 283.200 C 16.788 283.200,16.800 283.222,16.800 285.400 C 16.800 287.480,16.855 287.600,17.800 287.600 C 18.744 287.600,18.800 287.722,18.800 289.768 C 18.800 291.844,18.850 291.947,19.980 292.196 C 21.080 292.437,21.168 292.595,21.280 294.527 C 21.384 296.329,21.518 296.617,22.300 296.728 C 23.055 296.835,23.200 297.103,23.200 298.395 C 23.200 300.538,23.536 301.200,24.622 301.200 C 25.469 301.200,25.570 301.399,25.679 303.300 C 25.783 305.100,25.923 305.418,26.662 305.523 C 27.187 305.598,27.621 306.028,27.770 306.623 C 27.948 307.331,28.289 307.600,29.008 307.600 C 29.941 307.600,30.000 307.728,30.000 309.750 C 30.000 311.819,30.045 311.909,31.200 312.140 C 32.153 312.331,32.400 312.588,32.400 313.390 C 32.400 314.195,32.599 314.400,33.379 314.400 C 34.278 314.400,34.368 314.572,34.479 316.500 C 34.592 318.459,34.674 318.609,35.700 318.727 C 36.621 318.833,36.800 319.044,36.800 320.027 C 36.800 321.012,36.961 321.200,37.800 321.200 C 38.600 321.200,38.800 321.400,38.800 322.200 C 38.800 323.044,38.987 323.200,40.000 323.200 C 41.188 323.200,41.200 323.222,41.200 325.400 C 41.200 327.464,41.260 327.600,42.173 327.600 C 42.938 327.600,43.174 327.836,43.273 328.700 C 43.373 329.564,43.636 329.827,44.500 329.927 C 45.361 330.026,45.600 330.263,45.600 331.019 C 45.600 331.706,45.878 332.055,46.565 332.227 C 47.140 332.371,47.629 332.860,47.773 333.435 C 47.945 334.122,48.294 334.400,48.981 334.400 C 49.737 334.400,49.974 334.639,50.073 335.500 C 50.173 336.364,50.436 336.627,51.300 336.727 C 52.164 336.826,52.400 337.062,52.400 337.827 C 52.400 338.598,52.607 338.800,53.400 338.800 C 54.244 338.800,54.400 338.987,54.400 340.000 C 54.400 341.067,54.533 341.200,55.600 341.200 C 56.613 341.200,56.800 341.356,56.800 342.200 C 56.800 343.000,57.000 343.200,57.800 343.200 C 58.644 343.200,58.800 343.387,58.800 344.400 C 58.800 345.467,58.933 345.600,60.000 345.600 C 61.013 345.600,61.200 345.756,61.200 346.600 C 61.200 347.393,61.402 347.600,62.173 347.600 C 62.938 347.600,63.174 347.836,63.273 348.700 C 63.373 349.564,63.636 349.827,64.500 349.927 C 65.361 350.026,65.600 350.263,65.600 351.019 C 65.600 351.706,65.878 352.055,66.565 352.227 C 67.140 352.371,67.629 352.860,67.773 353.435 C 67.945 354.122,68.294 354.400,68.981 354.400 C 69.737 354.400,69.974 354.639,70.073 355.500 C 70.173 356.364,70.436 356.627,71.300 356.727 C 72.164 356.826,72.400 357.062,72.400 357.827 C 72.400 358.740,72.536 358.800,74.600 358.800 C 76.778 358.800,76.800 358.812,76.800 360.000 C 76.800 361.013,76.956 361.200,77.800 361.200 C 78.600 361.200,78.800 361.400,78.800 362.200 C 78.800 363.039,78.988 363.200,79.973 363.200 C 80.956 363.200,81.167 363.379,81.273 364.300 C 81.391 365.326,81.541 365.408,83.500 365.521 C 85.428 365.632,85.600 365.722,85.600 366.621 C 85.600 367.401,85.805 367.600,86.610 367.600 C 87.412 367.600,87.669 367.847,87.860 368.800 C 88.091 369.955,88.181 370.000,90.250 370.000 C 92.272 370.000,92.400 370.059,92.400 370.992 C 92.400 371.711,92.669 372.052,93.377 372.230 C 93.972 372.379,94.402 372.813,94.477 373.338 C 94.582 374.077,94.900 374.217,96.700 374.321 C 98.601 374.430,98.800 374.531,98.800 375.378 C 98.800 376.464,99.462 376.800,101.605 376.800 C 102.897 376.800,103.165 376.945,103.272 377.700 C 103.383 378.482,103.671 378.616,105.473 378.720 C 107.405 378.832,107.563 378.920,107.804 380.020 C 108.053 381.150,108.156 381.200,110.232 381.200 C 112.278 381.200,112.400 381.256,112.400 382.200 C 112.400 383.145,112.520 383.200,114.600 383.200 C 116.778 383.200,116.800 383.212,116.800 384.400 C 116.800 385.588,116.822 385.600,119.000 385.600 C 121.080 385.600,121.200 385.655,121.200 386.600 C 121.200 387.582,121.255 387.600,124.368 387.600 L 127.536 387.600 127.800 388.800 C 128.053 389.951,128.151 390.000,130.204 390.000 C 132.115 390.000,132.358 390.096,132.472 390.895 C 132.611 391.868,134.186 392.332,137.500 392.377 C 138.893 392.396,139.200 392.537,139.200 393.157 C 139.200 394.218,139.937 394.400,144.233 394.400 C 147.940 394.400,148.000 394.415,148.000 395.357 C 148.000 396.629,148.594 396.800,153.005 396.800 C 156.578 396.800,156.750 396.840,156.872 397.700 C 156.998 398.586,157.102 398.602,163.500 398.710 C 168.913 398.801,170.000 398.919,170.000 399.410 C 170.000 399.925,173.824 400.000,200.000 400.000 C 226.176 400.000,230.000 399.925,230.000 399.410 C 230.000 398.919,231.087 398.801,236.500 398.710 C 242.898 398.602,243.002 398.586,243.128 397.700 C 243.250 396.840,243.422 396.800,246.995 396.800 C 251.406 396.800,252.000 396.629,252.000 395.357 C 252.000 394.415,252.060 394.400,255.767 394.400 C 260.063 394.400,260.800 394.218,260.800 393.157 C 260.800 392.537,261.107 392.396,262.500 392.377 C 265.814 392.332,267.389 391.868,267.528 390.895 C 267.642 390.096,267.885 390.000,269.796 390.000 C 271.849 390.000,271.947 389.951,272.200 388.800 L 272.464 387.600 275.632 387.600 C 278.745 387.600,278.800 387.582,278.800 386.600 C 278.800 385.655,278.920 385.600,281.000 385.600 C 283.178 385.600,283.200 385.588,283.200 384.400 C 283.200 383.212,283.222 383.200,285.400 383.200 C 287.480 383.200,287.600 383.145,287.600 382.200 C 287.600 381.256,287.722 381.200,289.768 381.200 C 291.844 381.200,291.947 381.150,292.196 380.020 C 292.437 378.920,292.595 378.832,294.527 378.720 C 296.329 378.616,296.617 378.482,296.728 377.700 C 296.835 376.945,297.103 376.800,298.395 376.800 C 300.538 376.800,301.200 376.464,301.200 375.378 C 301.200 374.531,301.399 374.430,303.300 374.321 C 305.100 374.217,305.418 374.077,305.523 373.338 C 305.598 372.813,306.028 372.379,306.623 372.230 C 307.331 372.052,307.600 371.711,307.600 370.992 C 307.600 370.059,307.728 370.000,309.750 370.000 C 311.819 370.000,311.909 369.955,312.140 368.800 C 312.331 367.847,312.588 367.600,313.390 367.600 C 314.195 367.600,314.400 367.401,314.400 366.621 C 314.400 365.722,314.572 365.632,316.500 365.521 C 318.459 365.408,318.609 365.326,318.727 364.300 C 318.833 363.379,319.044 363.200,320.027 363.200 C 321.012 363.200,321.200 363.039,321.200 362.200 C 321.200 361.400,321.400 361.200,322.200 361.200 C 323.044 361.200,323.200 361.013,323.200 360.000 C 323.200 358.812,323.222 358.800,325.400 358.800 C 327.464 358.800,327.600 358.740,327.600 357.827 C 327.600 357.062,327.836 356.826,328.700 356.727 C 329.564 356.627,329.827 356.364,329.927 355.500 C 330.026 354.639,330.263 354.400,331.019 354.400 C 331.706 354.400,332.055 354.122,332.227 353.435 C 332.371 352.860,332.860 352.371,333.435 352.227 C 334.122 352.055,334.400 351.706,334.400 351.019 C 334.400 350.263,334.639 350.026,335.500 349.927 C 336.364 349.827,336.627 349.564,336.727 348.700 C 336.826 347.836,337.062 347.600,337.827 347.600 C 338.598 347.600,338.800 347.393,338.800 346.600 C 338.800 345.756,338.987 345.600,340.000 345.600 C 341.067 345.600,341.200 345.467,341.200 344.400 C 341.200 343.387,341.356 343.200,342.200 343.200 C 343.000 343.200,343.200 343.000,343.200 342.200 C 343.200 341.356,343.387 341.200,344.400 341.200 C 345.467 341.200,345.600 341.067,345.600 340.000 C 345.600 338.987,345.756 338.800,346.600 338.800 C 347.393 338.800,347.600 338.598,347.600 337.827 C 347.600 337.062,347.836 336.826,348.700 336.727 C 349.564 336.627,349.827 336.364,349.927 335.500 C 350.026 334.639,350.263 334.400,351.019 334.400 C 351.706 334.400,352.055 334.122,352.227 333.435 C 352.371 332.860,352.860 332.371,353.435 332.227 C 354.122 332.055,354.400 331.706,354.400 331.019 C 354.400 330.263,354.639 330.026,355.500 329.927 C 356.364 329.827,356.627 329.564,356.727 328.700 C 356.826 327.836,357.062 327.600,357.827 327.600 C 358.740 327.600,358.800 327.464,358.800 325.400 C 358.800 323.222,358.812 323.200,360.000 323.200 C 361.013 323.200,361.200 323.044,361.200 322.200 C 361.200 321.400,361.400 321.200,362.200 321.200 C 363.039 321.200,363.200 321.012,363.200 320.027 C 363.200 319.044,363.379 318.833,364.300 318.727 C 365.326 318.609,365.408 318.459,365.521 316.500 C 365.632 314.572,365.722 314.400,366.621 314.400 C 367.401 314.400,367.600 314.195,367.600 313.390 C 367.600 312.588,367.847 312.331,368.800 312.140 C 369.955 311.909,370.000 311.819,370.000 309.750 C 370.000 307.728,370.059 307.600,370.992 307.600 C 371.711 307.600,372.052 307.331,372.230 306.623 C 372.379 306.028,372.813 305.598,373.338 305.523 C 374.077 305.418,374.217 305.100,374.321 303.300 C 374.430 301.399,374.531 301.200,375.378 301.200 C 376.464 301.200,376.800 300.538,376.800 298.395 C 376.800 297.103,376.945 296.835,377.700 296.728 C 378.482 296.617,378.616 296.329,378.720 294.527 C 378.832 292.595,378.920 292.437,380.020 292.196 C 381.150 291.947,381.200 291.844,381.200 289.768 C 381.200 287.722,381.256 287.600,382.200 287.600 C 383.145 287.600,383.200 287.480,383.200 285.400 C 383.200 283.222,383.212 283.200,384.400 283.200 C 385.588 283.200,385.600 283.178,385.600 281.000 C 385.600 278.920,385.655 278.800,386.600 278.800 C 387.582 278.800,387.600 278.745,387.600 275.632 L 387.600 272.464 388.800 272.200 C 389.951 271.947,390.000 271.849,390.000 269.796 C 390.000 267.885,390.096 267.642,390.895 267.528 C 391.868 267.389,392.332 265.814,392.377 262.500 C 392.396 261.107,392.537 260.800,393.157 260.800 C 394.218 260.800,394.400 260.063,394.400 255.767 C 394.400 252.060,394.415 252.000,395.357 252.000 C 396.629 252.000,396.800 251.406,396.800 246.995 C 396.800 243.422,396.840 243.250,397.700 243.128 C 398.586 243.002,398.602 242.898,398.710 236.500 C 398.801 231.087,398.919 230.000,399.410 230.000 C 399.925 230.000,400.000 226.176,400.000 200.000 C 400.000 173.824,399.925 170.000,399.410 170.000 C 398.919 170.000,398.801 168.913,398.710 163.500 C 398.602 157.102,398.586 156.998,397.700 156.872 C 396.840 156.750,396.800 156.578,396.800 153.005 C 396.800 148.594,396.629 148.000,395.357 148.000 C 394.415 148.000,394.400 147.940,394.400 144.233 C 394.400 139.937,394.218 139.200,393.157 139.200 C 392.537 139.200,392.396 138.893,392.377 137.500 C 392.332 134.186,391.868 132.611,390.895 132.472 C 390.096 132.358,390.000 132.115,390.000 130.204 C 390.000 128.151,389.951 128.053,388.800 127.800 L 387.600 127.536 387.600 124.368 C 387.600 121.255,387.582 121.200,386.600 121.200 C 385.655 121.200,385.600 121.080,385.600 119.000 C 385.600 116.822,385.588 116.800,384.400 116.800 C 383.212 116.800,383.200 116.778,383.200 114.600 C 383.200 112.520,383.145 112.400,382.200 112.400 C 381.256 112.400,381.200 112.278,381.200 110.232 C 381.200 108.156,381.150 108.053,380.020 107.804 C 378.920 107.563,378.832 107.405,378.720 105.473 C 378.616 103.671,378.482 103.383,377.700 103.272 C 376.945 103.165,376.800 102.897,376.800 101.605 C 376.800 99.462,376.464 98.800,375.378 98.800 C 374.531 98.800,374.430 98.601,374.321 96.700 C 374.217 94.900,374.077 94.582,373.338 94.477 C 372.813 94.402,372.379 93.972,372.230 93.377 C 372.052 92.669,371.711 92.400,370.992 92.400 C 370.059 92.400,370.000 92.272,370.000 90.250 C 370.000 88.181,369.955 88.091,368.800 87.860 C 367.847 87.669,367.600 87.412,367.600 86.610 C 367.600 85.805,367.401 85.600,366.621 85.600 C 365.722 85.600,365.632 85.428,365.521 83.500 C 365.408 81.541,365.326 81.391,364.300 81.273 C 363.379 81.167,363.200 80.956,363.200 79.973 C 363.200 78.988,363.039 78.800,362.200 78.800 C 361.400 78.800,361.200 78.600,361.200 77.800 C 361.200 76.956,361.013 76.800,360.000 76.800 C 358.812 76.800,358.800 76.778,358.800 74.600 C 358.800 72.536,358.740 72.400,357.827 72.400 C 357.062 72.400,356.826 72.164,356.727 71.300 C 356.627 70.436,356.364 70.173,355.500 70.073 C 354.639 69.974,354.400 69.737,354.400 68.981 C 354.400 68.294,354.122 67.945,353.435 67.773 C 352.860 67.629,352.371 67.140,352.227 66.565 C 352.055 65.878,351.706 65.600,351.019 65.600 C 350.263 65.600,350.026 65.361,349.927 64.500 C 349.827 63.636,349.564 63.373,348.700 63.273 C 347.836 63.174,347.600 62.938,347.600 62.173 C 347.600 61.402,347.393 61.200,346.600 61.200 C 345.756 61.200,345.600 61.013,345.600 60.000 C 345.600 58.933,345.467 58.800,344.400 58.800 C 343.387 58.800,343.200 58.644,343.200 57.800 C 343.200 57.000,343.000 56.800,342.200 56.800 C 341.356 56.800,341.200 56.613,341.200 55.600 C 341.200 54.533,341.067 54.400,340.000 54.400 C 338.987 54.400,338.800 54.244,338.800 53.400 C 338.800 52.607,338.598 52.400,337.827 52.400 C 337.062 52.400,336.826 52.164,336.727 51.300 C 336.627 50.436,336.364 50.173,335.500 50.073 C 334.639 49.974,334.400 49.737,334.400 48.981 C 334.400 48.294,334.122 47.945,333.435 47.773 C 332.860 47.629,332.371 47.140,332.227 46.565 C 332.055 45.878,331.706 45.600,331.019 45.600 C 330.263 45.600,330.026 45.361,329.927 44.500 C 329.827 43.636,329.564 43.373,328.700 43.273 C 327.836 43.174,327.600 42.938,327.600 42.173 C 327.600 41.260,327.464 41.200,325.400 41.200 C 323.222 41.200,323.200 41.188,323.200 40.000 C 323.200 38.987,323.044 38.800,322.200 38.800 C 321.400 38.800,321.200 38.600,321.200 37.800 C 321.200 36.961,321.012 36.800,320.027 36.800 C 319.044 36.800,318.833 36.621,318.727 35.700 C 318.609 34.674,318.459 34.592,316.500 34.479 C 314.572 34.368,314.400 34.278,314.400 33.379 C 314.400 32.599,314.195 32.400,313.390 32.400 C 312.588 32.400,312.331 32.153,312.140 31.200 C 311.909 30.045,311.819 30.000,309.750 30.000 C 307.728 30.000,307.600 29.941,307.600 29.008 C 307.600 28.289,307.331 27.948,306.623 27.770 C 306.028 27.621,305.598 27.187,305.523 26.662 C 305.418 25.923,305.100 25.783,303.300 25.679 C 301.399 25.570,301.200 25.469,301.200 24.622 C 301.200 23.536,300.538 23.200,298.395 23.200 C 297.103 23.200,296.835 23.055,296.728 22.300 C 296.617 21.518,296.329 21.384,294.527 21.280 C 292.595 21.168,292.437 21.080,292.196 19.980 C 291.947 18.850,291.844 18.800,289.768 18.800 C 287.722 18.800,287.600 18.744,287.600 17.800 C 287.600 16.855,287.480 16.800,285.400 16.800 C 283.222 16.800,283.200 16.788,283.200 15.600 C 283.200 14.412,283.178 14.400,281.000 14.400 C 278.920 14.400,278.800 14.345,278.800 13.400 C 278.800 12.418,278.745 12.400,275.632 12.400 L 272.464 12.400 272.200 11.200 C 271.947 10.049,271.849 10.000,269.796 10.000 C 267.885 10.000,267.642 9.904,267.528 9.105 C 267.389 8.132,265.814 7.668,262.500 7.623 C 261.107 7.604,260.800 7.463,260.800 6.843 C 260.800 5.782,260.063 5.600,255.767 5.600 C 252.060 5.600,252.000 5.585,252.000 4.643 C 252.000 3.371,251.406 3.200,246.995 3.200 C 243.422 3.200,243.250 3.160,243.128 2.300 C 243.002 1.414,242.898 1.398,236.500 1.290 C 231.087 1.199,230.000 1.081,230.000 0.590 C 230.000 0.075,226.176 0.000,200.000 0.000 C 173.824 0.000,170.000 0.075,170.000 0.590 M253.713 117.359 C 255.053 117.941,298.923 161.588,299.853 163.265 C 300.592 164.598,300.577 176.229,299.834 177.570 C 298.909 179.240,255.082 222.827,253.516 223.635 C 251.237 224.810,242.064 224.758,239.794 223.556 C 238.886 223.076,230.621 215.157,220.600 205.166 C 200.871 185.498,201.254 185.846,199.933 186.352 C 199.420 186.549,192.068 193.633,183.596 202.095 C 175.124 210.557,167.654 217.759,166.996 218.101 C 166.338 218.443,165.403 219.262,164.918 219.921 C 164.432 220.580,162.909 221.683,161.533 222.370 L 159.031 223.620 153.816 223.386 C 150.947 223.256,148.150 223.060,147.600 222.949 C 146.450 222.716,103.143 179.745,102.098 177.800 C 101.367 176.438,100.913 168.553,101.380 165.321 C 101.656 163.415,101.831 163.226,123.729 141.281 C 149.787 115.166,146.917 117.400,154.400 117.400 C 161.877 117.400,159.479 115.622,180.798 136.974 C 195.130 151.327,199.210 155.200,200.000 155.200 C 200.791 155.200,204.946 151.249,219.602 136.561 C 229.831 126.309,238.740 117.676,239.400 117.376 C 241.103 116.603,251.941 116.590,253.713 117.359 M152.800 140.056 C 149.901 141.822,123.200 169.045,123.200 170.234 C 123.200 171.406,151.575 200.570,153.500 201.377 C 154.360 201.738,180.226 176.783,184.451 171.517 C 186.061 169.510,186.640 170.235,170.650 154.263 C 154.831 138.462,155.085 138.664,152.800 140.056 M230.882 154.852 C 213.679 172.027,214.687 170.345,219.105 174.514 C 220.555 175.881,222.474 177.791,223.371 178.758 C 224.267 179.725,225.794 181.255,226.764 182.158 C 228.868 184.116,231.189 186.426,233.472 188.836 C 240.827 196.599,245.592 200.851,246.797 200.726 C 248.335 200.568,276.719 172.490,277.061 170.789 C 277.241 169.896,260.342 152.317,248.933 141.529 C 246.397 139.131,247.286 138.475,230.882 154.852 M368.600 251.262 C 375.390 254.204,377.517 259.951,372.701 262.341 L 370.805 263.282 372.819 265.093 C 381.075 272.516,374.803 283.349,362.618 282.711 C 353.882 282.254,347.197 273.100,353.767 270.591 C 355.621 269.883,355.750 268.732,354.129 267.359 C 353.403 266.744,352.408 264.245,352.359 262.913 L 352.318 261.800 352.029 263.000 C 351.615 264.715,350.920 265.939,349.152 268.072 C 347.470 270.101,347.068 272.260,348.198 273.198 C 348.527 273.472,349.009 274.404,349.269 275.271 C 349.528 276.138,350.069 277.023,350.470 277.238 C 351.887 277.996,351.403 281.058,349.726 281.940 C 346.261 283.764,340.919 281.750,339.646 278.139 C 339.348 277.292,338.788 276.240,338.402 275.800 C 338.016 275.360,337.478 274.571,337.207 274.046 C 336.467 272.614,336.013 273.685,336.006 276.881 C 335.996 281.387,335.041 282.400,330.803 282.400 C 328.887 282.400,328.234 282.219,327.322 281.435 L 326.200 280.470 326.085 267.502 C 325.928 249.923,325.319 250.930,335.983 251.135 C 343.748 251.284,346.945 252.156,348.656 254.592 C 349.065 255.174,349.830 256.189,350.355 256.848 C 350.880 257.507,351.548 258.711,351.838 259.523 C 352.282 260.768,352.368 260.843,352.385 260.000 C 352.513 253.530,362.015 248.409,368.600 251.262 M46.658 251.634 C 47.066 251.983,47.945 252.483,48.611 252.746 C 50.110 253.337,54.000 257.011,54.000 257.836 C 54.000 258.169,54.529 258.626,55.177 258.852 C 55.824 259.077,56.433 259.563,56.530 259.931 C 56.628 260.299,56.728 259.106,56.754 257.280 C 56.813 253.028,57.410 251.790,59.695 251.174 C 64.496 249.882,66.797 251.801,66.806 257.106 C 66.814 261.376,66.844 261.424,69.718 261.713 C 73.885 262.132,74.400 261.709,74.401 257.861 C 74.402 251.387,79.266 248.405,83.279 252.418 L 84.400 253.538 84.447 264.069 C 84.505 276.863,84.941 279.609,86.226 275.258 C 86.484 274.384,87.079 272.877,87.548 271.908 C 88.016 270.940,88.400 269.871,88.400 269.533 C 88.400 269.196,88.829 268.112,89.354 267.125 C 89.878 266.139,90.436 264.717,90.593 263.966 C 90.749 263.215,91.215 262.014,91.627 261.297 C 92.039 260.580,92.626 259.050,92.932 257.897 C 94.385 252.409,96.706 250.525,101.495 250.948 C 104.613 251.224,106.141 252.273,107.063 254.771 C 107.434 255.777,107.893 256.806,108.083 257.059 C 108.274 257.311,108.861 258.751,109.389 260.259 C 111.257 265.598,112.248 268.211,112.752 269.131 C 113.032 269.644,113.536 270.987,113.872 272.117 C 114.207 273.247,114.771 274.383,115.124 274.641 C 115.477 274.899,115.985 275.716,116.252 276.455 C 116.656 277.571,116.745 275.894,116.772 266.600 C 116.806 254.824,117.048 252.780,118.520 251.816 C 120.866 250.281,125.033 250.763,126.314 252.717 C 127.040 253.825,127.621 275.833,127.009 279.090 C 126.377 282.460,121.298 283.748,117.856 281.412 C 117.055 280.869,116.400 280.594,116.400 280.802 C 116.400 281.653,113.963 282.400,111.189 282.400 C 108.206 282.400,106.000 281.142,106.000 279.441 C 106.000 278.272,103.845 277.600,100.094 277.600 L 96.547 277.600 95.657 279.184 C 94.059 282.027,93.105 282.491,89.411 282.222 C 85.306 281.923,83.280 281.923,79.758 282.221 C 75.339 282.594,74.674 281.847,74.468 276.280 C 74.289 271.451,74.441 271.615,70.149 271.605 C 66.956 271.598,66.691 271.938,66.812 275.891 C 66.944 280.197,66.923 280.314,65.818 281.418 C 64.955 282.282,64.484 282.400,61.907 282.400 C 57.674 282.400,56.409 281.100,56.402 276.747 C 56.400 275.062,54.949 274.234,54.235 275.509 C 48.955 284.944,33.985 285.347,27.400 276.233 C 23.533 270.881,23.576 261.339,27.485 257.125 C 32.272 251.964,35.004 250.726,41.258 250.883 C 44.804 250.972,46.093 251.151,46.658 251.634 M138.081 251.163 C 139.995 251.608,141.689 252.994,142.768 255.000 C 143.909 257.119,145.126 259.029,146.654 261.097 C 148.207 263.198,148.386 262.803,148.395 257.269 C 148.400 253.704,148.451 253.488,149.540 252.399 C 151.659 250.280,156.023 250.444,157.502 252.698 C 158.231 253.810,158.811 275.854,158.198 279.145 C 157.342 283.737,148.477 283.820,145.974 279.260 C 145.533 278.457,144.645 276.990,144.000 276.000 C 143.355 275.010,142.446 273.504,141.981 272.652 C 140.748 270.397,140.274 271.258,139.997 276.255 C 139.694 281.720,139.114 282.400,134.760 282.400 C 129.583 282.400,129.497 282.123,129.672 265.989 C 129.814 252.949,130.007 251.878,132.307 251.371 C 132.908 251.238,133.580 251.070,133.800 250.997 C 134.564 250.742,136.609 250.821,138.081 251.163 M188.290 252.274 C 190.983 253.396,193.451 255.972,193.880 258.108 C 194.092 259.160,194.800 260.062,194.800 259.279 C 194.800 259.077,195.211 258.302,195.713 257.556 C 196.215 256.810,196.935 255.384,197.313 254.386 C 198.182 252.092,199.406 251.378,203.009 251.059 C 207.603 250.654,209.568 252.328,211.387 258.200 C 211.728 259.300,212.355 260.920,212.782 261.800 C 213.208 262.680,213.855 264.300,214.220 265.400 C 215.675 269.793,216.633 272.247,217.262 273.200 C 217.624 273.750,218.050 274.830,218.208 275.600 C 219.150 280.210,219.515 277.263,219.560 264.669 L 219.600 253.538 220.769 252.369 C 221.839 251.300,222.189 251.197,224.869 251.161 C 233.805 251.041,236.400 251.151,237.477 251.694 C 238.095 252.006,239.199 252.562,239.932 252.930 C 241.519 253.728,242.885 253.478,244.215 252.148 C 245.298 251.066,244.616 251.126,256.800 251.047 C 265.783 250.989,265.804 250.991,267.929 252.047 L 270.058 253.106 270.954 252.209 C 273.897 249.266,280.716 251.089,282.932 255.411 C 283.409 256.343,284.724 258.469,285.853 260.137 L 287.906 263.169 288.153 261.934 C 288.289 261.255,288.400 259.184,288.400 257.330 C 288.400 252.115,290.121 250.261,294.328 250.943 C 298.178 251.568,298.395 252.431,298.398 267.113 C 298.401 282.498,298.440 282.400,292.257 282.400 C 288.466 282.400,287.020 281.662,286.003 279.208 C 285.728 278.544,285.357 278.000,285.178 278.000 C 285.000 278.000,284.752 277.680,284.628 277.288 C 284.504 276.896,283.776 275.604,283.010 274.416 C 282.245 273.228,281.547 272.063,281.459 271.828 C 280.950 270.459,280.246 272.704,280.149 276.011 C 279.983 281.646,279.351 282.400,274.794 282.400 C 269.930 282.400,269.849 282.208,269.600 270.000 L 269.400 260.200 268.200 260.258 C 260.852 260.613,261.200 260.116,261.200 270.262 C 261.200 281.977,260.892 282.613,255.356 282.334 C 250.844 282.106,251.044 282.603,250.762 270.887 C 250.632 265.449,250.497 260.955,250.462 260.900 C 250.171 260.432,245.200 260.886,245.200 261.380 C 245.200 263.581,244.171 266.250,242.560 268.228 C 240.768 270.429,240.360 271.937,241.338 272.749 C 241.634 272.994,242.211 273.961,242.620 274.898 C 243.029 275.834,243.687 277.029,244.082 277.554 C 246.108 280.245,244.181 282.400,239.750 282.400 L 236.663 282.400 234.988 280.652 C 234.067 279.690,233.189 278.409,233.037 277.804 C 232.756 276.687,230.508 273.600,229.974 273.600 C 229.813 273.600,229.619 275.146,229.541 277.035 C 229.329 282.204,226.753 283.629,220.824 281.857 C 219.346 281.415,218.877 281.416,218.024 281.861 C 215.129 283.371,208.800 281.933,208.800 279.764 C 208.800 278.257,207.308 277.600,203.900 277.605 C 199.396 277.613,198.931 277.788,198.035 279.813 C 197.052 282.036,196.291 282.400,192.626 282.400 C 187.645 282.400,186.781 280.302,189.380 274.514 C 190.824 271.298,190.632 270.676,188.430 271.434 C 187.537 271.742,185.537 272.112,183.985 272.256 C 180.399 272.589,180.000 273.077,180.000 277.120 C 180.000 281.158,178.883 282.400,175.250 282.400 C 169.948 282.400,170.000 282.555,170.000 266.761 C 170.000 252.690,170.126 251.852,172.307 251.371 C 172.908 251.238,173.570 251.089,173.778 251.039 C 176.058 250.490,186.050 251.340,188.290 252.274 M322.613 251.772 C 325.146 253.432,325.458 257.299,323.218 259.300 C 322.028 260.364,321.837 260.400,317.426 260.400 C 314.918 260.400,312.582 260.509,312.235 260.642 C 310.849 261.174,312.220 261.600,315.324 261.602 C 321.305 261.606,322.800 262.548,322.800 266.309 C 322.800 270.554,321.802 271.319,316.200 271.373 C 314.220 271.392,312.372 271.553,312.093 271.731 C 310.975 272.447,312.238 272.800,315.924 272.802 C 322.652 272.806,324.600 273.943,324.600 277.865 C 324.600 279.853,324.471 280.181,323.271 281.253 L 321.942 282.441 312.535 282.320 C 300.258 282.163,301.600 284.067,301.600 266.810 C 301.600 249.223,300.287 250.957,313.521 251.068 C 320.189 251.123,321.816 251.249,322.613 251.772 M38.600 260.766 C 32.875 263.306,34.129 272.384,40.252 272.719 L 43.000 272.869 45.101 270.866 C 48.039 268.065,50.886 267.780,53.711 270.001 C 54.269 270.441,55.088 270.800,55.530 270.800 C 55.972 270.800,56.414 271.025,56.513 271.300 C 56.611 271.575,56.692 269.460,56.692 266.600 C 56.692 263.740,56.611 261.625,56.513 261.900 C 56.414 262.175,55.905 262.400,55.381 262.400 C 54.855 262.400,54.246 262.740,54.023 263.158 C 52.711 265.609,47.780 265.415,45.131 262.808 C 42.998 260.708,40.494 259.925,38.600 260.766 M180.573 260.926 C 179.991 262.442,180.544 263.400,182.000 263.400 C 183.287 263.400,183.410 263.295,183.525 262.100 C 183.609 261.231,183.476 260.798,183.125 260.795 C 182.836 260.792,182.197 260.681,181.705 260.549 C 181.103 260.388,180.732 260.511,180.573 260.926 M229.811 260.782 C 228.557 262.812,231.565 264.171,233.374 262.392 L 234.548 261.237 233.448 260.818 C 232.074 260.296,230.124 260.276,229.811 260.782 M336.260 260.702 C 335.433 262.040,337.369 264.081,338.906 263.492 C 339.884 263.116,340.644 261.199,339.982 260.780 C 339.279 260.336,336.522 260.278,336.260 260.702 M363.078 260.656 C 362.570 261.163,363.274 261.600,364.600 261.600 C 366.076 261.600,366.771 261.028,365.765 260.642 C 364.938 260.324,363.401 260.332,363.078 260.656 M203.093 266.783 C 202.814 267.830,202.934 268.171,203.501 267.942 C 203.694 267.864,203.740 267.350,203.603 266.800 L 203.355 265.800 203.093 266.783 M360.800 271.999 C 360.800 272.938,363.336 273.520,364.600 272.870 L 365.800 272.254 364.800 271.967 C 363.278 271.530,360.800 271.550,360.800 271.999 " stroke="none" fill="#fbfbfb" fill-rule="evenodd"></path><path id="path2" d="M150.800 118.774 C 149.810 118.921,148.459 119.329,147.799 119.680 C 146.271 120.492,103.551 163.239,103.130 164.377 C 102.587 165.845,102.283 171.373,102.586 174.243 L 102.878 177.000 125.139 199.271 C 144.377 218.517,147.596 221.577,148.843 221.805 C 155.657 223.047,162.434 221.442,164.392 218.123 L 165.210 216.737 164.355 215.537 C 163.885 214.877,163.118 213.942,162.650 213.460 C 159.759 210.478,155.345 205.450,155.043 204.793 C 154.846 204.367,154.336 203.907,153.908 203.771 C 153.480 203.635,146.139 196.518,137.595 187.954 C 121.230 171.553,120.946 171.203,122.145 168.929 C 123.124 167.072,152.460 138.093,153.663 137.795 C 155.368 137.373,155.886 137.822,171.000 152.812 C 189.087 170.750,187.994 169.799,189.764 169.158 C 191.525 168.522,199.136 160.888,199.563 159.330 C 199.840 158.321,199.627 157.944,197.567 155.800 C 196.298 154.480,194.164 152.230,192.823 150.800 C 191.483 149.370,190.254 148.080,190.093 147.934 C 189.932 147.787,183.500 141.422,175.800 133.788 C 159.121 117.252,159.502 117.481,150.800 118.774 " stroke="none" fill="#46ee86" fill-rule="evenodd"></path><path id="path3" d="M239.400 117.376 C 238.740 117.676,229.831 126.309,219.602 136.561 C 204.946 151.249,200.791 155.200,200.000 155.200 C 199.210 155.200,195.130 151.327,180.798 136.974 C 159.479 115.622,161.877 117.400,154.400 117.400 C 146.917 117.400,149.787 115.166,123.729 141.281 C 101.831 163.226,101.656 163.415,101.380 165.321 C 100.913 168.553,101.367 176.438,102.098 177.800 C 103.143 179.745,146.450 222.716,147.600 222.949 C 148.150 223.060,150.947 223.256,153.816 223.386 L 159.031 223.620 161.533 222.370 C 162.909 221.683,164.432 220.580,164.918 219.921 C 165.403 219.262,166.338 218.443,166.996 218.101 C 167.654 217.759,175.124 210.557,183.596 202.095 C 192.068 193.633,199.420 186.549,199.933 186.352 C 201.254 185.846,200.871 185.498,220.600 205.166 C 230.621 215.157,238.886 223.076,239.794 223.556 C 242.064 224.758,251.237 224.810,253.516 223.635 C 255.082 222.827,298.909 179.240,299.834 177.570 C 300.577 176.229,300.592 164.598,299.853 163.265 C 298.923 161.588,255.053 117.941,253.713 117.359 C 251.941 116.590,241.103 116.603,239.400 117.376 M253.600 118.906 C 255.767 120.303,298.304 163.254,298.779 164.526 C 299.414 166.225,299.315 174.951,298.642 176.561 C 297.996 178.108,255.054 221.241,253.212 222.194 C 251.634 223.010,242.165 223.052,240.287 222.251 C 239.542 221.934,231.252 213.925,220.600 203.231 C 210.480 193.072,201.897 184.589,201.526 184.380 C 200.234 183.651,198.929 184.801,183.600 200.184 C 172.596 211.226,167.723 215.850,166.528 216.384 C 165.547 216.822,164.609 217.610,164.256 218.291 C 162.657 221.384,155.493 223.017,148.843 221.805 C 147.596 221.577,144.377 218.517,125.139 199.271 L 102.878 177.000 102.586 174.243 C 102.283 171.373,102.587 165.845,103.130 164.377 C 103.618 163.058,146.391 120.422,148.103 119.548 C 149.174 119.001,150.842 118.710,153.918 118.534 C 160.298 118.169,159.460 117.585,175.800 133.786 C 183.500 141.421,189.932 147.787,190.093 147.934 C 190.254 148.080,191.424 149.307,192.693 150.661 C 197.522 155.812,199.682 158.000,199.938 158.000 C 200.084 158.000,208.662 149.522,219.002 139.160 C 242.238 115.871,239.466 117.999,246.560 118.002 C 251.731 118.004,252.317 118.079,253.600 118.906 M152.789 138.254 C 151.126 139.354,122.788 167.723,122.148 168.929 C 120.950 171.188,121.256 171.567,137.184 187.547 C 145.504 195.894,152.744 203.007,153.273 203.354 C 154.231 203.981,154.317 203.902,171.327 186.892 L 188.419 169.800 186.910 168.438 C 186.079 167.689,179.010 160.748,171.200 153.013 C 154.283 136.259,154.971 136.811,152.789 138.254 M229.668 154.147 L 213.969 169.894 214.458 171.047 C 215.587 173.711,245.066 202.400,246.673 202.400 C 248.620 202.400,278.171 173.258,278.647 170.868 C 279.012 169.039,248.761 138.400,246.591 138.400 C 245.513 138.400,243.499 140.275,229.668 154.147 M155.849 139.965 C 157.341 140.875,183.889 167.312,184.922 168.917 C 185.893 170.425,186.207 170.064,168.830 187.377 C 155.730 200.430,154.317 201.720,153.500 201.377 C 151.575 200.570,123.200 171.406,123.200 170.234 C 123.200 168.491,152.648 139.203,154.400 139.203 C 154.510 139.203,155.162 139.546,155.849 139.965 M248.933 141.529 C 260.342 152.317,277.241 169.896,277.061 170.789 C 276.719 172.490,248.335 200.568,246.797 200.726 C 245.592 200.851,240.827 196.599,233.472 188.836 C 231.189 186.426,228.868 184.116,226.764 182.158 C 225.794 181.255,224.267 179.725,223.371 178.758 C 222.474 177.791,220.555 175.881,219.105 174.514 C 214.687 170.345,213.679 172.027,230.882 154.852 C 247.286 138.475,246.397 139.131,248.933 141.529 M361.600 250.788 C 356.825 251.428,352.468 255.783,352.385 260.000 C 352.368 260.843,352.282 260.768,351.838 259.523 C 351.548 258.711,350.880 257.507,350.355 256.848 C 349.830 256.189,349.065 255.174,348.656 254.592 C 346.945 252.156,343.748 251.284,335.983 251.135 C 325.319 250.930,325.928 249.923,326.085 267.502 L 326.200 280.470 327.322 281.435 C 328.234 282.219,328.887 282.400,330.803 282.400 C 335.041 282.400,335.996 281.387,336.006 276.881 C 336.013 273.685,336.467 272.614,337.207 274.046 C 337.478 274.571,338.016 275.360,338.402 275.800 C 338.788 276.240,339.348 277.292,339.646 278.139 C 340.919 281.750,346.261 283.764,349.726 281.940 C 351.403 281.058,351.887 277.996,350.470 277.238 C 350.069 277.023,349.528 276.138,349.269 275.271 C 349.009 274.404,348.527 273.472,348.198 273.198 C 347.068 272.260,347.470 270.101,349.152 268.072 C 350.920 265.939,351.615 264.715,352.029 263.000 L 352.318 261.800 352.359 262.913 C 352.408 264.245,353.403 266.744,354.129 267.359 C 355.750 268.732,355.621 269.883,353.767 270.591 C 347.197 273.100,353.882 282.254,362.618 282.711 C 374.803 283.349,381.075 272.516,372.819 265.093 L 370.805 263.282 372.701 262.341 C 376.026 260.691,376.329 258.944,373.906 255.396 C 371.404 251.733,366.960 250.069,361.600 250.788 M33.800 252.154 C 31.313 253.387,29.977 254.438,27.485 257.125 C 23.576 261.339,23.533 270.881,27.400 276.233 C 33.985 285.347,48.955 284.944,54.235 275.509 C 54.949 274.234,56.400 275.062,56.402 276.747 C 56.409 281.100,57.674 282.400,61.907 282.400 C 64.484 282.400,64.955 282.282,65.818 281.418 C 66.923 280.314,66.944 280.197,66.812 275.891 C 66.691 271.938,66.956 271.598,70.149 271.605 C 74.441 271.615,74.289 271.451,74.468 276.280 C 74.674 281.847,75.339 282.594,79.758 282.221 C 83.280 281.923,85.306 281.923,89.411 282.222 C 93.105 282.491,94.059 282.027,95.657 279.184 L 96.547 277.600 100.094 277.600 C 103.845 277.600,106.000 278.272,106.000 279.441 C 106.000 281.142,108.206 282.400,111.189 282.400 C 113.963 282.400,116.400 281.653,116.400 280.802 C 116.400 280.594,117.055 280.869,117.856 281.412 C 121.298 283.748,126.377 282.460,127.009 279.090 C 127.621 275.833,127.040 253.825,126.314 252.717 C 125.033 250.763,120.866 250.281,118.520 251.816 C 117.048 252.780,116.806 254.824,116.772 266.600 C 116.745 275.894,116.656 277.571,116.252 276.455 C 115.985 275.716,115.477 274.899,115.124 274.641 C 114.771 274.383,114.207 273.247,113.872 272.117 C 113.536 270.987,113.032 269.644,112.752 269.131 C 112.248 268.211,111.257 265.598,109.389 260.259 C 108.861 258.751,108.274 257.311,108.083 257.059 C 107.893 256.806,107.434 255.777,107.063 254.771 C 106.141 252.273,104.613 251.224,101.495 250.948 C 96.706 250.525,94.385 252.409,92.932 257.897 C 92.626 259.050,92.039 260.580,91.627 261.297 C 91.215 262.014,90.749 263.215,90.593 263.966 C 90.436 264.717,89.878 266.139,89.354 267.125 C 88.829 268.112,88.400 269.196,88.400 269.533 C 88.400 269.871,88.016 270.940,87.548 271.908 C 87.079 272.877,86.484 274.384,86.226 275.258 C 84.941 279.609,84.505 276.863,84.447 264.069 L 84.400 253.538 83.279 252.418 C 79.266 248.405,74.402 251.387,74.401 257.861 C 74.400 261.709,73.885 262.132,69.718 261.713 C 66.844 261.424,66.814 261.376,66.806 257.106 C 66.797 251.801,64.496 249.882,59.695 251.174 C 57.410 251.790,56.813 253.028,56.754 257.280 C 56.728 259.106,56.628 260.299,56.530 259.931 C 56.433 259.563,55.824 259.077,55.177 258.852 C 54.529 258.626,54.000 258.169,54.000 257.836 C 54.000 257.011,50.110 253.337,48.611 252.746 C 47.945 252.483,47.066 251.983,46.658 251.634 C 45.005 250.221,37.051 250.542,33.800 252.154 M133.800 250.997 C 133.580 251.070,132.908 251.238,132.307 251.371 C 130.007 251.878,129.814 252.949,129.672 265.989 C 129.497 282.123,129.583 282.400,134.760 282.400 C 139.114 282.400,139.694 281.720,139.997 276.255 C 140.274 271.258,140.748 270.397,141.981 272.652 C 142.446 273.504,143.355 275.010,144.000 276.000 C 144.645 276.990,145.533 278.457,145.974 279.260 C 148.477 283.820,157.342 283.737,158.198 279.145 C 158.811 275.854,158.231 253.810,157.502 252.698 C 156.023 250.444,151.659 250.280,149.540 252.399 C 148.451 253.488,148.400 253.704,148.395 257.269 C 148.386 262.803,148.207 263.198,146.654 261.097 C 145.126 259.029,143.909 257.119,142.768 255.000 C 141.084 251.869,136.850 249.979,133.800 250.997 M173.778 251.039 C 173.570 251.089,172.908 251.238,172.307 251.371 C 170.126 251.852,170.000 252.690,170.000 266.761 C 170.000 282.555,169.948 282.400,175.250 282.400 C 178.883 282.400,180.000 281.158,180.000 277.120 C 180.000 273.077,180.399 272.589,183.985 272.256 C 185.537 272.112,187.537 271.742,188.430 271.434 C 190.632 270.676,190.824 271.298,189.380 274.514 C 186.781 280.302,187.645 282.400,192.626 282.400 C 196.291 282.400,197.052 282.036,198.035 279.813 C 198.931 277.788,199.396 277.613,203.900 277.605 C 207.308 277.600,208.800 278.257,208.800 279.764 C 208.800 281.933,215.129 283.371,218.024 281.861 C 218.877 281.416,219.346 281.415,220.824 281.857 C 226.753 283.629,229.329 282.204,229.541 277.035 C 229.619 275.146,229.813 273.600,229.974 273.600 C 230.508 273.600,232.756 276.687,233.037 277.804 C 233.189 278.409,234.067 279.690,234.988 280.652 L 236.663 282.400 239.750 282.400 C 244.181 282.400,246.108 280.245,244.082 277.554 C 243.687 277.029,243.029 275.834,242.620 274.898 C 242.211 273.961,241.634 272.994,241.338 272.749 C 240.360 271.937,240.768 270.429,242.560 268.228 C 244.171 266.250,245.200 263.581,245.200 261.380 C 245.200 260.886,250.171 260.432,250.462 260.900 C 250.497 260.955,250.632 265.449,250.762 270.887 C 251.044 282.603,250.844 282.106,255.356 282.334 C 260.892 282.613,261.200 281.977,261.200 270.262 C 261.200 260.116,260.852 260.613,268.200 260.258 L 269.400 260.200 269.600 270.000 C 269.849 282.208,269.930 282.400,274.794 282.400 C 279.351 282.400,279.983 281.646,280.149 276.011 C 280.246 272.704,280.950 270.459,281.459 271.828 C 281.547 272.063,282.245 273.228,283.010 274.416 C 283.776 275.604,284.504 276.896,284.628 277.288 C 284.752 277.680,285.000 278.000,285.178 278.000 C 285.357 278.000,285.728 278.544,286.003 279.208 C 287.020 281.662,288.466 282.400,292.257 282.400 C 298.440 282.400,298.401 282.498,298.398 267.113 C 298.395 252.431,298.178 251.568,294.328 250.943 C 290.121 250.261,288.400 252.115,288.400 257.330 C 288.400 259.184,288.289 261.255,288.153 261.934 L 287.906 263.169 285.853 260.137 C 284.724 258.469,283.409 256.343,282.932 255.411 C 280.716 251.089,273.897 249.266,270.954 252.209 L 270.058 253.106 267.929 252.047 C 265.804 250.991,265.783 250.989,256.800 251.047 C 244.616 251.126,245.298 251.066,244.215 252.148 C 242.885 253.478,241.519 253.728,239.932 252.930 C 239.199 252.562,238.095 252.006,237.477 251.694 C 236.400 251.151,233.805 251.041,224.869 251.161 C 222.189 251.197,221.839 251.300,220.769 252.369 L 219.600 253.538 219.560 264.669 C 219.515 277.263,219.150 280.210,218.208 275.600 C 218.050 274.830,217.624 273.750,217.262 273.200 C 216.633 272.247,215.675 269.793,214.220 265.400 C 213.855 264.300,213.208 262.680,212.782 261.800 C 212.355 260.920,211.728 259.300,211.387 258.200 C 209.568 252.328,207.603 250.654,203.009 251.059 C 199.406 251.378,198.182 252.092,197.313 254.386 C 196.935 255.384,196.215 256.810,195.713 257.556 C 195.211 258.302,194.800 259.077,194.800 259.279 C 194.800 260.062,194.092 259.160,193.880 258.108 C 193.451 255.972,190.983 253.396,188.290 252.274 C 186.050 251.340,176.058 250.490,173.778 251.039 M304.309 251.126 C 301.672 251.430,301.600 251.844,301.600 266.810 C 301.600 284.067,300.258 282.163,312.535 282.320 L 321.942 282.441 323.271 281.253 C 324.471 280.181,324.600 279.853,324.600 277.865 C 324.600 273.943,322.652 272.806,315.924 272.802 C 312.238 272.800,310.975 272.447,312.093 271.731 C 312.372 271.553,314.220 271.392,316.200 271.373 C 321.802 271.319,322.800 270.554,322.800 266.309 C 322.800 262.548,321.305 261.606,315.324 261.602 C 312.220 261.600,310.849 261.174,312.235 260.642 C 312.582 260.509,314.918 260.400,317.426 260.400 C 321.837 260.400,322.028 260.364,323.218 259.300 C 325.458 257.299,325.146 253.432,322.613 251.772 C 321.701 251.174,308.065 250.693,304.309 251.126 M45.454 252.627 C 52.637 255.021,56.388 262.205,51.100 263.440 C 49.001 263.930,47.901 263.610,46.158 262.003 C 40.742 257.013,33.800 259.814,33.800 266.991 C 33.800 273.774,40.883 276.347,46.185 271.490 C 49.309 268.628,54.084 269.902,53.666 273.486 C 52.949 279.626,41.307 283.792,34.263 280.430 C 17.457 272.409,27.789 246.739,45.454 252.627 M368.480 252.667 C 372.669 254.174,375.178 258.459,373.092 260.544 C 371.333 262.303,369.535 262.328,367.453 260.622 C 364.922 258.548,363.074 258.310,362.228 259.946 C 361.381 261.584,362.278 262.571,364.980 262.976 C 378.770 265.044,378.370 281.420,364.524 281.664 C 355.709 281.820,347.925 273.214,355.082 271.226 C 357.445 270.570,357.977 270.697,359.334 272.238 C 361.928 275.185,365.234 275.759,366.339 273.454 C 367.132 271.798,366.405 271.276,361.792 270.188 C 358.431 269.396,357.694 269.065,356.321 267.736 C 348.298 259.969,357.404 248.685,368.480 252.667 M64.618 253.382 C 65.504 254.268,65.600 254.690,65.600 257.712 C 65.600 262.411,66.170 262.941,71.003 262.742 C 75.369 262.563,75.600 262.313,75.600 257.768 C 75.600 253.606,76.146 252.784,79.096 252.500 C 80.899 252.327,81.262 252.426,82.170 253.334 L 83.200 254.364 83.200 266.728 C 83.200 280.584,83.143 280.873,80.308 281.307 C 76.918 281.827,75.600 280.198,75.600 275.488 C 75.600 271.104,75.180 270.659,70.859 270.464 C 66.140 270.251,65.452 270.946,65.679 275.703 C 65.844 279.147,65.811 279.318,64.765 280.438 C 63.106 282.213,59.139 281.728,58.006 279.611 C 57.482 278.632,57.600 255.062,58.135 253.951 C 58.980 252.192,63.070 251.833,64.618 253.382 M104.522 253.210 C 105.506 253.984,107.836 259.440,112.803 272.600 C 113.633 274.800,114.588 277.119,114.926 277.753 C 117.154 281.937,109.139 282.876,106.795 278.706 C 105.075 275.645,97.817 274.705,95.664 277.265 C 92.188 281.398,92.320 281.306,89.827 281.342 C 87.354 281.378,85.702 280.250,86.137 278.823 C 87.095 275.673,95.558 254.366,96.132 253.655 C 97.334 252.168,102.826 251.876,104.522 253.210 M124.830 253.432 L 125.800 254.463 125.916 266.846 L 126.033 279.229 124.847 280.414 C 123.371 281.890,121.492 281.986,119.559 280.684 L 118.200 279.769 118.088 267.584 C 118.026 260.883,118.074 255.000,118.193 254.510 C 118.717 252.361,123.147 251.641,124.830 253.432 M139.427 253.151 C 140.114 253.570,141.501 255.287,142.576 257.050 C 148.553 266.851,148.940 266.960,149.294 258.948 C 149.492 254.462,149.551 254.201,150.573 253.322 C 152.100 252.009,154.874 252.038,156.218 253.382 L 157.200 254.364 157.200 266.608 C 157.200 279.717,157.161 279.986,155.132 281.035 C 150.942 283.202,146.741 279.755,141.865 270.150 C 141.284 269.005,139.383 268.088,138.800 268.671 C 138.690 268.781,138.648 271.150,138.708 273.935 C 138.847 280.475,137.537 282.233,133.346 281.131 C 130.784 280.457,130.724 280.103,130.869 266.532 L 131.000 254.330 132.122 253.365 C 133.585 252.108,137.527 251.992,139.427 253.151 M186.733 253.017 C 189.944 253.971,193.195 257.421,193.202 259.884 C 193.206 261.115,194.020 263.600,194.419 263.600 C 194.628 263.600,194.800 263.423,194.800 263.206 C 194.800 261.785,199.065 253.483,200.059 252.969 C 202.904 251.498,207.382 252.445,208.586 254.773 C 209.290 256.134,212.576 264.201,212.996 265.600 C 213.161 266.150,214.355 269.267,215.648 272.526 C 218.799 280.466,218.655 281.325,214.180 281.285 C 211.656 281.263,211.456 281.122,208.571 277.358 C 206.679 274.888,199.194 275.574,197.650 278.359 C 196.330 280.740,194.684 281.705,192.429 281.420 C 189.587 281.060,188.454 279.342,189.621 277.161 C 190.574 275.380,192.394 269.716,192.373 268.600 C 192.351 267.482,192.325 267.461,191.988 268.300 C 191.781 268.813,191.282 269.200,190.825 269.200 C 190.385 269.200,189.300 269.578,188.414 270.039 C 187.393 270.572,185.612 270.981,183.551 271.158 C 179.308 271.523,178.800 272.065,178.800 276.222 C 178.800 280.559,177.214 281.946,173.297 281.037 C 171.250 280.562,171.200 280.222,171.200 266.655 L 171.200 254.058 172.254 253.229 C 173.631 252.146,183.321 252.004,186.733 253.017 M238.400 253.525 C 239.390 254.021,240.830 254.773,241.600 255.195 C 243.431 256.198,243.348 256.218,244.124 254.591 C 245.102 252.539,245.884 252.400,256.457 252.400 L 266.062 252.400 267.231 253.569 C 269.832 256.170,268.121 259.180,263.786 259.629 C 259.885 260.033,260.000 259.709,260.000 270.295 C 260.000 280.397,259.874 280.812,256.638 281.419 C 252.485 282.198,252.000 281.051,252.000 270.449 C 252.000 259.904,251.977 259.846,247.705 259.447 C 244.768 259.172,244.436 259.486,243.629 263.301 C 243.291 264.897,242.662 266.209,241.571 267.589 C 239.438 270.288,239.477 271.517,241.832 275.837 L 243.664 279.198 242.413 280.449 C 240.006 282.855,236.574 281.557,234.175 277.333 C 230.221 270.372,228.400 270.080,228.400 276.406 C 228.400 281.189,225.036 283.187,221.786 280.334 L 220.344 279.068 220.550 272.034 C 220.663 268.165,220.766 262.607,220.778 259.682 C 220.799 254.527,220.831 254.332,221.821 253.343 L 222.842 252.322 229.721 252.472 C 235.888 252.606,236.786 252.715,238.400 253.525 M278.947 252.952 C 279.945 253.369,280.837 254.421,282.594 257.252 C 288.671 267.041,288.939 267.114,289.308 259.099 C 289.522 254.449,289.583 254.173,290.589 253.308 C 292.100 252.009,294.881 252.045,296.218 253.382 L 297.200 254.364 297.200 266.608 C 297.200 279.640,297.151 279.991,295.208 280.996 C 291.787 282.765,288.549 281.358,285.907 276.955 C 283.732 273.329,281.092 269.200,280.949 269.200 C 279.064 269.200,278.800 269.879,278.800 274.720 C 278.800 279.122,278.736 279.520,277.900 280.296 C 276.343 281.742,273.190 281.663,271.781 280.142 L 270.800 279.083 270.800 267.401 C 270.800 255.160,270.982 253.622,272.521 252.879 C 273.788 252.267,277.405 252.308,278.947 252.952 M321.612 252.807 C 322.957 253.526,323.445 256.106,322.532 257.670 C 321.600 259.265,320.774 259.488,315.562 259.553 C 312.268 259.593,311.621 259.713,311.000 260.400 C 309.603 261.943,311.068 262.800,315.102 262.800 C 320.174 262.800,322.447 264.255,321.821 267.102 C 321.292 269.513,320.098 270.105,315.911 270.034 C 312.288 269.973,312.145 270.005,311.081 271.116 L 309.983 272.261 310.832 273.031 C 311.536 273.668,312.507 273.838,316.494 274.022 C 322.914 274.318,325.212 276.816,322.242 280.269 L 321.283 281.384 314.246 281.537 C 306.207 281.712,304.688 281.525,303.355 280.192 L 302.400 279.236 302.428 267.118 C 302.458 254.223,302.504 253.810,304.020 252.971 C 305.226 252.303,320.407 252.161,321.612 252.807 M343.227 252.843 C 350.058 254.308,352.361 262.284,347.648 268.155 C 345.913 270.317,346.008 271.678,348.173 275.704 C 350.576 280.171,349.724 282.097,345.650 281.408 C 343.091 280.976,341.918 279.945,340.118 276.548 C 339.193 274.802,337.989 272.953,337.442 272.439 L 336.446 271.504 335.625 272.852 C 335.013 273.855,334.803 274.882,334.801 276.864 C 334.799 281.065,331.975 282.851,328.759 280.684 L 327.400 279.768 327.294 267.072 L 327.189 254.375 328.176 253.387 C 329.301 252.262,338.900 251.915,343.227 252.843 M229.296 260.092 C 227.271 262.260,228.883 264.592,232.215 264.315 C 234.720 264.108,235.009 263.908,235.384 262.126 C 235.893 259.709,231.137 258.120,229.296 260.092 M335.696 260.169 C 333.924 262.421,335.462 264.517,338.714 264.284 C 341.128 264.110,341.488 263.861,341.835 262.125 C 342.327 259.665,337.342 258.077,335.696 260.169 M179.689 260.223 C 179.077 260.651,178.800 261.255,178.800 262.160 C 178.800 265.309,184.425 265.583,184.728 262.448 C 184.972 259.934,181.985 258.614,179.689 260.223 M45.131 262.808 C 47.780 265.415,52.711 265.609,54.023 263.158 C 54.246 262.740,54.855 262.400,55.381 262.400 C 55.905 262.400,56.414 262.175,56.513 261.900 C 56.611 261.625,56.692 263.740,56.692 266.600 C 56.692 269.460,56.611 271.575,56.513 271.300 C 56.414 271.025,55.972 270.800,55.530 270.800 C 55.088 270.800,54.269 270.441,53.711 270.001 C 50.886 267.780,48.039 268.065,45.101 270.866 L 43.000 272.869 40.252 272.719 C 36.078 272.490,34.016 269.224,35.357 264.968 C 36.964 259.872,41.198 258.936,45.131 262.808 M183.125 260.795 C 183.476 260.798,183.609 261.231,183.525 262.100 C 183.361 263.805,180.703 264.128,180.468 262.471 C 180.255 260.964,180.696 260.279,181.705 260.549 C 182.197 260.681,182.836 260.792,183.125 260.795 M233.448 260.818 L 234.548 261.237 233.374 262.392 C 231.929 263.814,230.210 263.692,229.821 262.141 C 229.382 260.393,230.886 259.844,233.448 260.818 M339.982 260.780 C 340.644 261.199,339.884 263.116,338.906 263.492 C 337.369 264.081,335.433 262.040,336.260 260.702 C 336.522 260.278,339.279 260.336,339.982 260.780 M365.765 260.642 C 366.771 261.028,366.076 261.600,364.600 261.600 C 363.274 261.600,362.570 261.163,363.078 260.656 C 363.401 260.332,364.938 260.324,365.765 260.642 M202.719 264.697 C 200.650 267.077,202.260 270.294,204.674 268.603 C 205.432 268.072,205.479 267.850,205.097 266.605 C 204.466 264.548,203.512 263.784,202.719 264.697 M99.916 264.945 C 98.578 265.961,98.237 267.700,99.218 268.495 C 101.001 269.939,102.692 268.958,102.247 266.737 C 101.818 264.592,101.103 264.043,99.916 264.945 M203.501 267.942 C 202.934 268.171,202.814 267.830,203.093 266.783 L 203.355 265.800 203.603 266.800 C 203.740 267.350,203.694 267.864,203.501 267.942 M364.800 271.967 L 365.800 272.254 364.600 272.870 C 363.336 273.520,360.800 272.938,360.800 271.999 C 360.800 271.550,363.278 271.530,364.800 271.967 " stroke="none" fill="#99b1a8" fill-rule="evenodd"></path><path id="path4" d="M239.989 118.654 C 237.936 120.011,199.600 158.615,199.600 159.325 C 199.600 160.372,191.717 168.300,189.800 169.180 C 188.718 169.677,182.776 175.354,171.446 186.714 C 152.433 205.776,153.730 203.825,157.432 207.800 C 160.376 210.961,163.776 214.772,164.678 215.921 C 166.014 217.623,167.302 216.552,183.600 200.191 C 198.928 184.802,200.234 183.651,201.526 184.380 C 201.897 184.589,210.480 193.072,220.600 203.231 C 231.252 213.925,239.542 221.934,240.287 222.251 C 242.165 223.052,251.634 223.010,253.212 222.194 C 255.054 221.241,297.996 178.108,298.642 176.561 C 299.315 174.951,299.414 166.225,298.779 164.526 C 298.304 163.254,255.767 120.303,253.600 118.906 C 251.752 117.715,241.691 117.529,239.989 118.654 M252.544 119.751 C 254.081 120.393,296.749 162.892,297.490 164.519 C 297.986 165.607,298.143 172.117,297.745 175.066 C 297.529 176.664,264.861 210.318,254.815 219.291 L 252.231 221.600 246.441 221.600 L 240.651 221.600 221.567 202.554 C 207.541 188.558,202.421 183.203,202.251 182.356 C 202.041 181.304,202.439 180.792,206.800 176.501 C 213.200 170.207,213.187 170.879,207.027 164.651 C 201.626 159.191,201.632 159.201,202.744 157.400 C 203.737 155.789,238.808 120.730,240.035 120.121 C 242.140 119.075,250.347 118.833,252.544 119.751 M242.142 140.027 C 240.634 141.582,239.165 143.067,238.879 143.327 C 238.592 143.587,237.011 145.150,235.364 146.800 C 233.718 148.450,231.736 150.430,230.959 151.200 C 230.183 151.970,228.794 153.370,227.874 154.312 C 226.953 155.253,225.430 156.783,224.488 157.712 C 219.796 162.339,217.271 164.881,215.987 166.271 C 215.210 167.112,214.085 168.119,213.487 168.509 C 211.959 169.506,211.965 171.603,213.500 172.800 C 214.105 173.272,221.458 180.485,229.841 188.829 C 244.597 203.518,245.130 204.000,246.619 204.000 C 248.111 204.000,248.643 203.515,264.038 188.152 C 282.333 169.895,281.797 170.683,278.291 167.200 C 273.066 162.010,271.708 160.660,271.129 160.076 C 270.759 159.704,270.219 159.184,269.929 158.919 C 269.638 158.655,269.184 158.205,268.919 157.919 C 268.655 157.634,268.205 157.197,267.919 156.949 C 267.634 156.701,267.094 156.161,266.720 155.749 C 265.959 154.911,265.714 154.663,263.292 152.280 C 262.353 151.356,260.373 149.371,258.892 147.870 C 255.597 144.528,255.003 143.935,254.329 143.311 C 253.671 142.703,252.926 141.959,252.289 141.275 C 247.302 135.919,246.252 135.790,242.142 140.027 M263.363 153.968 C 278.723 169.347,278.909 169.553,278.647 170.868 C 278.171 173.258,248.620 202.400,246.673 202.400 C 245.066 202.400,215.587 173.711,214.458 171.047 L 213.969 169.894 229.668 154.147 C 243.499 140.275,245.513 138.400,246.591 138.400 C 247.667 138.400,249.674 140.262,263.363 153.968 M194.465 176.701 C 199.908 182.093,199.913 182.258,194.767 187.400 C 190.196 191.968,189.437 192.728,186.682 195.487 C 185.097 197.075,183.620 198.574,183.400 198.817 C 182.873 199.401,177.864 204.391,175.668 206.520 C 173.493 208.629,171.032 211.119,169.127 213.136 C 166.316 216.115,165.500 215.696,158.300 207.582 C 155.205 204.095,154.411 205.262,171.300 188.478 C 179.495 180.334,186.560 173.305,187.000 172.858 C 188.468 171.365,189.741 172.021,194.465 176.701 M36.719 252.348 C 20.156 257.819,23.059 281.583,40.299 281.654 C 49.793 281.693,58.012 273.005,51.200 270.131 C 49.632 269.469,47.870 269.947,46.185 271.490 C 40.883 276.347,33.800 273.774,33.800 266.991 C 33.800 259.814,40.742 257.013,46.158 262.003 C 49.196 264.804,53.600 263.843,53.600 260.380 C 53.600 255.127,43.235 250.196,36.719 252.348 M361.000 252.134 C 350.167 255.695,350.688 267.570,361.792 270.188 C 366.405 271.276,367.132 271.798,366.339 273.454 C 365.234 275.759,361.928 275.185,359.334 272.238 C 357.977 270.697,357.445 270.570,355.082 271.226 C 347.925 273.214,355.709 281.820,364.524 281.664 C 378.370 281.420,378.770 265.044,364.980 262.976 C 362.278 262.571,361.381 261.584,362.228 259.946 C 363.074 258.310,364.922 258.548,367.453 260.622 C 369.535 262.328,371.333 262.303,373.092 260.544 C 376.949 256.687,367.386 250.036,361.000 252.134 M59.323 252.878 C 57.890 253.570,57.828 254.091,57.685 266.677 C 57.534 279.899,57.563 280.091,59.819 281.034 C 63.954 282.762,65.931 280.964,65.679 275.703 C 65.452 270.946,66.140 270.251,70.859 270.464 C 75.180 270.659,75.600 271.104,75.600 275.488 C 75.600 280.198,76.918 281.827,80.308 281.307 C 83.143 280.873,83.200 280.584,83.200 266.728 L 83.200 254.364 82.170 253.334 C 81.262 252.426,80.899 252.327,79.096 252.500 C 76.146 252.784,75.600 253.606,75.600 257.768 C 75.600 262.313,75.369 262.563,71.003 262.742 C 66.170 262.941,65.600 262.411,65.600 257.712 C 65.600 252.928,63.140 251.033,59.323 252.878 M97.386 252.781 C 95.857 253.400,96.043 253.002,90.183 268.200 C 85.460 280.445,85.796 279.259,86.728 280.411 C 87.399 281.239,87.838 281.371,89.827 281.342 C 92.320 281.306,92.188 281.398,95.664 277.265 C 97.817 274.705,105.075 275.645,106.795 278.706 C 109.139 282.876,117.154 281.937,114.926 277.753 C 114.588 277.119,113.633 274.800,112.803 272.600 C 107.836 259.440,105.506 253.984,104.522 253.210 C 103.426 252.348,99.097 252.087,97.386 252.781 M119.505 253.026 C 117.975 253.856,117.963 253.982,118.088 267.584 L 118.200 279.769 119.559 280.684 C 121.492 281.986,123.371 281.890,124.847 280.414 L 126.033 279.229 125.916 266.846 L 125.800 254.463 124.830 253.432 C 123.699 252.228,121.311 252.046,119.505 253.026 M132.122 253.365 L 131.000 254.330 130.869 266.532 C 130.724 280.103,130.784 280.457,133.346 281.131 C 137.537 282.233,138.847 280.475,138.708 273.935 C 138.648 271.150,138.690 268.781,138.800 268.671 C 139.383 268.088,141.284 269.005,141.865 270.150 C 146.741 279.755,150.942 283.202,155.132 281.035 C 157.161 279.986,157.200 279.717,157.200 266.608 L 157.200 254.364 156.218 253.382 C 154.874 252.038,152.100 252.009,150.573 253.322 C 149.551 254.201,149.492 254.462,149.294 258.948 C 148.940 266.960,148.553 266.851,142.576 257.050 C 139.689 252.317,135.187 250.730,132.122 253.365 M172.254 253.229 L 171.200 254.058 171.200 266.655 C 171.200 280.222,171.250 280.562,173.297 281.037 C 177.214 281.946,178.800 280.559,178.800 276.222 C 178.800 272.065,179.308 271.523,183.551 271.158 C 185.612 270.981,187.393 270.572,188.414 270.039 C 189.300 269.578,190.385 269.200,190.825 269.200 C 191.282 269.200,191.781 268.813,191.988 268.300 C 192.325 267.461,192.351 267.482,192.373 268.600 C 192.394 269.716,190.574 275.380,189.621 277.161 C 188.454 279.342,189.587 281.060,192.429 281.420 C 194.684 281.705,196.330 280.740,197.650 278.359 C 199.194 275.574,206.679 274.888,208.571 277.358 C 211.456 281.122,211.656 281.263,214.180 281.285 C 218.655 281.325,218.799 280.466,215.648 272.526 C 214.355 269.267,213.161 266.150,212.996 265.600 C 212.576 264.201,209.290 256.134,208.586 254.773 C 207.382 252.445,202.904 251.498,200.059 252.969 C 199.065 253.483,194.800 261.785,194.800 263.206 C 194.800 263.423,194.628 263.600,194.419 263.600 C 194.020 263.600,193.206 261.115,193.202 259.884 C 193.195 257.421,189.944 253.971,186.733 253.017 C 183.321 252.004,173.631 252.146,172.254 253.229 M221.821 253.343 C 220.831 254.332,220.799 254.527,220.778 259.682 C 220.766 262.607,220.663 268.165,220.550 272.034 L 220.344 279.068 221.786 280.334 C 225.036 283.187,228.400 281.189,228.400 276.406 C 228.400 270.080,230.221 270.372,234.175 277.333 C 236.574 281.557,240.006 282.855,242.413 280.449 L 243.664 279.198 241.832 275.837 C 239.477 271.517,239.438 270.288,241.571 267.589 C 242.662 266.209,243.291 264.897,243.629 263.301 C 244.436 259.486,244.768 259.172,247.705 259.447 C 251.977 259.846,252.000 259.904,252.000 270.449 C 252.000 281.051,252.485 282.198,256.638 281.419 C 259.874 280.812,260.000 280.397,260.000 270.295 C 260.000 259.709,259.885 260.033,263.786 259.629 C 268.121 259.180,269.832 256.170,267.231 253.569 L 266.062 252.400 256.457 252.400 C 245.884 252.400,245.102 252.539,244.124 254.591 C 243.348 256.218,243.431 256.198,241.600 255.195 C 236.830 252.581,237.049 252.632,229.721 252.472 L 222.842 252.322 221.821 253.343 M272.521 252.879 C 270.982 253.622,270.800 255.160,270.800 267.401 L 270.800 279.083 271.781 280.142 C 273.190 281.663,276.343 281.742,277.900 280.296 C 278.736 279.520,278.800 279.122,278.800 274.720 C 278.800 269.879,279.064 269.200,280.949 269.200 C 281.092 269.200,283.732 273.329,285.907 276.955 C 288.549 281.358,291.787 282.765,295.208 280.996 C 297.151 279.991,297.200 279.640,297.200 266.608 L 297.200 254.364 296.218 253.382 C 294.881 252.045,292.100 252.009,290.589 253.308 C 289.583 254.173,289.522 254.449,289.308 259.099 C 288.939 267.114,288.671 267.041,282.594 257.252 C 279.706 252.599,276.227 251.089,272.521 252.879 M304.020 252.971 C 302.504 253.810,302.458 254.223,302.428 267.118 L 302.400 279.236 303.355 280.192 C 304.688 281.525,306.207 281.712,314.246 281.537 L 321.283 281.384 322.242 280.269 C 325.212 276.816,322.914 274.318,316.494 274.022 C 312.507 273.838,311.536 273.668,310.832 273.031 L 309.983 272.261 311.081 271.116 C 312.145 270.005,312.288 269.973,315.911 270.034 C 320.098 270.105,321.292 269.513,321.821 267.102 C 322.447 264.255,320.174 262.800,315.102 262.800 C 311.068 262.800,309.603 261.943,311.000 260.400 C 311.621 259.713,312.268 259.593,315.562 259.553 C 320.774 259.488,321.600 259.265,322.532 257.670 C 323.445 256.106,322.957 253.526,321.612 252.807 C 320.407 252.161,305.226 252.303,304.020 252.971 M328.176 253.387 L 327.189 254.375 327.294 267.072 L 327.400 279.768 328.759 280.684 C 331.975 282.851,334.799 281.065,334.801 276.864 C 334.803 274.882,335.013 273.855,335.625 272.852 L 336.446 271.504 337.442 272.439 C 337.989 272.953,339.193 274.802,340.118 276.548 C 341.918 279.945,343.091 280.976,345.650 281.408 C 349.724 282.097,350.576 280.171,348.173 275.704 C 346.008 271.678,345.913 270.317,347.648 268.155 C 351.395 263.487,351.111 258.542,346.876 254.716 C 344.033 252.148,330.385 251.178,328.176 253.387 M45.064 253.534 C 50.764 255.326,54.464 260.190,51.508 262.005 C 49.805 263.050,48.235 262.735,46.400 260.979 C 42.528 257.274,37.340 257.627,34.356 261.800 C 28.269 270.309,39.606 279.858,46.757 272.246 C 50.069 268.720,54.362 271.839,51.449 275.654 C 45.857 282.978,33.973 282.432,29.005 274.624 C 21.800 263.301,32.295 249.519,45.064 253.534 M367.627 253.436 C 372.568 254.884,374.784 259.615,370.970 260.572 C 370.012 260.812,367.127 259.653,366.613 258.821 C 366.094 257.981,363.543 257.609,362.390 258.205 C 359.544 259.677,361.004 264.000,364.346 264.000 C 370.961 264.000,375.772 270.186,373.460 275.719 C 371.098 281.371,360.571 282.540,355.814 277.677 C 353.079 274.882,352.983 272.775,355.565 272.208 C 356.752 271.947,357.375 272.259,361.159 275.012 C 363.868 276.981,367.600 275.751,367.600 272.888 C 367.600 271.157,366.206 270.163,362.487 269.242 C 356.729 267.815,354.400 265.481,354.400 261.135 C 354.400 255.116,360.748 251.421,367.627 253.436 M63.931 254.160 C 64.263 254.491,64.575 256.148,64.736 258.436 C 65.088 263.419,65.962 264.168,71.120 263.908 C 75.788 263.673,76.356 263.074,76.682 258.048 C 76.970 253.599,79.479 251.644,81.608 254.209 C 82.410 255.176,82.139 279.290,81.319 279.900 C 78.684 281.860,76.668 279.878,76.579 275.239 C 76.475 269.842,74.603 268.536,68.422 269.549 C 65.260 270.066,64.800 270.798,64.800 275.313 C 64.800 280.213,62.966 281.837,59.786 279.754 L 58.800 279.108 58.800 266.983 L 58.800 254.858 59.894 253.998 C 61.080 253.064,62.909 253.138,63.931 254.160 M102.825 253.600 C 104.488 254.062,104.669 254.386,107.874 262.600 C 114.245 278.930,114.182 278.736,113.394 279.607 C 111.781 281.389,108.724 280.390,107.253 277.600 C 106.182 275.568,105.173 275.213,100.460 275.206 L 96.320 275.200 95.060 276.562 C 94.367 277.312,93.440 278.403,93.000 278.988 C 91.493 280.991,86.840 280.726,87.323 278.665 C 87.434 278.189,88.096 276.360,88.793 274.600 C 90.292 270.819,91.715 267.114,94.131 260.706 C 96.952 253.222,98.097 252.287,102.825 253.600 M123.911 253.823 C 125.122 254.671,125.330 278.352,124.138 279.669 C 123.325 280.566,121.293 280.621,120.089 279.777 C 118.702 278.806,118.689 255.307,120.075 254.016 C 121.119 253.043,122.686 252.965,123.911 253.823 M138.049 253.607 C 139.602 254.038,140.100 254.648,143.359 260.103 C 146.563 265.468,147.293 266.368,148.451 266.385 C 150.107 266.409,150.324 265.737,150.466 260.140 C 150.617 254.226,151.040 253.200,153.330 253.200 C 156.004 253.200,156.000 253.179,156.000 266.730 C 156.000 280.952,156.147 280.400,152.360 280.400 C 149.386 280.400,148.871 279.936,145.264 274.000 C 143.726 271.470,142.137 268.864,141.732 268.209 C 141.326 267.554,140.484 266.838,139.859 266.618 C 137.913 265.934,137.600 266.884,137.600 273.467 C 137.600 280.288,135.896 282.335,132.538 279.549 C 131.939 279.051,131.730 255.443,132.317 254.520 C 133.066 253.343,135.628 252.935,138.049 253.607 M186.684 253.965 C 190.332 255.017,192.001 257.649,191.999 262.349 C 191.996 267.528,189.415 269.803,182.990 270.289 C 178.465 270.632,177.844 271.270,177.659 275.772 C 177.475 280.248,176.229 281.366,173.180 279.790 L 172.000 279.179 172.000 267.363 C 172.000 255.070,172.100 254.270,173.726 253.588 C 174.777 253.148,184.869 253.441,186.684 253.965 M206.715 254.190 C 207.850 255.145,210.403 260.913,213.006 268.400 C 213.504 269.830,214.561 272.598,215.355 274.550 C 217.103 278.846,217.131 279.366,215.647 279.980 C 213.394 280.914,211.943 280.411,210.503 278.200 C 208.612 275.295,208.397 275.200,203.742 275.200 C 199.096 275.200,198.037 275.536,197.008 277.334 C 195.237 280.431,192.831 281.356,190.853 279.700 L 190.017 279.000 192.240 273.200 C 193.462 270.010,194.797 266.500,195.206 265.400 C 199.399 254.111,200.005 253.200,203.323 253.200 C 205.097 253.200,205.773 253.397,206.715 254.190 M235.000 253.635 C 242.942 254.718,245.320 261.119,240.248 267.764 C 238.359 270.240,238.400 271.220,240.581 275.563 C 242.531 279.445,242.402 280.400,239.928 280.400 C 237.446 280.400,236.494 279.653,234.640 276.253 C 232.664 272.627,231.174 270.800,230.193 270.800 C 228.206 270.800,227.206 272.795,227.202 276.769 C 227.199 279.457,226.472 280.400,224.400 280.400 C 221.532 280.400,221.540 280.438,221.678 266.808 L 221.800 254.728 222.750 253.960 C 223.834 253.082,229.788 252.924,235.000 253.635 M266.133 253.926 C 268.232 256.245,267.102 258.167,263.431 258.525 C 261.609 258.703,260.824 258.994,260.031 259.787 L 259.000 260.817 258.885 269.908 C 258.756 280.176,258.686 280.400,255.618 280.400 C 252.817 280.400,252.738 280.101,252.855 269.878 C 252.936 262.711,252.845 260.736,252.408 260.209 C 251.577 259.208,249.787 258.400,248.400 258.400 C 246.427 258.400,244.675 257.317,244.956 256.270 C 245.084 255.791,245.192 255.166,245.195 254.881 C 245.213 253.110,264.595 252.226,266.133 253.926 M279.936 255.108 C 280.671 255.928,281.553 257.140,281.896 257.800 C 283.156 260.224,287.588 266.800,287.962 266.800 C 290.159 266.800,290.316 266.388,290.462 260.241 C 290.615 253.819,290.854 253.240,293.369 253.213 C 295.996 253.184,296.000 253.203,296.000 266.730 C 296.000 281.018,296.171 280.400,292.213 280.400 C 289.379 280.400,288.673 279.867,286.381 276.000 C 279.556 264.482,278.000 263.997,278.000 273.387 C 278.000 280.063,277.713 280.681,274.793 280.290 C 271.879 279.899,271.999 280.469,272.006 267.051 C 272.009 260.423,272.150 254.784,272.317 254.520 C 273.520 252.628,278.027 252.976,279.936 255.108 M321.339 253.949 C 322.192 254.658,322.194 256.941,321.342 257.648 C 320.907 258.009,319.095 258.264,315.970 258.401 C 306.915 258.801,306.332 264.000,315.342 264.000 C 319.723 264.000,320.800 264.509,320.800 266.577 C 320.800 268.625,319.587 269.200,315.268 269.200 C 311.481 269.200,309.965 269.819,309.401 271.595 C 308.663 273.923,311.103 275.200,316.291 275.200 C 320.957 275.200,322.000 275.675,322.000 277.800 C 322.000 280.190,321.257 280.400,312.800 280.400 C 302.547 280.400,303.599 281.924,303.606 267.077 C 303.612 254.689,303.636 254.466,305.000 253.658 C 306.192 252.951,320.444 253.205,321.339 253.949 M344.246 254.194 C 349.690 256.468,350.783 262.441,346.734 267.781 C 344.745 270.404,344.781 271.360,347.024 275.509 C 349.040 279.237,348.891 280.400,346.398 280.400 C 343.803 280.400,342.840 279.661,341.209 276.418 C 337.454 268.949,334.000 268.764,334.000 276.031 C 334.000 279.544,333.408 280.400,330.981 280.400 C 328.017 280.400,327.929 279.984,328.073 266.609 L 328.200 254.728 329.200 253.911 C 330.483 252.862,341.557 253.070,344.246 254.194 M228.769 259.169 C 225.970 261.968,228.122 265.934,232.179 265.453 C 234.881 265.133,236.165 264.132,236.326 262.221 C 236.623 258.705,231.359 256.579,228.769 259.169 M335.169 259.169 C 332.434 261.904,334.575 265.928,338.517 265.461 C 343.414 264.881,344.679 260.780,340.574 258.789 C 338.215 257.645,336.579 257.760,335.169 259.169 M179.510 259.024 C 177.287 260.230,176.959 262.621,178.769 264.431 C 180.360 266.021,182.969 266.079,184.769 264.564 C 188.279 261.612,183.676 256.763,179.510 259.024 M234.620 260.176 C 235.661 260.859,235.740 262.735,234.772 263.766 C 234.226 264.347,230.076 264.561,229.449 264.041 C 226.150 261.303,230.910 257.746,234.620 260.176 M341.037 260.187 C 341.919 260.765,342.045 261.073,341.835 262.125 C 341.234 265.131,336.064 265.413,335.224 262.485 C 334.393 259.586,337.964 258.174,341.037 260.187 M184.166 260.363 C 186.303 262.724,183.105 265.792,180.160 264.206 C 178.467 263.295,178.225 261.248,179.689 260.223 C 180.938 259.348,183.315 259.422,184.166 260.363 M202.201 263.437 C 200.088 265.717,200.004 268.768,202.025 269.813 C 204.515 271.101,207.050 269.140,206.319 266.493 C 205.405 263.183,203.646 261.877,202.201 263.437 M99.296 263.418 C 96.852 265.130,97.072 269.290,99.648 270.062 C 102.391 270.884,104.105 268.952,103.168 266.094 C 102.123 262.904,101.069 262.176,99.296 263.418 M205.097 266.605 C 205.479 267.850,205.432 268.072,204.674 268.603 C 202.260 270.294,200.650 267.077,202.719 264.697 C 203.512 263.784,204.466 264.548,205.097 266.605 M101.549 264.938 C 102.289 265.830,102.549 267.938,102.001 268.599 C 100.724 270.137,98.074 268.510,98.789 266.628 C 99.494 264.774,100.766 263.995,101.549 264.938 " stroke="none" fill="#7c7c7c" fill-rule="evenodd"></path></g></svg>