<svg id="svg" version="1.1" xmlns="http://www.w3.org/2000/svg" xmlns:xlink="http://www.w3.org/1999/xlink" width="400" height="400" viewBox="0, 0, 400,400"><g id="svgg"><path id="path0" d="M34.500 177.882 L 33.200 178.545 33.200 210.010 L 33.200 241.474 34.500 242.167 C 35.694 242.804,37.407 242.847,55.600 242.705 C 76.085 242.545,76.512 242.512,80.200 240.793 C 81.080 240.383,82.340 239.925,83.000 239.777 C 84.249 239.495,86.921 237.612,88.058 236.211 C 88.420 235.765,89.088 234.976,89.542 234.457 C 89.996 233.939,90.663 232.501,91.023 231.262 C 91.383 230.024,91.932 228.518,92.243 227.917 C 93.758 224.988,90.428 216.451,86.653 213.586 C 85.524 212.729,84.105 211.648,83.500 211.183 C 81.470 209.626,81.899 207.657,84.935 204.591 C 88.854 200.633,89.805 196.627,88.402 189.981 L 87.603 186.200 84.683 183.472 C 81.428 180.431,78.820 179.237,73.000 178.121 C 67.948 177.152,36.315 176.956,34.500 177.882 M104.029 177.765 C 103.681 178.185,103.591 183.794,103.680 199.665 L 103.800 221.000 104.845 223.000 C 105.420 224.100,106.112 225.942,106.383 227.093 C 106.655 228.244,107.399 229.844,108.038 230.648 C 108.677 231.452,109.200 232.254,109.200 232.430 C 109.200 232.953,115.841 239.600,116.364 239.600 C 116.628 239.600,117.999 240.213,119.411 240.962 C 121.015 241.813,123.069 242.501,124.889 242.796 C 126.490 243.056,128.880 243.540,130.200 243.871 C 135.016 245.080,146.763 243.337,150.800 240.813 C 151.130 240.607,152.030 240.157,152.800 239.814 C 155.470 238.623,161.455 232.417,162.419 229.840 C 162.892 228.578,163.517 227.453,163.808 227.342 C 165.231 226.796,165.997 215.673,165.999 195.546 L 166.000 178.492 165.014 177.846 C 163.488 176.846,153.194 176.902,152.277 177.915 C 151.703 178.549,151.617 180.807,151.515 197.815 C 151.401 216.868,151.394 217.011,150.500 218.594 C 150.005 219.471,149.592 220.461,149.582 220.794 C 149.495 223.817,146.034 228.001,141.848 230.144 L 138.833 231.687 134.316 231.525 C 127.860 231.293,124.675 229.363,121.120 223.529 C 119.310 220.560,119.220 219.369,119.210 198.180 C 119.202 183.153,119.080 178.040,118.720 177.680 C 117.974 176.934,104.655 177.011,104.029 177.765 M181.062 177.931 C 180.263 178.814,180.024 240.551,180.814 242.026 C 181.372 243.069,192.063 243.201,194.020 242.190 L 195.200 241.579 195.200 233.009 C 195.200 218.806,195.081 218.996,204.200 218.639 C 207.720 218.502,212.411 218.282,214.626 218.151 L 218.651 217.913 219.762 216.156 C 220.373 215.190,221.010 214.400,221.177 214.400 C 221.835 214.400,222.859 209.407,222.432 208.283 L 222.020 207.200 210.264 207.200 C 199.071 207.200,198.459 207.161,197.480 206.391 C 194.617 204.140,194.353 192.688,197.105 190.138 L 198.117 189.200 209.481 189.200 C 223.241 189.200,224.084 189.055,225.049 186.527 C 225.424 185.545,226.080 184.298,226.505 183.757 C 227.820 182.086,228.509 178.783,227.724 177.916 C 226.709 176.794,182.078 176.809,181.062 177.931 M241.062 177.931 C 240.263 178.814,240.024 240.551,240.814 242.026 C 241.372 243.069,252.063 243.201,254.020 242.190 L 255.200 241.579 255.200 233.009 C 255.200 218.806,255.081 218.996,264.200 218.639 C 280.922 217.986,280.802 218.031,282.194 211.959 C 283.358 206.886,284.147 207.200,270.240 207.200 C 255.569 207.200,255.200 206.981,255.200 198.258 C 255.200 189.205,255.108 189.262,270.141 189.116 C 284.007 188.983,284.170 188.948,285.122 186.000 C 285.441 185.010,286.106 183.657,286.600 182.993 C 287.722 181.486,288.269 178.606,287.589 177.786 C 286.754 176.780,241.977 176.920,241.062 177.931 M300.798 177.803 C 300.208 178.514,300.982 181.941,301.803 182.257 C 302.067 182.358,302.704 183.376,303.220 184.520 C 303.735 185.664,304.545 187.050,305.019 187.600 C 305.493 188.150,306.192 189.410,306.572 190.400 C 306.953 191.390,307.587 192.560,307.983 193.000 C 308.378 193.440,308.931 194.520,309.211 195.400 C 309.492 196.280,310.129 197.540,310.627 198.200 C 311.126 198.860,311.838 200.165,312.210 201.100 C 312.582 202.035,313.044 202.800,313.235 202.800 C 313.653 202.800,315.200 205.734,315.200 206.526 C 315.200 206.832,315.631 207.548,316.157 208.116 C 316.684 208.684,317.440 210.015,317.839 211.074 C 318.238 212.133,318.865 213.220,319.234 213.489 C 319.603 213.758,320.203 214.725,320.568 215.636 C 320.933 216.548,321.671 217.871,322.209 218.577 C 323.857 220.737,324.792 226.559,324.796 234.690 L 324.800 241.579 325.980 242.190 C 327.736 243.098,338.607 243.079,338.957 242.167 C 339.091 241.819,339.206 238.444,339.213 234.667 C 339.229 226.308,339.645 222.640,340.712 221.462 C 341.142 220.988,341.815 219.736,342.209 218.679 C 342.603 217.622,343.229 216.542,343.600 216.279 C 343.972 216.016,344.591 214.810,344.977 213.600 C 345.363 212.390,346.007 211.112,346.408 210.761 C 346.810 210.409,347.432 209.419,347.790 208.561 C 348.149 207.702,348.866 206.550,349.384 206.000 C 349.902 205.450,350.512 204.311,350.739 203.469 C 350.967 202.626,351.586 201.366,352.116 200.669 C 352.645 199.971,353.310 198.680,353.593 197.800 C 353.876 196.920,354.623 195.490,355.254 194.621 C 355.884 193.753,356.400 192.814,356.400 192.535 C 356.400 192.256,356.912 191.437,357.539 190.714 C 358.165 189.991,359.008 188.521,359.414 187.446 C 359.819 186.371,360.452 185.201,360.821 184.846 C 361.190 184.491,361.794 183.276,362.163 182.147 C 362.531 181.018,363.186 179.775,363.617 179.385 C 365.328 177.836,362.944 177.200,355.422 177.200 L 349.999 177.200 348.403 178.845 C 347.459 179.817,346.627 181.166,346.366 182.145 C 346.124 183.055,345.509 184.351,345.000 185.025 C 344.490 185.699,343.778 186.957,343.417 187.820 C 343.057 188.683,342.432 189.752,342.029 190.195 C 341.626 190.638,341.051 191.693,340.753 192.540 C 340.454 193.388,339.829 194.468,339.363 194.940 C 338.898 195.413,338.211 196.728,337.838 197.863 C 337.465 198.998,336.719 200.402,336.180 200.984 C 335.641 201.565,335.200 202.260,335.200 202.528 C 335.200 203.923,333.174 206.014,332.282 205.540 C 330.437 204.558,328.401 202.211,327.785 200.355 C 327.439 199.314,326.877 198.230,326.536 197.947 C 326.195 197.664,325.514 196.525,325.022 195.416 C 324.531 194.307,323.839 193.160,323.483 192.866 C 323.128 192.573,322.563 191.390,322.228 190.237 C 321.893 189.084,321.262 187.818,320.826 187.423 C 320.390 187.029,319.732 185.782,319.365 184.653 C 318.998 183.524,318.454 182.319,318.156 181.976 C 317.858 181.633,317.192 180.554,316.676 179.578 C 315.523 177.399,314.932 177.256,306.949 177.223 C 302.382 177.204,301.202 177.316,300.798 177.803 M69.662 188.733 C 70.246 188.963,71.596 189.964,72.662 190.956 L 74.600 192.761 74.600 196.558 C 74.600 203.613,71.200 205.599,59.126 205.600 C 47.740 205.600,47.843 205.690,48.065 195.893 L 48.200 189.930 49.387 188.910 L 50.573 187.889 59.587 188.102 C 64.544 188.219,69.078 188.503,69.662 188.733 M71.105 215.684 C 79.085 218.080,80.194 227.118,73.000 231.131 C 71.481 231.978,53.629 232.362,50.826 231.607 C 46.824 230.529,46.635 216.801,50.600 215.178 C 52.564 214.374,68.013 214.755,71.105 215.684 " stroke="none" fill="#f7f7f7" fill-rule="evenodd"></path><path id="path1" d="M3.200 155.953 L 1.800 156.200 1.686 160.300 C 1.581 164.070,1.509 164.400,0.786 164.400 C 0.011 164.400,0.000 164.878,0.000 200.000 C 0.000 235.333,0.006 235.600,0.800 235.600 C 1.567 235.600,1.600 235.869,1.606 242.100 C 1.613 249.140,1.670 249.402,3.304 249.812 L 4.400 250.087 4.400 254.243 L 4.400 258.400 5.800 258.400 L 7.200 258.400 7.200 261.157 C 7.200 264.630,6.454 264.400,17.733 264.400 L 27.000 264.400 29.600 262.800 L 32.200 261.200 179.499 261.200 L 326.798 261.200 328.458 262.700 L 330.118 264.200 360.559 264.315 C 396.200 264.450,392.800 264.777,392.800 261.218 L 392.800 258.451 394.100 258.325 L 395.400 258.200 395.502 207.422 C 395.572 172.274,395.473 156.513,395.182 156.222 C 394.903 155.942,388.614 155.759,376.537 155.677 C 356.646 155.544,356.800 155.527,356.800 157.815 C 356.800 158.306,356.485 158.822,356.100 158.963 C 355.715 159.104,354.860 159.521,354.200 159.888 C 353.087 160.508,342.535 160.568,208.380 160.727 L 63.760 160.899 62.688 159.949 C 61.885 159.238,61.595 158.574,61.530 157.300 L 61.444 155.600 33.022 155.653 C 17.390 155.682,3.970 155.817,3.200 155.953 M72.436 175.249 C 87.202 177.219,95.370 189.627,89.651 201.400 C 88.690 203.380,87.362 205.572,86.701 206.271 C 85.049 208.018,85.417 209.196,88.477 211.965 C 92.301 215.425,94.140 219.612,94.328 225.283 L 94.470 229.566 92.851 232.883 C 90.018 238.690,86.665 241.503,79.723 243.899 L 75.400 245.391 55.400 245.527 C 41.789 245.620,34.935 245.524,33.944 245.229 C 31.078 244.373,31.200 245.932,31.200 210.227 C 31.200 175.840,31.187 176.060,33.282 175.219 C 34.630 174.678,68.353 174.704,72.436 175.249 M119.604 175.700 C 120.106 176.457,120.232 179.831,120.400 197.000 L 120.600 217.400 122.313 220.800 C 126.201 228.515,134.059 231.129,141.700 227.251 C 148.387 223.857,148.784 222.190,148.793 197.480 C 148.802 173.271,148.138 174.800,158.635 174.800 C 169.307 174.800,168.400 172.650,168.400 197.959 L 168.400 217.959 167.434 221.079 C 166.902 222.796,166.341 224.998,166.186 225.973 C 165.497 230.320,160.363 237.462,155.196 241.262 C 141.642 251.230,115.775 247.563,108.176 234.595 C 107.619 233.645,106.912 232.659,106.604 232.403 C 106.296 232.148,105.739 231.007,105.367 229.869 C 104.995 228.731,104.266 227.065,103.747 226.167 C 101.846 222.879,101.027 180.383,102.789 176.500 L 103.561 174.800 111.284 174.800 C 118.850 174.800,119.020 174.818,119.604 175.700 M229.352 175.182 C 230.977 175.799,231.560 178.370,230.435 179.951 C 229.957 180.623,229.283 182.124,228.938 183.286 C 228.593 184.449,227.991 185.850,227.601 186.400 C 227.211 186.950,226.594 188.113,226.231 188.985 C 224.895 192.189,225.828 192.000,211.328 192.000 L 198.380 192.000 197.950 193.100 C 197.120 195.222,197.022 200.618,197.777 202.595 L 198.466 204.400 211.410 204.400 C 224.333 204.400,224.356 204.401,224.977 205.289 C 225.889 206.591,225.784 209.658,224.783 210.931 C 224.334 211.502,223.690 212.900,223.352 214.037 C 223.007 215.198,221.904 217.178,220.836 218.552 L 218.935 221.000 208.708 221.107 L 198.482 221.213 197.841 222.815 C 197.320 224.116,197.200 226.089,197.200 233.348 C 197.200 246.235,197.690 245.600,187.748 245.600 C 176.986 245.600,178.000 249.307,178.000 209.951 C 178.000 175.877,177.952 176.599,180.297 175.234 C 181.221 174.695,227.943 174.646,229.352 175.182 M288.980 175.264 C 290.519 175.965,290.972 178.083,289.979 179.935 C 289.551 180.734,289.196 181.661,289.191 181.994 C 289.167 183.665,284.714 191.359,283.600 191.655 C 283.050 191.801,277.151 191.938,270.490 191.960 L 258.380 192.000 257.950 193.100 C 257.120 195.222,257.022 200.618,257.777 202.595 L 258.466 204.400 271.371 204.400 C 283.983 204.400,284.293 204.419,285.038 205.242 C 286.131 206.450,285.940 209.651,284.662 211.560 C 284.131 212.352,283.486 213.882,283.228 214.960 C 282.555 217.769,281.797 219.038,280.103 220.189 L 278.614 221.200 268.551 221.200 L 258.487 221.200 257.843 222.808 C 257.319 224.118,257.200 226.074,257.200 233.348 C 257.200 246.235,257.690 245.600,247.748 245.600 C 236.986 245.600,238.000 249.307,238.000 209.951 C 238.000 175.877,237.952 176.599,240.297 175.234 C 241.345 174.623,287.637 174.652,288.980 175.264 M315.794 175.053 C 316.661 175.386,319.832 180.223,320.588 182.366 C 320.915 183.293,321.536 184.501,321.967 185.049 C 322.398 185.597,323.046 186.933,323.406 188.018 C 323.766 189.103,324.231 190.096,324.440 190.224 C 324.648 190.353,325.378 191.570,326.062 192.929 C 326.747 194.288,327.630 195.813,328.026 196.319 C 328.421 196.824,328.865 197.787,329.013 198.459 C 329.257 199.570,332.074 202.800,332.800 202.800 C 332.966 202.800,333.334 202.215,333.615 201.500 C 333.897 200.785,334.516 199.660,334.990 199.000 C 335.464 198.340,336.268 196.762,336.775 195.493 C 337.283 194.224,337.873 193.078,338.087 192.946 C 338.301 192.814,338.991 191.557,339.621 190.153 C 340.251 188.749,340.930 187.600,341.129 187.600 C 341.328 187.600,341.789 186.821,342.153 185.868 C 342.516 184.916,343.256 183.538,343.796 182.806 C 344.335 182.074,345.067 180.604,345.420 179.539 C 345.873 178.175,346.570 177.186,347.773 176.201 L 349.482 174.800 357.065 174.800 C 367.168 174.800,368.312 175.787,364.851 181.516 C 363.943 183.018,363.200 184.437,363.200 184.668 C 363.200 184.899,362.739 185.768,362.175 186.599 C 361.611 187.430,360.864 188.850,360.514 189.755 C 360.164 190.660,359.554 191.762,359.158 192.205 C 358.762 192.648,358.143 193.728,357.782 194.605 C 357.421 195.482,356.714 196.650,356.212 197.200 C 355.709 197.750,354.992 199.143,354.619 200.295 C 354.245 201.448,353.752 202.506,353.525 202.647 C 353.297 202.787,352.685 203.865,352.164 205.042 C 351.644 206.219,350.674 207.933,350.009 208.851 C 349.344 209.769,348.800 210.701,348.800 210.922 C 348.800 211.143,348.354 211.909,347.809 212.624 C 347.263 213.339,346.447 214.915,345.993 216.126 C 345.540 217.336,344.913 218.540,344.600 218.800 C 344.287 219.060,343.650 220.289,343.185 221.532 C 342.720 222.774,342.129 224.045,341.870 224.355 C 341.554 224.735,341.334 227.913,341.200 234.032 C 341.014 242.512,340.941 243.222,340.155 244.272 L 339.310 245.400 332.065 245.400 C 322.220 245.400,323.064 246.465,322.780 233.688 C 322.585 224.908,322.472 223.632,321.780 222.332 C 319.061 217.224,318.236 215.736,317.618 214.824 C 316.024 212.471,314.073 208.902,313.632 207.532 C 313.372 206.725,312.869 205.825,312.515 205.532 C 312.160 205.239,311.518 204.190,311.087 203.200 C 310.656 202.210,309.979 201.040,309.582 200.600 C 309.185 200.160,308.472 198.810,307.998 197.600 C 307.525 196.390,306.897 195.130,306.603 194.800 C 306.310 194.470,305.599 193.210,305.024 192.000 C 304.449 190.790,303.268 188.630,302.400 187.200 C 301.532 185.770,300.351 183.610,299.776 182.400 C 299.201 181.190,298.458 179.896,298.126 179.525 C 297.243 178.540,297.785 175.664,298.940 175.198 C 299.928 174.799,314.799 174.671,315.794 175.053 M51.409 191.426 C 49.776 192.277,49.613 192.641,49.606 195.444 C 49.588 202.713,49.713 202.810,59.080 202.776 C 71.245 202.731,76.718 198.616,71.609 193.353 C 69.185 190.856,55.083 189.510,51.409 191.426 M51.116 218.423 C 49.877 219.145,48.957 226.009,49.906 227.444 C 51.053 229.177,66.649 230.116,71.275 228.730 C 77.042 227.003,77.026 220.399,71.251 218.531 C 69.421 217.939,52.105 217.847,51.116 218.423 " stroke="none" fill="#070709" fill-rule="evenodd"></path><path id="path2" d="M264.400 13.160 C 264.400 13.341,263.943 13.402,263.384 13.295 C 262.536 13.133,262.290 13.307,261.896 14.350 L 261.425 15.600 257.212 15.605 C 247.420 15.618,244.600 15.993,244.926 17.239 C 245.036 17.658,244.962 17.900,244.763 17.777 C 244.563 17.654,244.400 17.717,244.400 17.917 C 244.400 18.117,241.745 18.413,238.500 18.573 C 230.572 18.966,230.586 18.964,230.700 19.516 C 230.755 19.782,230.620 20.000,230.400 20.000 C 230.180 20.000,230.000 20.360,230.000 20.800 C 230.000 21.531,220.173 22.090,215.516 21.624 C 214.211 21.493,213.106 22.398,213.305 23.435 L 213.489 24.400 207.245 24.447 C 203.810 24.473,200.846 24.467,200.659 24.434 C 199.601 24.244,198.800 24.931,198.800 26.027 L 198.800 27.200 191.426 27.200 C 183.828 27.200,181.731 27.523,182.155 28.626 C 182.290 28.978,182.221 29.137,181.995 28.997 C 181.778 28.863,181.600 29.033,181.600 29.376 C 181.600 29.916,180.714 30.000,175.029 30.000 C 168.040 30.000,167.200 30.218,167.200 32.029 C 167.200 32.733,158.383 33.263,153.935 32.827 C 153.570 32.791,153.159 32.942,153.023 33.163 C 152.886 33.384,152.508 33.463,152.182 33.338 C 151.408 33.041,150.400 33.896,150.400 34.849 C 150.400 35.535,150.030 35.602,146.100 35.627 C 143.735 35.641,140.540 35.730,139.000 35.824 C 137.460 35.917,135.769 35.995,135.241 35.997 C 134.061 36.000,133.200 36.671,133.200 37.589 C 133.200 38.200,132.499 38.313,127.100 38.570 C 123.745 38.730,120.550 38.893,120.000 38.931 C 119.437 38.970,118.976 39.262,118.946 39.600 C 118.917 39.930,118.872 40.515,118.846 40.900 C 118.805 41.519,118.317 41.600,114.621 41.600 L 110.441 41.600 110.576 42.991 C 110.782 45.111,115.990 50.800,117.725 50.800 C 117.948 50.800,118.956 51.312,119.965 51.938 C 120.974 52.564,123.690 54.126,126.000 55.409 C 128.310 56.692,131.893 58.790,133.962 60.071 C 136.032 61.352,137.889 62.400,138.090 62.400 C 138.291 62.400,139.208 62.910,140.128 63.533 C 141.048 64.157,143.600 65.625,145.800 66.796 C 148.000 67.966,150.610 69.505,151.600 70.214 C 152.590 70.924,154.930 72.265,156.800 73.195 C 158.670 74.126,160.740 75.292,161.400 75.787 C 162.060 76.283,163.770 77.277,165.200 77.997 C 166.630 78.717,169.150 80.155,170.800 81.191 C 174.622 83.593,175.764 84.242,184.200 88.811 C 185.960 89.764,188.390 91.206,189.600 92.016 C 190.810 92.825,192.610 93.896,193.600 94.395 C 194.590 94.895,196.665 96.068,198.211 97.002 C 199.758 97.936,202.368 99.376,204.011 100.201 C 205.655 101.027,207.630 102.196,208.400 102.800 C 209.170 103.404,211.060 104.531,212.600 105.304 C 214.140 106.078,216.930 107.651,218.800 108.800 C 220.670 109.949,223.370 111.506,224.800 112.260 C 226.230 113.014,228.210 114.141,229.200 114.763 C 230.823 115.783,236.065 118.786,243.200 122.782 C 244.630 123.583,246.805 124.883,248.034 125.672 C 249.263 126.461,251.153 127.547,252.234 128.085 C 255.700 129.812,272.377 139.966,273.800 141.216 C 274.240 141.603,276.940 143.304,279.800 144.997 C 282.660 146.690,285.270 148.315,285.600 148.609 C 285.930 148.902,288.465 150.554,291.232 152.280 C 296.000 155.253,299.250 158.083,298.620 158.713 C 298.289 159.044,65.621 159.338,63.776 159.010 C 62.921 158.858,62.421 158.461,62.118 157.696 L 61.685 156.600 61.643 157.871 C 61.611 158.809,61.888 159.370,62.700 160.015 L 63.800 160.889 208.400 160.722 C 342.542 160.568,353.087 160.508,354.200 159.888 C 354.860 159.521,355.715 159.104,356.100 158.963 C 356.485 158.822,356.800 158.334,356.800 157.879 C 356.800 157.424,357.190 156.637,357.666 156.130 C 358.851 154.869,358.140 153.003,356.588 153.300 C 355.652 153.479,355.224 152.086,355.548 149.914 C 355.698 148.908,354.721 147.527,353.992 147.718 C 353.556 147.832,353.290 147.778,353.402 147.597 C 353.514 147.416,353.442 147.208,353.242 147.134 C 353.042 147.060,352.788 146.065,352.677 144.922 C 352.440 142.490,352.135 141.862,351.339 142.168 C 351.015 142.293,350.866 142.216,351.003 141.995 C 351.137 141.778,350.967 141.600,350.624 141.600 C 350.093 141.600,349.877 140.920,350.034 139.745 C 350.091 139.317,349.052 138.813,348.100 138.806 C 347.334 138.801,347.195 138.577,347.168 137.300 C 347.083 133.422,346.682 132.578,345.100 132.957 C 344.507 133.100,344.400 132.830,344.400 131.189 C 344.400 128.347,343.857 127.201,342.510 127.197 C 341.468 127.194,341.394 127.078,341.295 125.297 C 341.112 121.988,341.033 121.810,339.682 121.676 C 338.437 121.552,338.435 121.549,338.318 118.876 L 338.200 116.200 336.900 116.075 C 335.651 115.954,335.600 115.881,335.600 114.201 C 335.600 111.634,335.001 110.322,333.900 110.475 C 333.077 110.589,332.990 110.420,332.879 108.490 C 332.812 107.329,332.604 106.474,332.416 106.590 C 332.228 106.706,332.169 106.439,332.285 105.996 C 332.448 105.372,332.222 105.096,331.271 104.765 C 330.300 104.426,330.021 104.075,329.923 103.069 C 329.816 101.960,329.636 101.784,328.500 101.675 C 327.239 101.553,326.754 100.163,327.166 97.859 C 327.333 96.928,326.643 96.029,325.582 95.796 C 324.493 95.557,324.400 95.399,324.400 93.794 C 324.400 91.144,323.831 90.001,322.510 89.997 C 321.430 89.993,321.397 89.928,321.296 87.552 C 321.169 84.589,321.066 84.400,319.576 84.400 C 318.446 84.400,318.398 84.326,318.357 82.500 C 318.278 78.959,318.299 79.010,316.900 78.875 C 315.651 78.754,315.600 78.681,315.600 77.001 C 315.600 74.307,314.996 73.069,313.793 73.299 C 312.846 73.480,312.800 73.399,312.800 71.545 C 312.800 70.475,312.651 69.600,312.468 69.600 C 312.286 69.600,312.151 69.195,312.168 68.700 C 312.193 68.012,311.985 67.808,311.291 67.833 C 310.398 67.865,310.236 67.579,309.912 65.400 C 309.826 64.822,309.434 64.565,308.497 64.475 C 307.240 64.353,306.754 62.960,307.166 60.659 C 307.352 59.622,306.668 58.800,305.620 58.800 C 304.516 58.800,304.490 58.748,304.326 56.173 C 304.153 53.455,303.685 52.711,302.271 52.902 C 301.647 52.986,301.516 52.632,301.362 50.447 C 301.143 47.349,301.061 47.200,299.576 47.200 C 298.418 47.200,298.020 45.814,298.358 42.953 C 298.418 42.442,297.453 41.542,296.942 41.633 C 295.822 41.834,295.600 41.493,295.600 39.576 C 295.600 38.463,295.437 37.654,295.237 37.777 C 295.038 37.900,294.969 37.641,295.084 37.200 C 295.253 36.556,295.049 36.350,294.047 36.149 C 292.879 35.916,292.800 35.789,292.800 34.150 C 292.800 33.188,292.651 32.400,292.468 32.400 C 292.286 32.400,292.151 31.995,292.168 31.500 C 292.193 30.806,291.948 30.571,291.100 30.473 C 290.253 30.376,289.988 30.123,289.950 29.373 C 289.923 28.838,289.877 28.175,289.850 27.900 C 289.822 27.625,289.215 27.344,288.500 27.275 C 287.244 27.154,287.198 27.086,287.154 25.275 C 287.128 24.244,287.066 23.220,287.015 23.000 C 286.964 22.780,286.894 22.375,286.861 22.100 C 286.827 21.825,286.261 21.600,285.600 21.600 C 284.563 21.600,284.397 21.450,284.377 20.500 C 284.292 16.426,284.116 16.005,282.456 15.888 C 281.335 15.809,281.202 15.666,281.201 14.543 C 281.200 13.815,280.956 13.192,280.620 13.063 C 279.691 12.707,264.400 12.798,264.400 13.160 M29.694 262.703 C 26.643 264.526,26.102 266.874,28.676 267.124 C 29.788 267.231,29.969 267.412,30.076 268.524 C 30.185 269.640,30.362 269.816,31.500 269.925 C 32.631 270.034,32.800 270.198,32.800 271.183 C 32.800 272.326,33.388 272.800,34.807 272.800 C 35.352 272.800,35.583 273.146,35.675 274.100 C 35.784 275.238,35.959 275.415,37.079 275.524 C 38.276 275.640,38.375 275.769,38.613 277.524 C 39.013 280.476,39.189 280.818,40.432 281.066 C 41.205 281.221,41.600 281.544,41.600 282.021 C 41.600 283.046,42.686 284.000,43.852 284.000 C 44.399 284.000,44.745 284.165,44.621 284.366 C 44.075 285.249,45.193 286.895,46.207 286.701 C 46.871 286.574,47.200 286.691,47.200 287.055 C 47.200 287.355,47.349 287.600,47.532 287.600 C 47.714 287.600,47.849 288.005,47.832 288.500 C 47.807 289.194,48.052 289.429,48.900 289.527 C 49.754 289.625,50.000 289.865,50.000 290.598 C 50.000 291.737,50.974 292.800,52.017 292.800 C 52.539 292.800,52.882 293.207,53.112 294.100 C 53.388 295.176,53.662 295.421,54.699 295.524 C 55.785 295.631,55.969 295.818,56.076 296.924 C 56.185 298.040,56.362 298.216,57.500 298.325 C 58.379 298.410,58.815 298.669,58.846 299.125 C 58.872 299.496,58.917 300.070,58.946 300.400 C 58.976 300.730,59.270 301.024,59.600 301.054 C 59.930 301.083,60.504 301.128,60.875 301.154 C 61.331 301.185,61.590 301.621,61.675 302.500 C 61.784 303.638,61.960 303.815,63.076 303.924 C 64.182 304.031,64.369 304.215,64.476 305.301 C 64.579 306.338,64.824 306.612,65.900 306.888 C 67.085 307.193,67.404 307.589,67.233 308.542 C 67.115 309.203,68.108 310.000,69.049 310.000 C 69.784 310.000,70.000 310.216,70.000 310.951 C 70.000 311.954,70.931 313.014,71.502 312.661 C 72.028 312.336,72.574 312.892,73.013 314.200 C 73.304 315.069,73.706 315.434,74.470 315.523 C 75.434 315.635,76.299 317.033,76.066 318.100 C 76.030 318.265,76.630 318.400,77.400 318.400 C 78.733 318.400,78.800 318.467,78.800 319.800 C 78.800 321.133,78.867 321.200,80.200 321.200 C 81.532 321.200,81.600 321.268,81.600 322.592 C 81.600 323.995,82.885 324.889,83.953 324.229 C 84.183 324.087,84.403 324.618,84.475 325.492 C 84.589 326.864,84.715 327.011,85.876 327.124 C 86.988 327.231,87.169 327.412,87.276 328.524 C 87.384 329.635,87.565 329.816,88.676 329.924 C 89.788 330.031,89.969 330.212,90.076 331.324 C 90.185 332.440,90.362 332.616,91.500 332.725 C 92.631 332.834,92.800 332.998,92.800 333.983 C 92.800 335.133,93.387 335.600,94.833 335.600 C 95.533 335.600,95.795 336.040,95.633 336.942 C 95.515 337.600,96.506 338.400,97.438 338.400 C 98.159 338.400,98.454 338.697,98.709 339.680 C 98.964 340.666,99.334 341.036,100.320 341.291 C 101.303 341.546,101.600 341.841,101.600 342.562 C 101.600 343.494,102.400 344.485,103.058 344.367 C 104.018 344.194,104.361 344.517,104.475 345.700 C 104.544 346.415,104.825 347.023,105.100 347.050 C 105.375 347.078,105.949 347.123,106.375 347.150 C 106.943 347.187,107.183 347.546,107.275 348.500 C 107.384 349.638,107.560 349.815,108.676 349.924 C 109.788 350.031,109.969 350.212,110.076 351.324 C 110.185 352.440,110.362 352.616,111.500 352.725 C 112.749 352.846,113.122 353.559,112.847 355.300 C 112.821 355.465,112.963 355.600,113.163 355.600 C 113.362 355.600,113.424 355.987,113.300 356.460 C 113.042 357.448,114.069 358.400,115.392 358.400 C 116.045 358.400,116.228 358.644,116.216 359.500 C 116.204 360.305,116.387 360.585,116.896 360.545 C 117.278 360.515,117.484 360.665,117.352 360.878 C 117.216 361.097,117.521 361.208,118.056 361.133 C 118.847 361.022,118.978 361.153,118.867 361.944 C 118.792 362.479,118.903 362.784,119.122 362.648 C 119.335 362.516,119.485 362.722,119.455 363.104 C 119.415 363.613,119.695 363.796,120.500 363.784 C 121.356 363.772,121.600 363.955,121.600 364.608 C 121.600 365.931,122.552 366.958,123.540 366.700 C 124.407 366.473,124.588 366.835,124.425 368.475 C 124.350 369.231,125.527 370.000,126.761 370.000 C 127.300 370.000,127.501 370.192,127.357 370.569 C 127.073 371.308,128.692 372.927,129.431 372.643 C 129.808 372.499,130.000 372.700,130.000 373.239 C 130.000 374.623,130.776 375.652,131.721 375.521 C 132.407 375.426,132.687 375.697,133.045 376.800 C 133.417 377.946,133.722 378.222,134.726 378.324 C 135.780 378.430,135.970 378.626,136.076 379.717 C 136.181 380.795,136.373 381.000,137.346 381.073 C 138.762 381.179,138.821 381.238,138.927 382.654 C 139.000 383.632,139.203 383.818,140.306 383.925 C 141.575 384.048,141.853 384.540,141.635 386.279 C 141.601 386.543,142.210 386.878,142.987 387.024 C 144.111 387.235,144.400 387.475,144.400 388.196 C 144.400 389.285,145.360 390.178,146.189 389.860 C 146.804 389.624,147.779 390.888,147.329 391.338 C 146.999 391.668,147.996 392.824,148.553 392.758 C 149.615 392.633,150.000 392.848,150.000 393.567 C 150.000 395.017,150.467 395.600,151.629 395.600 C 152.783 395.600,153.652 396.556,153.324 397.466 C 153.166 397.905,154.312 398.500,155.059 398.366 C 157.717 397.890,164.400 398.486,164.400 399.200 C 164.400 399.983,164.667 400.000,177.200 400.000 C 189.733 400.000,190.000 399.983,190.000 399.200 C 190.000 398.552,190.267 398.400,191.400 398.400 C 192.733 398.400,192.800 398.333,192.800 397.000 C 192.800 395.667,192.867 395.600,194.200 395.600 C 195.533 395.600,195.600 395.533,195.600 394.200 C 195.600 392.867,195.667 392.800,197.000 392.800 C 198.333 392.800,198.400 392.733,198.400 391.400 C 198.400 390.067,198.467 390.000,199.800 390.000 C 200.913 390.000,201.200 389.843,201.200 389.233 C 201.200 387.795,201.668 387.200,202.800 387.200 C 203.932 387.200,204.400 386.605,204.400 385.167 C 204.400 384.678,204.678 384.400,205.167 384.400 C 206.616 384.400,207.200 383.933,207.200 382.775 C 207.200 381.594,207.475 381.467,210.800 381.108 C 211.492 381.033,211.976 380.599,212.372 379.700 C 212.687 378.985,213.193 378.400,213.496 378.400 C 213.799 378.400,213.949 378.240,213.828 378.045 C 213.707 377.850,213.922 377.715,214.304 377.745 C 214.738 377.779,214.979 377.538,214.945 377.104 C 214.915 376.722,215.050 376.507,215.245 376.628 C 215.440 376.749,215.600 376.567,215.600 376.224 C 215.600 375.881,215.881 375.600,216.224 375.600 C 216.567 375.600,216.749 375.440,216.628 375.245 C 216.507 375.050,216.722 374.915,217.104 374.945 C 217.538 374.979,217.779 374.738,217.745 374.304 C 217.715 373.922,217.850 373.707,218.045 373.828 C 218.240 373.949,218.400 373.693,218.400 373.261 C 218.400 372.671,218.600 372.527,219.202 372.685 C 220.322 372.978,221.200 372.118,221.200 370.727 C 221.200 370.081,221.372 369.659,221.582 369.789 C 222.161 370.147,224.022 369.572,223.960 369.055 C 223.793 367.668,224.040 366.840,224.560 367.040 C 224.867 367.158,225.233 367.070,225.372 366.845 C 225.512 366.619,225.921 366.548,226.282 366.687 C 226.772 366.875,226.875 366.772,226.687 366.282 C 226.548 365.921,226.619 365.512,226.845 365.372 C 227.070 365.233,227.158 364.867,227.040 364.560 C 226.840 364.040,227.668 363.793,229.055 363.960 C 229.560 364.020,230.150 362.167,229.804 361.606 C 229.683 361.410,230.262 361.193,231.092 361.125 C 232.464 361.011,232.611 360.885,232.724 359.724 C 232.831 358.614,233.013 358.431,234.117 358.324 C 235.195 358.219,235.400 358.027,235.473 357.054 C 235.579 355.638,235.638 355.579,237.054 355.473 C 238.032 355.400,238.218 355.197,238.325 354.094 C 238.440 352.911,238.568 352.800,239.825 352.800 C 241.130 352.800,241.200 352.728,241.200 351.400 C 241.200 350.075,241.273 350.000,242.557 350.000 C 243.916 350.000,244.838 348.633,244.189 347.582 C 244.059 347.372,244.467 347.200,245.096 347.200 C 246.479 347.200,247.200 346.556,247.200 345.320 C 247.200 344.634,247.429 344.398,248.100 344.394 C 249.315 344.386,249.773 343.989,249.941 342.800 C 250.104 341.645,250.633 341.215,251.900 341.206 C 252.661 341.201,252.800 340.983,252.800 339.800 C 252.800 338.467,252.867 338.400,254.200 338.400 C 255.533 338.400,255.600 338.333,255.600 337.000 C 255.600 335.667,255.667 335.600,257.000 335.600 C 258.333 335.600,258.400 335.533,258.400 334.200 C 258.400 332.875,258.473 332.800,259.755 332.800 C 260.988 332.800,261.135 332.673,261.374 331.400 C 261.601 330.189,261.790 330.000,262.775 330.000 C 263.933 330.000,264.400 329.416,264.400 327.967 C 264.400 327.357,264.687 327.200,265.800 327.200 C 266.570 327.200,267.200 327.026,267.200 326.813 C 267.200 326.599,267.472 326.530,267.805 326.657 C 268.594 326.960,269.600 326.109,269.600 325.138 C 269.600 324.719,269.915 324.278,270.300 324.159 C 271.602 323.756,272.200 323.315,272.200 322.756 C 272.200 321.946,272.852 321.374,274.146 321.049 C 275.023 320.829,275.237 320.584,275.079 319.981 C 274.967 319.551,275.038 319.300,275.237 319.423 C 275.437 319.546,275.600 319.367,275.600 319.024 C 275.600 318.435,276.028 318.238,277.047 318.358 C 277.604 318.424,278.601 317.268,278.271 316.938 C 277.899 316.566,278.787 315.145,279.224 315.415 C 280.096 315.954,281.200 315.148,281.200 313.973 C 281.200 313.025,281.373 312.799,282.100 312.794 C 283.153 312.787,284.071 312.281,283.974 311.763 C 283.744 310.547,284.103 310.070,285.433 309.820 C 286.415 309.636,286.801 309.379,286.658 309.006 C 286.388 308.304,288.293 306.384,288.992 306.652 C 289.336 306.784,289.619 306.422,289.793 305.632 C 290.001 304.687,290.352 304.332,291.331 304.080 C 292.381 303.810,292.622 303.533,292.725 302.477 C 292.817 301.546,293.060 301.186,293.625 301.150 C 295.547 301.026,295.418 301.163,295.554 299.100 C 295.588 298.575,295.951 298.400,297.000 298.400 C 298.333 298.400,298.400 298.333,298.400 297.000 C 298.400 295.667,298.467 295.600,299.800 295.600 C 301.133 295.600,301.200 295.533,301.200 294.200 C 301.200 292.872,301.271 292.800,302.573 292.800 C 303.958 292.800,304.798 291.768,304.200 290.801 C 303.927 290.358,304.448 290.088,306.000 289.867 C 306.786 289.755,307.026 289.460,307.124 288.486 C 307.230 287.417,307.422 287.230,308.524 287.124 C 309.226 287.056,309.822 286.775,309.850 286.500 C 309.878 286.225,309.923 285.640,309.950 285.200 C 309.982 284.695,310.283 284.400,310.767 284.400 C 312.205 284.400,312.800 283.932,312.800 282.800 C 312.800 281.668,313.395 281.200,314.833 281.200 C 315.443 281.200,315.600 280.913,315.600 279.800 C 315.600 278.467,315.667 278.400,317.000 278.400 C 318.333 278.400,318.400 278.333,318.400 277.000 C 318.400 275.675,318.473 275.600,319.755 275.600 C 320.988 275.600,321.135 275.473,321.374 274.200 C 321.621 272.880,321.727 272.800,323.218 272.800 C 324.088 272.800,324.800 272.637,324.800 272.437 C 324.800 272.238,325.143 272.164,325.561 272.274 C 326.359 272.483,327.088 271.190,326.609 270.415 C 326.476 270.200,326.870 269.913,327.484 269.778 C 329.427 269.352,329.600 269.243,329.600 268.445 C 329.600 267.299,330.031 266.372,330.445 266.628 C 331.183 267.084,332.479 266.344,332.279 265.581 C 332.172 265.172,332.291 264.763,332.542 264.670 C 332.794 264.578,332.280 264.364,331.400 264.195 C 330.468 264.016,329.174 263.327,328.299 262.544 L 326.798 261.200 179.499 261.203 L 32.200 261.206 29.694 262.703 " stroke="none" fill="#6414e3" fill-rule="evenodd"></path><path id="path3" d="M107.402 41.931 C 107.291 42.042,107.200 43.262,107.200 44.641 L 107.200 47.149 105.900 47.275 L 104.600 47.400 104.482 50.321 C 104.373 53.013,104.303 53.223,103.582 52.994 C 103.122 52.848,102.800 52.932,102.800 53.197 C 102.800 53.444,102.620 53.536,102.400 53.400 C 102.180 53.264,101.978 53.343,101.950 53.576 C 101.923 53.809,101.855 54.360,101.800 54.800 C 101.745 55.240,101.678 56.320,101.650 57.200 C 101.615 58.333,101.425 58.800,101.000 58.800 C 100.670 58.800,100.397 59.025,100.394 59.300 C 100.389 59.660,100.306 59.672,100.094 59.344 C 99.881 59.014,99.658 59.042,99.284 59.444 C 98.863 59.898,98.863 60.001,99.284 60.006 C 99.661 60.011,99.674 60.092,99.334 60.309 C 99.072 60.475,98.791 61.967,98.693 63.710 C 98.502 67.134,98.495 67.151,97.200 67.400 C 95.938 67.643,95.931 67.658,95.746 70.454 C 95.557 73.323,95.645 73.137,94.376 73.331 C 93.578 73.452,93.389 73.727,93.338 74.840 C 93.303 75.588,93.244 76.200,93.205 76.200 C 93.166 76.200,93.047 76.737,92.941 77.393 C 92.835 78.048,92.573 78.693,92.360 78.824 C 92.147 78.956,92.081 79.346,92.214 79.692 C 92.505 80.450,91.691 81.051,91.130 80.490 C 90.864 80.224,90.896 79.988,91.227 79.783 C 91.547 79.585,91.622 79.641,91.438 79.938 C 91.281 80.192,91.358 80.400,91.610 80.400 C 92.160 80.400,91.927 79.509,91.324 79.308 C 90.541 79.047,90.314 80.548,91.055 81.089 C 91.705 81.565,91.697 81.600,90.939 81.600 C 90.211 81.600,90.117 81.880,90.039 84.291 C 89.940 87.357,90.022 87.141,88.886 87.314 C 87.384 87.543,87.326 87.674,87.250 90.973 C 87.203 93.011,87.134 93.155,86.140 93.273 C 84.785 93.435,83.938 94.656,84.800 95.205 C 85.199 95.460,85.232 95.590,84.900 95.594 C 84.545 95.598,84.400 96.470,84.400 98.600 C 84.400 101.317,84.324 101.605,83.600 101.650 C 83.160 101.678,82.575 101.723,82.300 101.750 C 81.972 101.783,81.753 102.696,81.663 104.399 C 81.531 106.895,81.098 107.773,80.164 107.433 C 79.924 107.345,79.474 107.435,79.164 107.631 C 78.765 107.883,78.746 107.990,79.100 107.994 C 79.375 107.997,79.600 108.191,79.600 108.424 C 79.600 108.657,79.445 108.751,79.255 108.634 C 79.065 108.517,78.806 109.425,78.679 110.652 C 78.417 113.193,78.446 113.137,77.286 113.314 C 76.018 113.508,75.671 114.877,75.618 119.900 C 75.601 121.518,75.542 121.600,74.400 121.600 C 73.734 121.600,73.177 121.823,73.148 122.100 C 73.009 123.435,72.882 125.107,72.843 126.100 C 72.819 126.718,72.571 127.200,72.276 127.200 C 70.725 127.200,70.093 128.574,70.028 132.087 C 70.005 133.305,69.879 133.529,69.334 133.319 C 68.917 133.159,68.767 133.223,68.932 133.490 C 69.077 133.724,68.917 134.023,68.577 134.154 C 68.162 134.313,68.051 134.227,68.238 133.895 C 68.456 133.509,68.399 133.510,67.979 133.900 C 67.136 134.682,68.126 135.499,69.083 134.811 C 69.477 134.528,69.260 134.816,68.600 135.453 C 67.144 136.857,67.200 136.700,67.200 139.375 C 67.200 141.536,67.192 141.550,65.900 141.675 C 65.185 141.744,64.578 142.025,64.550 142.300 C 64.523 142.575,64.475 144.015,64.444 145.500 C 64.407 147.292,64.265 148.007,64.024 147.626 C 63.742 147.179,63.535 147.156,63.094 147.522 C 62.782 147.781,62.379 147.860,62.199 147.697 C 62.019 147.533,62.001 147.625,62.159 147.900 C 62.318 148.175,62.279 148.400,62.074 148.400 C 61.499 148.400,61.486 155.828,62.059 157.412 C 62.445 158.479,62.836 158.843,63.779 159.010 C 65.623 159.338,298.290 159.044,298.620 158.713 C 299.250 158.083,296.000 155.253,291.232 152.280 C 288.465 150.554,285.930 148.902,285.600 148.609 C 285.270 148.315,282.660 146.690,279.800 144.997 C 276.940 143.304,274.240 141.603,273.800 141.216 C 272.377 139.966,255.700 129.812,252.234 128.085 C 251.153 127.547,249.263 126.461,248.034 125.672 C 246.805 124.883,244.630 123.583,243.200 122.782 C 236.065 118.786,230.823 115.783,229.200 114.763 C 228.210 114.141,226.230 113.014,224.800 112.260 C 223.370 111.506,220.670 109.949,218.800 108.800 C 216.930 107.651,214.140 106.078,212.600 105.304 C 211.060 104.531,209.170 103.404,208.400 102.800 C 207.630 102.196,205.655 101.027,204.011 100.201 C 202.368 99.376,199.758 97.936,198.211 97.002 C 196.665 96.068,194.590 94.895,193.600 94.395 C 192.610 93.896,190.810 92.825,189.600 92.016 C 188.390 91.206,185.960 89.764,184.200 88.811 C 175.764 84.242,174.622 83.593,170.800 81.191 C 169.150 80.155,166.630 78.717,165.200 77.997 C 163.770 77.277,162.060 76.283,161.400 75.787 C 160.740 75.292,158.670 74.126,156.800 73.195 C 154.930 72.265,152.590 70.924,151.600 70.214 C 150.610 69.505,148.000 67.966,145.800 66.796 C 143.600 65.625,141.048 64.157,140.128 63.533 C 139.208 62.910,138.291 62.400,138.090 62.400 C 137.889 62.400,136.032 61.352,133.962 60.071 C 131.893 58.790,128.310 56.692,126.000 55.409 C 123.690 54.126,120.974 52.564,119.965 51.938 C 118.956 51.312,117.948 50.800,117.725 50.800 C 116.168 50.800,110.741 45.083,110.576 43.269 C 110.523 42.681,110.461 42.070,110.440 41.912 C 110.396 41.594,107.723 41.611,107.402 41.931 " stroke="none" fill="#9b6af2" fill-rule="evenodd"></path><path id="path4" d="M33.282 175.219 C 31.187 176.060,31.200 175.840,31.200 210.227 C 31.200 245.932,31.078 244.373,33.944 245.229 C 34.935 245.524,41.789 245.620,55.400 245.527 L 75.400 245.391 79.723 243.899 C 86.665 241.503,90.018 238.690,92.851 232.883 L 94.470 229.566 94.328 225.283 C 94.140 219.612,92.301 215.425,88.477 211.965 C 85.417 209.196,85.049 208.018,86.701 206.271 C 97.449 194.903,89.456 177.520,72.436 175.249 C 68.353 174.704,34.630 174.678,33.282 175.219 M102.789 176.500 C 101.027 180.383,101.846 222.879,103.747 226.167 C 104.266 227.065,104.995 228.731,105.367 229.869 C 105.739 231.007,106.296 232.148,106.604 232.403 C 106.912 232.659,107.619 233.645,108.176 234.595 C 115.775 247.563,141.642 251.230,155.196 241.262 C 160.363 237.462,165.497 230.320,166.186 225.973 C 166.341 224.998,166.902 222.796,167.434 221.079 L 168.400 217.959 168.400 197.959 C 168.400 172.650,169.307 174.800,158.635 174.800 C 148.138 174.800,148.802 173.271,148.793 197.480 C 148.784 222.190,148.387 223.857,141.700 227.251 C 134.059 231.129,126.201 228.515,122.313 220.800 L 120.600 217.400 120.400 197.000 C 120.232 179.831,120.106 176.457,119.604 175.700 C 119.020 174.818,118.850 174.800,111.284 174.800 L 103.561 174.800 102.789 176.500 M180.297 175.234 C 177.952 176.599,178.000 175.877,178.000 209.951 C 178.000 249.307,176.986 245.600,187.748 245.600 C 197.690 245.600,197.200 246.235,197.200 233.348 C 197.200 226.089,197.320 224.116,197.841 222.815 L 198.482 221.213 208.708 221.107 L 218.935 221.000 220.836 218.552 C 221.904 217.178,223.007 215.198,223.352 214.037 C 223.690 212.900,224.334 211.502,224.783 210.931 C 225.784 209.658,225.889 206.591,224.977 205.289 C 224.356 204.401,224.333 204.400,211.410 204.400 L 198.466 204.400 197.777 202.595 C 197.022 200.618,197.120 195.222,197.950 193.100 L 198.380 192.000 211.328 192.000 C 225.828 192.000,224.895 192.189,226.231 188.985 C 226.594 188.113,227.211 186.950,227.601 186.400 C 227.991 185.850,228.593 184.449,228.938 183.286 C 229.283 182.124,229.957 180.623,230.435 179.951 C 231.560 178.370,230.977 175.799,229.352 175.182 C 227.943 174.646,181.221 174.695,180.297 175.234 M240.297 175.234 C 237.952 176.599,238.000 175.877,238.000 209.951 C 238.000 249.307,236.986 245.600,247.748 245.600 C 257.690 245.600,257.200 246.235,257.200 233.348 C 257.200 226.074,257.319 224.118,257.843 222.808 L 258.487 221.200 268.551 221.200 L 278.614 221.200 280.103 220.189 C 281.797 219.038,282.555 217.769,283.228 214.960 C 283.486 213.882,284.131 212.352,284.662 211.560 C 285.940 209.651,286.131 206.450,285.038 205.242 C 284.293 204.419,283.983 204.400,271.371 204.400 L 258.466 204.400 257.777 202.595 C 257.022 200.618,257.120 195.222,257.950 193.100 L 258.380 192.000 270.490 191.960 C 277.151 191.938,283.050 191.801,283.600 191.655 C 284.714 191.359,289.167 183.665,289.191 181.994 C 289.196 181.661,289.551 180.734,289.979 179.935 C 290.972 178.083,290.519 175.965,288.980 175.264 C 287.637 174.652,241.345 174.623,240.297 175.234 M298.940 175.198 C 297.785 175.664,297.243 178.540,298.126 179.525 C 298.458 179.896,299.201 181.190,299.776 182.400 C 300.351 183.610,301.532 185.770,302.400 187.200 C 303.268 188.630,304.449 190.790,305.024 192.000 C 305.599 193.210,306.310 194.470,306.603 194.800 C 306.897 195.130,307.525 196.390,307.998 197.600 C 308.472 198.810,309.185 200.160,309.582 200.600 C 309.979 201.040,310.656 202.210,311.087 203.200 C 311.518 204.190,312.160 205.239,312.515 205.532 C 312.869 205.825,313.372 206.725,313.632 207.532 C 314.073 208.902,316.024 212.471,317.618 214.824 C 318.236 215.736,319.061 217.224,321.780 222.332 C 322.472 223.632,322.585 224.908,322.780 233.688 C 323.064 246.465,322.220 245.400,332.065 245.400 L 339.310 245.400 340.155 244.272 C 340.941 243.222,341.014 242.512,341.200 234.032 C 341.334 227.913,341.554 224.735,341.870 224.355 C 342.129 224.045,342.720 222.774,343.185 221.532 C 343.650 220.289,344.287 219.060,344.600 218.800 C 344.913 218.540,345.540 217.336,345.993 216.126 C 346.447 214.915,347.263 213.339,347.809 212.624 C 348.354 211.909,348.800 211.143,348.800 210.922 C 348.800 210.701,349.344 209.769,350.009 208.851 C 350.674 207.933,351.644 206.219,352.164 205.042 C 352.685 203.865,353.297 202.787,353.525 202.647 C 353.752 202.506,354.245 201.448,354.619 200.295 C 354.992 199.143,355.709 197.750,356.212 197.200 C 356.714 196.650,357.421 195.482,357.782 194.605 C 358.143 193.728,358.762 192.648,359.158 192.205 C 359.554 191.762,360.164 190.660,360.514 189.755 C 360.864 188.850,361.611 187.430,362.175 186.599 C 362.739 185.768,363.200 184.899,363.200 184.668 C 363.200 184.437,363.943 183.018,364.851 181.516 C 368.312 175.787,367.168 174.800,357.065 174.800 L 349.482 174.800 347.773 176.201 C 346.570 177.186,345.873 178.175,345.420 179.539 C 345.067 180.604,344.335 182.074,343.796 182.806 C 343.256 183.538,342.516 184.916,342.153 185.868 C 341.789 186.821,341.328 187.600,341.129 187.600 C 340.930 187.600,340.251 188.749,339.621 190.153 C 338.991 191.557,338.301 192.814,338.087 192.946 C 337.873 193.078,337.283 194.224,336.775 195.493 C 336.268 196.762,335.464 198.340,334.990 199.000 C 334.516 199.660,333.897 200.785,333.615 201.500 C 333.334 202.215,332.966 202.800,332.800 202.800 C 332.074 202.800,329.257 199.570,329.013 198.459 C 328.865 197.787,328.421 196.824,328.026 196.319 C 327.630 195.813,326.747 194.288,326.062 192.929 C 325.378 191.570,324.648 190.353,324.440 190.224 C 324.231 190.096,323.766 189.103,323.406 188.018 C 323.046 186.933,322.398 185.597,321.967 185.049 C 321.536 184.501,320.915 183.293,320.588 182.366 C 319.832 180.223,316.661 175.386,315.794 175.053 C 314.799 174.671,299.928 174.799,298.940 175.198 M73.000 178.121 C 78.820 179.237,81.428 180.431,84.683 183.472 L 87.603 186.200 88.402 189.981 C 89.805 196.627,88.854 200.633,84.935 204.591 C 81.899 207.657,81.470 209.626,83.500 211.183 C 84.105 211.648,85.524 212.729,86.653 213.586 C 89.391 215.664,90.278 217.006,91.215 220.482 C 92.794 226.340,92.850 226.744,92.243 227.917 C 91.932 228.518,91.383 230.024,91.023 231.262 C 90.663 232.501,89.996 233.939,89.542 234.457 C 89.088 234.976,88.420 235.765,88.058 236.211 C 86.921 237.612,84.249 239.495,83.000 239.777 C 82.340 239.925,81.080 240.383,80.200 240.793 C 76.512 242.512,76.085 242.545,55.600 242.705 C 37.407 242.847,35.694 242.804,34.500 242.167 L 33.200 241.474 33.200 210.010 L 33.200 178.545 34.500 177.882 C 36.315 176.956,67.948 177.152,73.000 178.121 M118.720 177.680 C 119.080 178.040,119.202 183.153,119.210 198.180 C 119.220 219.369,119.310 220.560,121.120 223.529 C 124.675 229.363,127.860 231.293,134.316 231.525 L 138.833 231.687 141.848 230.144 C 146.034 228.001,149.495 223.817,149.582 220.794 C 149.592 220.461,150.005 219.471,150.500 218.594 C 151.394 217.011,151.401 216.868,151.515 197.815 C 151.617 180.807,151.703 178.549,152.277 177.915 C 153.194 176.902,163.488 176.846,165.014 177.846 L 166.000 178.492 165.999 195.546 C 165.997 215.673,165.231 226.796,163.808 227.342 C 163.517 227.453,162.892 228.578,162.419 229.840 C 161.455 232.417,155.470 238.623,152.800 239.814 C 152.030 240.157,151.130 240.607,150.800 240.813 C 146.763 243.337,135.016 245.080,130.200 243.871 C 128.880 243.540,126.490 243.056,124.889 242.796 C 123.069 242.501,121.015 241.813,119.411 240.962 C 117.999 240.213,116.628 239.600,116.364 239.600 C 115.841 239.600,109.200 232.953,109.200 232.430 C 109.200 232.254,108.677 231.452,108.038 230.648 C 107.399 229.844,106.655 228.244,106.383 227.093 C 106.112 225.942,105.420 224.100,104.845 223.000 L 103.800 221.000 103.680 199.665 C 103.591 183.794,103.681 178.185,104.029 177.765 C 104.655 177.011,117.974 176.934,118.720 177.680 M227.724 177.916 C 228.509 178.783,227.820 182.086,226.505 183.757 C 226.080 184.298,225.424 185.545,225.049 186.527 C 224.084 189.055,223.241 189.200,209.481 189.200 L 198.117 189.200 197.105 190.138 C 194.353 192.688,194.617 204.140,197.480 206.391 C 198.459 207.161,199.071 207.200,210.264 207.200 L 222.020 207.200 222.432 208.283 C 222.859 209.407,221.835 214.400,221.177 214.400 C 221.010 214.400,220.373 215.190,219.762 216.156 L 218.651 217.913 214.626 218.151 C 212.411 218.282,207.720 218.502,204.200 218.639 C 195.081 218.996,195.200 218.806,195.200 233.009 L 195.200 241.579 194.020 242.190 C 192.063 243.201,181.372 243.069,180.814 242.026 C 180.024 240.551,180.263 178.814,181.062 177.931 C 182.078 176.809,226.709 176.794,227.724 177.916 M287.589 177.786 C 288.269 178.606,287.722 181.486,286.600 182.993 C 286.106 183.657,285.441 185.010,285.122 186.000 C 284.170 188.948,284.007 188.983,270.141 189.116 C 255.108 189.262,255.200 189.205,255.200 198.258 C 255.200 206.981,255.569 207.200,270.240 207.200 C 284.147 207.200,283.358 206.886,282.194 211.959 C 280.802 218.031,280.922 217.986,264.200 218.639 C 255.081 218.996,255.200 218.806,255.200 233.009 L 255.200 241.579 254.020 242.190 C 252.063 243.201,241.372 243.069,240.814 242.026 C 240.024 240.551,240.263 178.814,241.062 177.931 C 241.977 176.920,286.754 176.780,287.589 177.786 M314.169 177.525 C 315.504 177.762,315.877 178.067,316.676 179.578 C 317.192 180.554,317.858 181.633,318.156 181.976 C 318.454 182.319,318.998 183.524,319.365 184.653 C 319.732 185.782,320.390 187.029,320.826 187.423 C 321.262 187.818,321.893 189.084,322.228 190.237 C 322.563 191.390,323.128 192.573,323.483 192.866 C 323.839 193.160,324.531 194.307,325.022 195.416 C 325.514 196.525,326.195 197.664,326.536 197.947 C 326.877 198.230,327.439 199.314,327.785 200.355 C 328.401 202.211,330.437 204.558,332.282 205.540 C 333.174 206.014,335.200 203.923,335.200 202.528 C 335.200 202.260,335.641 201.565,336.180 200.984 C 336.719 200.402,337.465 198.998,337.838 197.863 C 338.211 196.728,338.898 195.413,339.363 194.940 C 339.829 194.468,340.454 193.388,340.753 192.540 C 341.051 191.693,341.626 190.638,342.029 190.195 C 342.432 189.752,343.057 188.683,343.417 187.820 C 343.778 186.957,344.490 185.699,345.000 185.025 C 345.509 184.351,346.124 183.055,346.366 182.145 C 346.627 181.166,347.459 179.817,348.403 178.845 L 349.999 177.200 355.422 177.200 C 362.944 177.200,365.328 177.836,363.617 179.385 C 363.186 179.775,362.531 181.018,362.163 182.147 C 361.794 183.276,361.190 184.491,360.821 184.846 C 360.452 185.201,359.819 186.371,359.414 187.446 C 359.008 188.521,358.165 189.991,357.539 190.714 C 356.912 191.437,356.400 192.256,356.400 192.535 C 356.400 192.814,355.884 193.753,355.254 194.621 C 354.623 195.490,353.876 196.920,353.593 197.800 C 353.310 198.680,352.645 199.971,352.116 200.669 C 351.586 201.366,350.967 202.626,350.739 203.469 C 350.512 204.311,349.902 205.450,349.384 206.000 C 348.866 206.550,348.149 207.702,347.790 208.561 C 347.432 209.419,346.810 210.409,346.408 210.761 C 346.007 211.112,345.363 212.390,344.977 213.600 C 344.591 214.810,343.972 216.016,343.600 216.279 C 343.229 216.542,342.603 217.622,342.209 218.679 C 341.815 219.736,341.142 220.988,340.712 221.462 C 339.645 222.640,339.229 226.308,339.213 234.667 C 339.206 238.444,339.091 241.819,338.957 242.167 C 338.607 243.079,327.736 243.098,325.980 242.190 L 324.800 241.579 324.796 234.690 C 324.792 226.559,323.857 220.737,322.209 218.577 C 321.671 217.871,320.933 216.548,320.568 215.636 C 320.203 214.725,319.603 213.758,319.234 213.489 C 318.865 213.220,318.238 212.133,317.839 211.074 C 317.440 210.015,316.684 208.684,316.157 208.116 C 315.631 207.548,315.200 206.832,315.200 206.526 C 315.200 205.734,313.653 202.800,313.235 202.800 C 313.044 202.800,312.582 202.035,312.210 201.100 C 311.838 200.165,311.126 198.860,310.627 198.200 C 310.129 197.540,309.492 196.280,309.211 195.400 C 308.931 194.520,308.378 193.440,307.983 193.000 C 307.587 192.560,306.953 191.390,306.572 190.400 C 306.192 189.410,305.493 188.150,305.019 187.600 C 304.545 187.050,303.735 185.664,303.220 184.520 C 302.704 183.376,302.067 182.358,301.803 182.257 C 300.982 181.941,300.208 178.514,300.798 177.803 C 301.339 177.150,310.938 176.951,314.169 177.525 M49.387 188.910 L 48.200 189.930 48.065 195.893 C 47.843 205.690,47.740 205.600,59.126 205.600 C 71.200 205.599,74.600 203.613,74.600 196.558 L 74.600 192.761 72.662 190.956 C 69.924 188.406,69.612 188.338,59.587 188.102 L 50.573 187.889 49.387 188.910 M67.743 191.257 C 74.842 192.683,74.929 199.779,67.875 202.076 C 65.053 202.994,52.938 203.099,51.237 202.219 C 48.738 200.927,48.868 192.751,51.409 191.426 C 52.879 190.660,64.186 190.543,67.743 191.257 M50.600 215.178 C 48.504 216.036,48.208 216.926,48.071 222.784 C 47.848 232.256,47.651 232.127,62.157 231.931 C 72.810 231.786,73.005 231.744,75.495 229.071 C 79.968 224.266,77.815 217.699,71.105 215.684 C 68.013 214.755,52.564 214.374,50.600 215.178 M71.251 218.531 C 77.026 220.399,77.042 227.003,71.275 228.730 C 66.649 230.116,51.053 229.177,49.906 227.444 C 48.957 226.009,49.877 219.145,51.116 218.423 C 52.105 217.847,69.421 217.939,71.251 218.531 " stroke="none" fill="#9c9c9c" fill-rule="evenodd"></path></g></svg>