<svg id="svg" version="1.1" xmlns="http://www.w3.org/2000/svg" xmlns:xlink="http://www.w3.org/1999/xlink" width="400" height="400" viewBox="0, 0, 400,400"><g id="svgg"><path id="path0" d="M216.814 53.573 C 216.373 54.438,215.844 55.249,215.638 55.376 C 215.433 55.503,214.540 57.090,213.654 58.903 C 212.768 60.717,211.413 63.100,210.643 64.200 C 209.873 65.300,208.852 66.920,208.375 67.800 C 207.897 68.680,207.272 69.670,206.984 70.000 C 206.696 70.330,206.063 71.665,205.577 72.967 C 204.991 74.536,204.089 75.920,202.907 77.070 C 201.808 78.138,200.509 80.073,199.529 82.103 C 198.653 83.916,197.526 85.940,197.025 86.600 C 196.524 87.260,195.648 88.719,195.079 89.843 C 194.510 90.967,193.616 92.407,193.092 93.043 C 191.705 94.729,189.791 98.247,188.765 101.000 C 188.273 102.320,186.753 104.930,185.386 106.800 C 182.651 110.544,181.443 112.728,181.018 114.696 C 180.857 115.443,180.176 116.461,179.412 117.096 C 178.682 117.703,177.653 119.100,177.123 120.200 C 176.594 121.300,175.427 123.460,174.529 125.000 C 173.632 126.540,172.333 128.925,171.643 130.301 C 170.944 131.694,169.507 133.633,168.399 134.679 C 167.305 135.711,166.203 137.195,165.947 137.978 C 165.462 139.469,159.057 151.792,156.268 156.600 C 155.375 158.140,154.073 160.533,153.375 161.918 C 152.677 163.303,151.731 164.835,151.272 165.323 C 150.813 165.811,150.140 166.925,149.775 167.798 C 149.082 169.457,146.326 174.230,143.307 179.000 C 142.332 180.540,140.694 183.245,139.667 185.011 C 138.640 186.778,137.431 188.758,136.980 189.411 C 136.530 190.065,135.930 191.140,135.647 191.800 C 135.365 192.460,134.450 193.900,133.614 195.000 C 131.881 197.281,131.277 198.405,129.419 202.811 C 128.689 204.541,127.439 206.822,126.640 207.879 C 123.942 211.447,121.718 215.032,121.214 216.620 C 120.938 217.489,120.222 218.830,119.623 219.600 C 119.024 220.370,117.697 222.620,116.675 224.600 C 115.654 226.580,114.164 229.190,113.366 230.400 C 112.567 231.610,111.548 233.320,111.100 234.200 C 110.652 235.080,109.711 236.520,109.009 237.400 C 108.308 238.280,107.493 239.630,107.198 240.400 C 106.186 243.048,103.897 247.409,101.006 252.200 C 99.412 254.840,97.720 257.767,97.244 258.704 C 96.769 259.641,95.752 260.991,94.985 261.704 C 93.952 262.663,93.432 263.623,92.983 265.400 C 92.649 266.720,91.979 268.340,91.494 269.000 C 86.636 275.609,83.600 281.028,83.600 283.089 C 83.600 283.452,82.908 284.570,82.063 285.574 C 81.218 286.578,79.786 288.750,78.881 290.400 C 77.976 292.050,76.777 294.020,76.218 294.778 C 74.931 296.520,74.917 297.796,76.176 298.621 C 77.292 299.352,87.970 299.497,90.355 298.813 C 91.178 298.577,92.446 298.584,93.787 298.831 C 95.699 299.185,347.042 299.085,355.058 298.727 C 359.470 298.531,360.351 297.451,358.627 294.350 C 358.092 293.388,357.446 291.769,357.193 290.752 C 356.918 289.653,355.873 287.763,354.609 286.084 C 352.591 283.401,350.699 280.225,348.483 275.800 C 347.933 274.700,346.446 272.245,345.179 270.344 C 343.913 268.444,342.491 266.016,342.019 264.949 C 341.547 263.883,340.842 262.648,340.452 262.205 C 339.300 260.896,336.561 256.082,333.735 250.400 C 332.915 248.750,332.113 247.309,331.955 247.197 C 331.599 246.946,329.009 242.466,327.747 239.918 C 327.235 238.883,326.465 237.849,326.037 237.620 C 325.609 237.391,324.878 236.187,324.414 234.945 C 323.949 233.703,323.227 232.252,322.809 231.721 C 322.391 231.189,321.754 229.865,321.393 228.778 C 321.031 227.690,320.363 226.539,319.908 226.220 C 319.452 225.901,318.593 224.776,317.999 223.720 C 313.362 215.479,311.875 212.922,311.418 212.400 C 311.129 212.070,310.240 210.450,309.443 208.800 C 308.645 207.150,307.374 204.810,306.617 203.600 C 304.495 200.208,301.943 195.879,300.400 193.053 C 299.630 191.642,298.716 190.064,298.370 189.544 C 296.916 187.365,294.840 183.691,294.223 182.205 C 293.860 181.328,293.223 180.248,292.808 179.805 C 292.393 179.362,291.677 178.190,291.215 177.200 C 290.754 176.210,289.746 174.500,288.974 173.400 C 288.203 172.300,287.000 170.230,286.301 168.800 C 285.602 167.370,284.483 165.357,283.815 164.327 C 281.581 160.883,280.256 158.616,279.298 156.600 C 278.775 155.500,278.013 154.240,277.606 153.800 C 277.198 153.360,276.543 152.190,276.150 151.200 C 275.758 150.210,274.860 148.643,274.155 147.718 C 273.450 146.792,272.655 145.352,272.389 144.518 C 272.122 143.683,271.505 142.550,271.018 142.000 C 270.228 141.107,265.035 132.250,261.872 126.400 C 261.218 125.190,260.266 123.747,259.757 123.194 C 259.248 122.641,258.548 121.386,258.202 120.406 C 257.856 119.425,257.247 118.258,256.850 117.811 C 256.134 117.009,254.946 115.006,252.732 110.867 C 252.104 109.694,251.164 108.164,250.642 107.467 C 250.120 106.770,248.667 104.266,247.413 101.903 C 246.158 99.539,244.980 97.512,244.795 97.397 C 244.610 97.283,244.240 96.516,243.973 95.694 C 243.705 94.872,242.998 93.570,242.400 92.800 C 241.802 92.030,241.101 90.747,240.841 89.948 C 240.582 89.150,239.989 88.160,239.525 87.748 C 239.060 87.337,238.185 85.920,237.580 84.600 C 236.976 83.280,235.383 80.592,234.042 78.627 C 232.701 76.662,231.234 74.068,230.783 72.863 C 230.332 71.658,229.522 70.147,228.982 69.505 C 228.442 68.864,228.000 68.119,228.000 67.851 C 228.000 67.357,225.124 62.679,223.639 60.757 C 223.196 60.183,222.454 58.752,221.991 57.576 C 221.527 56.401,220.799 55.194,220.372 54.895 C 219.945 54.596,219.322 53.822,218.987 53.176 C 218.182 51.617,217.773 51.692,216.814 53.573 " stroke="none" fill="#1fa245" fill-rule="evenodd"></path><path id="path1" d="M183.091 54.687 C 182.440 54.786,181.708 55.297,181.317 55.927 C 180.952 56.517,180.332 57.365,179.940 57.811 C 179.548 58.257,178.221 60.867,176.990 63.611 C 175.620 66.667,174.310 68.988,173.609 69.602 C 172.979 70.154,172.335 71.144,172.176 71.802 C 171.705 73.758,170.822 75.265,168.703 77.726 C 167.375 79.268,166.332 81.038,165.609 82.975 C 165.010 84.582,164.065 86.505,163.509 87.249 C 162.954 87.992,162.276 89.320,162.003 90.200 C 161.730 91.080,160.926 92.430,160.216 93.200 C 159.506 93.970,158.694 95.188,158.411 95.907 C 158.128 96.626,157.214 98.189,156.380 99.380 C 155.546 100.571,153.949 103.325,152.831 105.501 C 151.714 107.677,150.203 110.164,149.474 111.028 C 148.744 111.893,147.741 113.616,147.245 114.858 C 146.748 116.100,145.905 117.526,145.371 118.028 C 144.837 118.529,144.400 119.224,144.400 119.572 C 144.400 120.244,143.138 122.413,139.655 127.727 C 138.476 129.527,136.349 133.340,134.929 136.200 C 133.509 139.060,132.027 141.760,131.635 142.200 C 131.243 142.640,130.609 143.810,130.227 144.800 C 129.846 145.790,129.124 147.140,128.624 147.800 C 128.124 148.460,127.326 149.764,126.851 150.697 C 125.901 152.562,120.897 160.687,118.146 164.829 C 117.186 166.275,116.400 167.676,116.400 167.943 C 116.400 168.602,114.512 172.325,113.430 173.800 C 112.946 174.460,111.689 176.620,110.638 178.600 C 109.586 180.580,108.230 182.830,107.624 183.600 C 107.019 184.370,106.213 185.600,105.835 186.333 C 105.456 187.066,104.348 188.430,103.373 189.364 C 102.303 190.390,101.600 191.420,101.600 191.964 C 101.600 193.758,97.445 201.931,95.176 204.600 C 94.394 205.519,93.072 208.441,92.642 210.200 C 92.480 210.860,91.560 212.210,90.598 213.200 C 89.532 214.296,88.584 215.782,88.175 217.000 C 87.805 218.100,86.288 220.800,84.805 223.000 C 81.365 228.101,79.341 231.779,78.599 234.279 C 78.173 235.712,77.579 236.604,76.443 237.518 C 75.219 238.501,74.811 239.155,74.589 240.489 C 74.139 243.192,73.211 245.131,71.804 246.310 C 71.088 246.909,70.184 248.025,69.795 248.789 C 69.406 249.553,68.033 251.771,66.744 253.716 C 65.456 255.662,64.289 257.705,64.150 258.256 C 64.012 258.807,63.278 260.159,62.520 261.262 C 61.762 262.364,60.891 263.974,60.586 264.840 C 60.281 265.705,59.595 266.995,59.063 267.706 C 58.530 268.418,57.780 269.630,57.395 270.400 C 57.011 271.170,55.753 273.240,54.601 275.000 C 53.449 276.760,51.654 279.910,50.612 282.000 C 49.570 284.090,48.295 286.251,47.778 286.802 C 47.262 287.353,46.199 289.423,45.418 291.402 C 44.636 293.381,43.809 295.325,43.581 295.723 C 42.988 296.753,45.084 298.630,47.306 299.059 C 50.190 299.617,66.311 299.270,68.637 298.601 C 69.757 298.278,71.636 298.056,72.811 298.107 C 74.908 298.198,74.954 298.176,75.213 296.954 C 75.358 296.269,75.926 295.099,76.476 294.354 C 77.026 293.609,78.164 291.740,79.007 290.200 C 79.849 288.660,81.227 286.578,82.069 285.574 C 82.911 284.570,83.600 283.452,83.600 283.089 C 83.600 281.028,86.636 275.609,91.494 269.000 C 91.979 268.340,92.649 266.720,92.983 265.400 C 93.432 263.623,93.952 262.663,94.985 261.704 C 95.752 260.991,96.769 259.641,97.244 258.704 C 97.720 257.767,99.412 254.840,101.006 252.200 C 103.897 247.409,106.186 243.048,107.198 240.400 C 107.493 239.630,108.308 238.280,109.009 237.400 C 109.711 236.520,110.652 235.080,111.100 234.200 C 111.548 233.320,112.567 231.610,113.366 230.400 C 114.164 229.190,115.654 226.580,116.675 224.600 C 117.697 222.620,119.024 220.370,119.623 219.600 C 120.222 218.830,120.938 217.489,121.214 216.620 C 121.718 215.032,123.942 211.447,126.640 207.879 C 127.439 206.822,128.689 204.541,129.419 202.811 C 131.277 198.405,131.881 197.281,133.614 195.000 C 134.450 193.900,135.365 192.460,135.647 191.800 C 135.930 191.140,136.530 190.065,136.980 189.411 C 137.431 188.758,138.640 186.778,139.667 185.011 C 140.694 183.245,142.332 180.540,143.307 179.000 C 146.326 174.230,149.082 169.457,149.775 167.798 C 150.140 166.925,150.813 165.811,151.272 165.323 C 151.731 164.835,152.677 163.303,153.375 161.918 C 154.073 160.533,155.375 158.140,156.268 156.600 C 159.057 151.792,165.462 139.469,165.947 137.978 C 166.203 137.195,167.305 135.711,168.399 134.679 C 169.507 133.633,170.944 131.694,171.643 130.301 C 172.333 128.925,173.632 126.540,174.529 125.000 C 175.427 123.460,176.594 121.300,177.123 120.200 C 177.653 119.100,178.682 117.703,179.412 117.096 C 180.176 116.461,180.857 115.443,181.018 114.696 C 181.443 112.728,182.651 110.544,185.386 106.800 C 186.753 104.930,188.273 102.320,188.765 101.000 C 189.791 98.247,191.705 94.729,193.092 93.043 C 193.616 92.407,194.510 90.967,195.079 89.843 C 195.648 88.719,196.518 87.260,197.013 86.600 C 198.020 85.257,200.800 79.839,200.800 79.221 C 200.800 79.001,200.028 78.049,199.085 77.106 C 198.049 76.070,196.995 74.444,196.420 72.996 C 195.897 71.678,194.881 69.865,194.162 68.966 C 193.443 68.067,191.829 65.367,190.575 62.966 C 189.321 60.565,187.892 58.150,187.400 57.600 C 186.907 57.050,186.190 56.105,185.806 55.500 C 185.422 54.895,184.904 54.427,184.654 54.460 C 184.404 54.493,183.701 54.595,183.091 54.687 " stroke="none" fill="#eaa916" fill-rule="evenodd"></path><path id="path2" d="M164.000 0.800 C 164.000 1.569,163.731 1.600,157.100 1.606 C 149.688 1.613,149.354 1.680,149.140 3.200 C 149.004 4.173,148.904 4.203,145.400 4.300 C 140.268 4.442,140.000 4.536,140.000 6.195 L 140.000 7.574 135.500 7.687 L 131.000 7.800 130.875 9.100 L 130.749 10.400 127.625 10.400 C 122.712 10.400,122.000 10.634,122.000 12.250 L 122.000 13.600 119.000 13.600 L 116.000 13.600 116.000 15.000 L 116.000 16.400 113.633 16.400 C 110.772 16.400,110.000 16.657,110.000 17.610 C 110.000 19.366,109.621 19.600,106.775 19.600 L 104.036 19.600 103.782 20.956 C 103.528 22.309,103.522 22.312,100.936 22.476 C 98.222 22.649,97.617 23.049,97.606 24.682 C 97.601 25.490,97.378 25.573,94.924 25.682 C 92.283 25.798,92.244 25.817,91.917 27.083 C 91.645 28.137,91.336 28.413,90.193 28.628 C 88.932 28.864,88.800 29.016,88.800 30.227 L 88.800 31.565 85.900 31.682 L 83.000 31.800 82.877 33.277 C 82.762 34.665,82.665 34.762,81.277 34.877 C 79.933 34.989,79.789 35.117,79.675 36.300 C 79.560 37.490,79.433 37.600,78.175 37.600 C 76.838 37.600,76.800 37.644,76.800 39.200 L 76.800 40.800 73.800 40.800 L 70.800 40.800 70.800 42.176 C 70.800 43.477,70.719 43.558,69.300 43.676 C 67.881 43.793,67.793 43.881,67.676 45.300 C 67.558 46.719,67.477 46.800,66.176 46.800 C 64.875 46.800,64.800 46.875,64.800 48.176 C 64.800 49.477,64.719 49.558,63.300 49.676 C 61.881 49.793,61.793 49.881,61.676 51.300 C 61.558 52.719,61.477 52.800,60.176 52.800 C 58.875 52.800,58.800 52.875,58.800 54.176 C 58.800 55.477,58.719 55.558,57.300 55.676 C 55.881 55.793,55.793 55.881,55.676 57.300 C 55.558 58.719,55.477 58.800,54.176 58.800 C 52.875 58.800,52.800 58.875,52.800 60.176 C 52.800 61.477,52.719 61.558,51.300 61.676 C 49.881 61.793,49.793 61.881,49.676 63.300 C 49.558 64.719,49.477 64.800,48.176 64.800 C 46.875 64.800,46.800 64.875,46.800 66.176 C 46.800 67.477,46.719 67.558,45.300 67.676 C 43.881 67.793,43.793 67.881,43.676 69.300 C 43.558 70.719,43.477 70.800,42.176 70.800 L 40.800 70.800 40.800 73.800 L 40.800 76.800 39.200 76.800 C 37.644 76.800,37.600 76.838,37.600 78.175 C 37.600 79.433,37.490 79.560,36.300 79.675 C 35.117 79.789,34.989 79.933,34.877 81.277 C 34.762 82.665,34.665 82.762,33.277 82.877 L 31.800 83.000 31.682 85.900 L 31.565 88.800 30.227 88.800 C 29.016 88.800,28.864 88.932,28.628 90.193 C 28.413 91.336,28.137 91.645,27.083 91.917 C 25.817 92.244,25.798 92.283,25.682 94.924 C 25.573 97.378,25.490 97.601,24.682 97.606 C 23.049 97.617,22.649 98.222,22.476 100.936 C 22.312 103.522,22.309 103.528,20.956 103.782 L 19.600 104.036 19.600 106.775 C 19.600 109.621,19.366 110.000,17.610 110.000 C 16.657 110.000,16.400 110.772,16.400 113.633 L 16.400 116.000 15.000 116.000 L 13.600 116.000 13.600 119.000 L 13.600 122.000 12.250 122.000 C 10.634 122.000,10.400 122.712,10.400 127.625 L 10.400 130.749 9.100 130.875 L 7.800 131.000 7.687 135.500 L 7.574 140.000 6.195 140.000 C 4.536 140.000,4.442 140.268,4.300 145.400 C 4.203 148.904,4.173 149.004,3.200 149.140 C 1.680 149.354,1.613 149.688,1.606 157.100 C 1.600 163.731,1.569 164.000,0.800 164.000 C 0.006 164.000,0.000 164.267,0.000 200.000 C 0.000 235.733,0.006 236.000,0.800 236.000 C 1.569 236.000,1.600 236.269,1.606 242.900 C 1.613 250.312,1.680 250.646,3.200 250.860 C 4.173 250.996,4.203 251.096,4.300 254.600 C 4.442 259.732,4.536 260.000,6.195 260.000 L 7.574 260.000 7.687 264.500 L 7.800 269.000 9.100 269.125 L 10.400 269.251 10.400 272.375 C 10.400 277.288,10.634 278.000,12.250 278.000 L 13.600 278.000 13.600 281.000 L 13.600 284.000 15.000 284.000 L 16.400 284.000 16.400 286.367 C 16.400 289.228,16.657 290.000,17.610 290.000 C 19.360 290.000,19.600 290.383,19.600 293.172 L 19.600 295.859 21.088 296.229 C 22.572 296.599,22.576 296.605,22.457 298.522 C 22.311 300.866,23.162 302.400,24.609 302.400 C 25.414 302.400,25.608 302.607,25.640 303.500 C 25.811 308.185,25.611 307.804,28.042 308.087 C 28.395 308.128,28.682 308.350,28.679 308.581 C 28.650 310.988,28.773 311.200,30.200 311.200 C 31.575 311.200,31.601 311.231,31.637 312.900 C 31.729 317.149,31.666 316.989,33.277 317.123 C 34.665 317.238,34.762 317.335,34.877 318.723 C 34.989 320.067,35.117 320.211,36.300 320.325 C 37.549 320.446,37.922 321.159,37.647 322.900 C 37.621 323.065,38.320 323.200,39.200 323.200 L 40.800 323.200 40.800 326.200 L 40.800 329.200 42.176 329.200 C 43.477 329.200,43.558 329.281,43.676 330.700 C 43.793 332.119,43.881 332.207,45.300 332.324 C 46.719 332.442,46.800 332.523,46.800 333.824 C 46.800 335.125,46.875 335.200,48.176 335.200 C 49.477 335.200,49.558 335.281,49.676 336.700 C 49.793 338.119,49.881 338.207,51.300 338.324 C 52.719 338.442,52.800 338.523,52.800 339.824 C 52.800 341.125,52.875 341.200,54.176 341.200 C 55.477 341.200,55.558 341.281,55.676 342.700 C 55.793 344.119,55.881 344.207,57.300 344.324 C 58.719 344.442,58.800 344.523,58.800 345.824 C 58.800 347.125,58.875 347.200,60.176 347.200 C 61.477 347.200,61.558 347.281,61.676 348.700 C 61.793 350.119,61.881 350.207,63.300 350.324 C 64.719 350.442,64.800 350.523,64.800 351.824 C 64.800 353.125,64.875 353.200,66.176 353.200 C 67.477 353.200,67.558 353.281,67.676 354.700 C 67.793 356.119,67.881 356.207,69.300 356.324 C 70.719 356.442,70.800 356.523,70.800 357.824 L 70.800 359.200 73.800 359.200 L 76.800 359.200 76.800 360.800 C 76.800 362.356,76.838 362.400,78.175 362.400 C 79.433 362.400,79.560 362.510,79.675 363.700 C 79.789 364.883,79.933 365.011,81.277 365.123 C 82.665 365.238,82.762 365.335,82.877 366.723 L 83.000 368.200 85.900 368.318 L 88.800 368.435 88.800 369.773 C 88.800 370.984,88.932 371.136,90.193 371.372 C 91.336 371.587,91.645 371.863,91.917 372.917 C 92.244 374.183,92.283 374.202,94.924 374.318 C 97.378 374.427,97.601 374.510,97.606 375.318 C 97.617 376.951,98.222 377.351,100.936 377.524 C 103.522 377.688,103.528 377.691,103.782 379.044 L 104.036 380.400 106.775 380.400 C 109.621 380.400,110.000 380.634,110.000 382.390 C 110.000 383.343,110.772 383.600,113.633 383.600 L 116.000 383.600 116.000 385.000 L 116.000 386.400 119.000 386.400 L 122.000 386.400 122.000 387.750 C 122.000 389.366,122.712 389.600,127.625 389.600 L 130.749 389.600 130.875 390.900 L 131.000 392.200 135.500 392.313 L 140.000 392.426 140.000 393.805 C 140.000 395.464,140.268 395.558,145.400 395.700 C 148.904 395.797,149.004 395.827,149.140 396.800 C 149.354 398.320,149.688 398.387,157.100 398.394 C 163.731 398.400,164.000 398.431,164.000 399.200 C 164.000 399.994,164.267 400.000,200.000 400.000 C 235.733 400.000,236.000 399.994,236.000 399.200 C 236.000 398.431,236.269 398.400,242.900 398.394 C 250.312 398.387,250.646 398.320,250.860 396.800 C 250.996 395.827,251.096 395.797,254.600 395.700 C 259.732 395.558,260.000 395.464,260.000 393.805 L 260.000 392.426 264.500 392.313 L 269.000 392.200 269.125 390.900 L 269.251 389.600 272.375 389.600 C 277.288 389.600,278.000 389.366,278.000 387.750 L 278.000 386.400 281.000 386.400 L 284.000 386.400 284.000 385.000 L 284.000 383.600 286.367 383.600 C 289.228 383.600,290.000 383.343,290.000 382.390 C 290.000 380.634,290.379 380.400,293.225 380.400 L 295.964 380.400 296.218 379.044 C 296.472 377.691,296.478 377.688,299.064 377.524 C 301.778 377.351,302.383 376.951,302.394 375.318 C 302.399 374.510,302.622 374.427,305.076 374.318 C 307.717 374.202,307.756 374.183,308.083 372.917 C 308.355 371.863,308.664 371.587,309.807 371.372 C 311.068 371.136,311.200 370.984,311.200 369.773 L 311.200 368.435 314.100 368.318 L 317.000 368.200 317.123 366.723 C 317.238 365.335,317.335 365.238,318.723 365.123 C 320.067 365.011,320.211 364.883,320.325 363.700 C 320.440 362.510,320.567 362.400,321.825 362.400 C 323.162 362.400,323.200 362.356,323.200 360.800 L 323.200 359.200 326.200 359.200 L 329.200 359.200 329.200 357.824 C 329.200 356.523,329.281 356.442,330.700 356.324 C 332.119 356.207,332.207 356.119,332.324 354.700 C 332.442 353.281,332.523 353.200,333.824 353.200 C 335.125 353.200,335.200 353.125,335.200 351.824 C 335.200 350.523,335.281 350.442,336.700 350.324 C 338.119 350.207,338.207 350.119,338.324 348.700 C 338.442 347.281,338.523 347.200,339.824 347.200 C 341.125 347.200,341.200 347.125,341.200 345.824 C 341.200 344.523,341.281 344.442,342.700 344.324 C 344.119 344.207,344.207 344.119,344.324 342.700 C 344.442 341.281,344.523 341.200,345.824 341.200 C 347.125 341.200,347.200 341.125,347.200 339.824 C 347.200 338.523,347.281 338.442,348.700 338.324 C 350.119 338.207,350.207 338.119,350.324 336.700 C 350.442 335.281,350.523 335.200,351.824 335.200 C 353.125 335.200,353.200 335.125,353.200 333.824 C 353.200 332.523,353.281 332.442,354.700 332.324 C 356.119 332.207,356.207 332.119,356.324 330.700 C 356.442 329.281,356.523 329.200,357.824 329.200 L 359.200 329.200 359.200 326.200 L 359.200 323.200 360.800 323.200 C 362.356 323.200,362.400 323.162,362.400 321.825 C 362.400 320.567,362.510 320.440,363.700 320.325 C 364.883 320.211,365.011 320.067,365.123 318.723 C 365.238 317.335,365.335 317.238,366.723 317.123 L 368.200 317.000 368.318 314.100 L 368.435 311.200 369.773 311.200 C 370.984 311.200,371.136 311.068,371.372 309.807 C 371.587 308.664,371.863 308.355,372.917 308.083 C 374.183 307.756,374.202 307.717,374.318 305.076 C 374.427 302.622,374.510 302.399,375.318 302.394 C 376.951 302.383,377.351 301.778,377.524 299.064 C 377.688 296.478,377.691 296.472,379.044 296.218 L 380.400 295.964 380.400 293.225 C 380.400 290.379,380.634 290.000,382.390 290.000 C 383.343 290.000,383.600 289.228,383.600 286.367 L 383.600 284.000 385.000 284.000 L 386.400 284.000 386.400 281.000 L 386.400 278.000 387.750 278.000 C 389.366 278.000,389.600 277.288,389.600 272.375 L 389.600 269.251 390.900 269.125 L 392.200 269.000 392.313 264.500 L 392.426 260.000 393.805 260.000 C 395.464 260.000,395.558 259.732,395.700 254.600 C 395.797 251.096,395.827 250.996,396.800 250.860 C 398.320 250.646,398.387 250.312,398.394 242.900 C 398.400 236.269,398.431 236.000,399.200 236.000 C 399.994 236.000,400.000 235.733,400.000 200.000 C 400.000 164.267,399.994 164.000,399.200 164.000 C 398.431 164.000,398.400 163.731,398.394 157.100 C 398.387 149.688,398.320 149.354,396.800 149.140 C 395.827 149.004,395.797 148.904,395.700 145.400 C 395.558 140.268,395.464 140.000,393.805 140.000 L 392.426 140.000 392.313 135.500 L 392.200 131.000 390.900 130.875 L 389.600 130.749 389.600 127.625 C 389.600 122.712,389.366 122.000,387.750 122.000 L 386.400 122.000 386.400 119.000 L 386.400 116.000 385.000 116.000 L 383.600 116.000 383.600 113.633 C 383.600 110.772,383.343 110.000,382.390 110.000 C 380.634 110.000,380.400 109.621,380.400 106.775 L 380.400 104.036 379.044 103.782 C 377.691 103.528,377.688 103.522,377.524 100.936 C 377.351 98.222,376.951 97.617,375.318 97.606 C 374.510 97.601,374.427 97.378,374.318 94.924 C 374.202 92.283,374.183 92.244,372.917 91.917 C 371.863 91.645,371.587 91.336,371.372 90.193 C 371.136 88.932,370.984 88.800,369.773 88.800 L 368.435 88.800 368.318 85.900 L 368.200 83.000 366.723 82.877 C 365.335 82.762,365.238 82.665,365.123 81.277 C 365.011 79.933,364.883 79.789,363.700 79.675 C 362.510 79.560,362.400 79.433,362.400 78.175 C 362.400 76.838,362.356 76.800,360.800 76.800 L 359.200 76.800 359.200 73.800 L 359.200 70.800 357.824 70.800 C 356.523 70.800,356.442 70.719,356.324 69.300 C 356.207 67.881,356.119 67.793,354.700 67.676 C 353.281 67.558,353.200 67.477,353.200 66.176 C 353.200 64.875,353.125 64.800,351.824 64.800 C 350.523 64.800,350.442 64.719,350.324 63.300 C 350.207 61.881,350.119 61.793,348.700 61.676 C 347.281 61.558,347.200 61.477,347.200 60.176 C 347.200 58.875,347.125 58.800,345.824 58.800 C 344.523 58.800,344.442 58.719,344.324 57.300 C 344.207 55.881,344.119 55.793,342.700 55.676 C 341.281 55.558,341.200 55.477,341.200 54.176 C 341.200 52.875,341.125 52.800,339.824 52.800 C 338.523 52.800,338.442 52.719,338.324 51.300 C 338.207 49.881,338.119 49.793,336.700 49.676 C 335.281 49.558,335.200 49.477,335.200 48.176 C 335.200 46.875,335.125 46.800,333.824 46.800 C 332.523 46.800,332.442 46.719,332.324 45.300 C 332.207 43.881,332.119 43.793,330.700 43.676 C 329.281 43.558,329.200 43.477,329.200 42.176 L 329.200 40.800 326.200 40.800 L 323.200 40.800 323.200 39.200 C 323.200 37.644,323.162 37.600,321.825 37.600 C 320.567 37.600,320.440 37.490,320.325 36.300 C 320.211 35.117,320.067 34.989,318.723 34.877 C 317.335 34.762,317.238 34.665,317.123 33.277 L 317.000 31.800 314.100 31.682 L 311.200 31.565 311.200 30.227 C 311.200 29.016,311.068 28.864,309.807 28.628 C 308.664 28.413,308.355 28.137,308.083 27.083 C 307.756 25.817,307.717 25.798,305.076 25.682 C 302.622 25.573,302.399 25.490,302.394 24.682 C 302.383 23.049,301.778 22.649,299.064 22.476 C 296.478 22.312,296.472 22.309,296.218 20.956 L 295.964 19.600 293.225 19.600 C 290.379 19.600,290.000 19.366,290.000 17.610 C 290.000 16.657,289.228 16.400,286.367 16.400 L 284.000 16.400 284.000 15.000 L 284.000 13.600 281.000 13.600 L 278.000 13.600 278.000 12.250 C 278.000 10.634,277.288 10.400,272.375 10.400 L 269.251 10.400 269.125 9.100 L 269.000 7.800 264.500 7.687 L 260.000 7.574 260.000 6.195 C 260.000 4.536,259.732 4.442,254.600 4.300 C 251.096 4.203,250.996 4.173,250.860 3.200 C 250.646 1.680,250.312 1.613,242.900 1.606 C 236.269 1.600,236.000 1.569,236.000 0.800 C 236.000 0.006,235.733 0.000,200.000 0.000 C 164.267 0.000,164.000 0.006,164.000 0.800 M219.636 49.300 C 220.126 50.015,221.029 51.140,221.643 51.800 C 222.257 52.460,223.056 53.720,223.418 54.600 C 223.780 55.480,224.403 56.560,224.801 57.000 C 225.885 58.197,227.850 61.472,229.243 64.400 C 229.923 65.830,230.813 67.362,231.220 67.805 C 231.628 68.248,232.243 69.283,232.586 70.105 C 232.930 70.927,233.351 71.600,233.523 71.600 C 233.695 71.600,234.434 72.765,235.164 74.189 C 235.895 75.613,236.718 76.966,236.994 77.195 C 237.270 77.424,237.812 78.464,238.199 79.506 C 238.586 80.548,239.481 82.030,240.189 82.800 C 242.423 85.229,243.944 87.732,244.443 89.800 C 244.708 90.900,245.429 92.382,246.045 93.093 C 246.660 93.805,247.380 95.107,247.643 95.987 C 247.907 96.867,248.447 97.881,248.844 98.240 C 249.241 98.599,249.945 100.034,250.409 101.428 C 250.971 103.115,251.512 104.045,252.028 104.209 C 252.454 104.344,253.247 105.394,253.790 106.542 C 254.333 107.690,255.385 109.343,256.127 110.215 C 257.787 112.165,258.119 112.785,259.239 116.020 C 259.727 117.430,260.537 118.907,261.039 119.302 C 261.542 119.698,262.072 120.421,262.217 120.910 C 262.362 121.400,262.969 122.430,263.565 123.200 C 265.564 125.782,267.529 128.985,268.227 130.800 C 268.608 131.790,269.333 133.050,269.839 133.600 C 270.894 134.748,272.000 137.197,272.000 138.384 C 272.000 138.829,272.524 139.661,273.166 140.232 C 273.807 140.803,274.447 141.732,274.588 142.296 C 274.730 142.860,275.360 143.802,275.988 144.389 C 276.620 144.979,277.341 146.247,277.601 147.228 C 277.860 148.203,278.404 149.360,278.809 149.800 C 279.215 150.240,279.967 151.509,280.481 152.620 C 280.995 153.731,281.817 155.150,282.308 155.774 C 282.799 156.397,283.200 157.113,283.200 157.363 C 283.200 157.613,283.742 158.475,284.404 159.278 C 285.066 160.082,285.721 161.338,285.860 162.069 C 286.223 163.983,286.735 164.853,288.240 166.117 C 289.090 166.831,289.666 167.744,289.836 168.649 C 289.982 169.427,290.373 170.168,290.704 170.295 C 291.036 170.423,291.805 171.624,292.413 172.964 C 293.021 174.305,293.890 175.738,294.344 176.149 C 294.798 176.560,295.384 177.550,295.646 178.348 C 295.907 179.147,296.552 180.367,297.078 181.061 C 297.605 181.755,299.024 184.268,300.232 186.646 C 301.441 189.024,302.670 191.246,302.965 191.585 C 303.260 191.923,303.882 193.075,304.347 194.143 C 304.813 195.212,305.735 196.704,306.397 197.457 C 307.059 198.211,307.600 199.028,307.600 199.273 C 307.600 199.517,308.202 200.636,308.939 201.759 C 309.675 202.881,310.466 204.358,310.697 205.040 C 310.928 205.722,311.595 206.759,312.180 207.344 C 312.765 207.929,313.521 209.069,313.859 209.878 C 314.197 210.687,314.880 211.901,315.378 212.575 C 316.753 214.437,319.600 219.814,319.600 220.548 C 319.600 220.906,320.238 221.874,321.018 222.699 C 321.833 223.561,322.620 224.929,322.869 225.913 C 323.107 226.855,323.637 227.805,324.046 228.025 C 324.455 228.244,325.676 230.263,326.758 232.511 C 327.841 234.760,329.259 237.269,329.909 238.087 C 330.560 238.905,331.326 240.165,331.611 240.887 C 331.896 241.609,332.438 242.560,332.814 243.000 C 333.191 243.440,333.892 244.880,334.373 246.200 C 334.853 247.520,335.596 248.871,336.023 249.202 C 336.907 249.886,339.338 253.761,341.292 257.600 C 342.020 259.030,343.254 261.190,344.034 262.400 C 344.814 263.610,345.888 265.500,346.421 266.600 C 346.954 267.700,347.785 268.985,348.267 269.456 C 348.750 269.926,349.336 271.018,349.568 271.882 C 349.801 272.745,350.434 273.868,350.975 274.377 C 351.516 274.885,352.229 276.093,352.559 277.060 C 352.888 278.028,353.693 279.355,354.347 280.009 C 355.001 280.662,355.653 281.729,355.795 282.378 C 355.938 283.027,356.575 284.214,357.211 285.014 C 358.434 286.552,358.579 286.904,358.985 289.309 C 359.132 290.179,359.576 291.026,360.035 291.309 C 363.376 293.373,364.007 299.606,361.032 301.177 C 360.433 301.494,319.269 301.642,213.800 301.708 C 69.556 301.799,67.378 301.811,65.889 302.580 C 64.522 303.284,64.215 303.307,62.689 302.817 C 60.620 302.154,47.062 301.780,45.065 302.331 C 43.994 302.627,43.336 302.553,42.102 302.001 C 38.320 300.308,37.894 298.078,40.284 292.478 C 41.606 289.380,42.545 287.951,45.234 284.944 C 45.655 284.473,46.000 283.730,46.000 283.294 C 46.000 281.926,47.185 279.058,48.354 277.600 C 48.971 276.830,49.845 275.363,50.297 274.340 C 50.749 273.318,51.452 272.145,51.860 271.735 C 53.247 270.338,55.626 266.764,56.556 264.679 C 57.067 263.536,57.875 262.253,58.352 261.830 C 58.828 261.406,59.509 260.056,59.864 258.830 C 60.970 255.006,65.611 246.788,66.957 246.272 C 67.278 246.149,67.903 245.272,68.346 244.324 C 68.788 243.376,69.510 241.970,69.951 241.200 C 70.391 240.430,71.041 239.150,71.395 238.355 C 71.749 237.561,72.435 236.729,72.919 236.508 C 73.547 236.220,73.945 235.486,74.304 233.953 C 75.028 230.864,78.067 224.995,80.389 222.200 C 83.037 219.014,85.440 214.964,86.688 211.583 C 87.321 209.869,88.486 207.877,89.770 206.314 C 90.905 204.931,92.083 203.191,92.387 202.447 C 92.692 201.703,93.332 200.623,93.811 200.047 C 94.289 199.471,95.175 198.100,95.780 197.000 C 96.385 195.900,97.111 194.730,97.395 194.400 C 97.678 194.070,98.112 192.837,98.359 191.659 C 99.119 188.044,101.322 184.056,104.028 181.400 C 105.423 180.031,107.060 177.883,107.840 176.400 C 108.591 174.970,109.378 173.530,109.588 173.200 C 109.799 172.870,110.632 171.018,111.440 169.085 C 112.878 165.640,113.891 164.400,115.264 164.400 C 115.781 164.400,116.014 163.930,116.204 162.500 C 116.550 159.911,117.120 158.546,118.140 157.866 C 118.613 157.551,119.351 156.597,119.780 155.747 C 120.209 154.896,120.774 153.930,121.035 153.600 C 122.289 152.016,125.751 144.691,127.051 140.872 C 128.020 138.026,128.927 136.133,129.767 135.200 C 131.742 133.008,133.505 130.287,134.755 127.499 C 135.458 125.933,136.678 124.173,137.894 122.969 C 138.989 121.886,140.104 120.323,140.374 119.496 C 140.650 118.650,141.445 117.549,142.189 116.981 C 143.206 116.206,143.574 115.566,143.775 114.226 C 144.053 112.373,145.702 109.507,147.817 107.200 C 148.524 106.430,150.202 103.674,151.548 101.076 C 154.315 95.732,155.962 93.191,157.191 92.366 C 157.776 91.973,158.203 90.989,158.586 89.148 C 159.278 85.823,160.753 82.876,162.486 81.354 C 163.221 80.709,164.160 79.285,164.573 78.190 C 165.706 75.186,167.998 71.321,169.900 69.207 C 170.835 68.167,171.600 66.965,171.600 66.534 C 171.600 63.443,180.736 48.400,182.613 48.400 C 184.959 48.400,190.148 52.341,190.617 54.479 C 190.754 55.099,191.202 55.787,191.613 56.007 C 192.059 56.246,192.634 57.381,193.038 58.821 C 193.410 60.149,194.214 61.863,194.824 62.630 C 195.434 63.397,196.162 64.919,196.442 66.013 C 196.722 67.106,197.169 68.000,197.434 68.000 C 197.700 68.000,198.458 68.616,199.120 69.370 C 200.118 70.506,202.279 72.000,202.926 72.000 C 203.017 72.000,203.401 71.188,203.780 70.195 C 204.160 69.203,204.789 68.220,205.178 68.012 C 205.568 67.803,206.116 66.816,206.395 65.817 C 206.675 64.819,207.510 63.359,208.252 62.573 C 208.993 61.786,209.600 60.927,209.600 60.662 C 209.600 60.398,210.216 59.246,210.969 58.102 C 211.723 56.959,212.461 55.613,212.610 55.112 C 212.759 54.610,213.367 53.570,213.961 52.800 C 214.555 52.030,215.444 50.738,215.936 49.928 C 217.343 47.613,218.362 47.440,219.636 49.300 " stroke="none" fill="#fbfbfb" fill-rule="evenodd"></path><path id="path3" d="M217.315 48.260 C 217.048 48.368,216.428 49.119,215.936 49.928 C 215.444 50.738,214.555 52.030,213.961 52.800 C 213.367 53.570,212.759 54.610,212.610 55.112 C 212.461 55.613,211.723 56.959,210.969 58.102 C 210.216 59.246,209.600 60.398,209.600 60.662 C 209.600 60.927,208.993 61.786,208.252 62.573 C 207.510 63.359,206.675 64.819,206.395 65.817 C 206.116 66.816,205.558 67.808,205.157 68.023 C 204.755 68.238,204.170 69.266,203.856 70.307 C 203.542 71.348,202.636 73.269,201.842 74.576 C 199.473 78.481,200.055 79.841,202.909 77.068 C 204.089 75.920,204.991 74.535,205.577 72.967 C 206.063 71.665,206.696 70.330,206.984 70.000 C 207.272 69.670,207.897 68.680,208.375 67.800 C 208.852 66.920,209.873 65.300,210.643 64.200 C 211.413 63.100,212.767 60.760,213.652 59.000 C 214.538 57.240,215.653 55.237,216.131 54.548 C 216.609 53.860,217.225 52.960,217.500 52.548 C 217.986 51.820,218.014 51.821,218.500 52.585 C 218.775 53.016,219.508 53.898,220.130 54.545 C 220.751 55.192,221.613 56.619,222.046 57.717 C 222.479 58.815,223.196 60.183,223.639 60.757 C 225.124 62.679,228.000 67.357,228.000 67.851 C 228.000 68.119,228.442 68.864,228.982 69.505 C 229.522 70.147,230.332 71.658,230.783 72.863 C 231.234 74.068,232.701 76.662,234.042 78.627 C 235.383 80.592,236.976 83.280,237.580 84.600 C 238.185 85.920,239.060 87.337,239.525 87.748 C 239.989 88.160,240.582 89.150,240.841 89.948 C 241.101 90.747,241.802 92.030,242.400 92.800 C 242.998 93.570,243.705 94.872,243.973 95.694 C 244.240 96.516,244.610 97.283,244.795 97.397 C 244.980 97.512,246.158 99.539,247.413 101.903 C 248.667 104.266,250.120 106.770,250.642 107.467 C 251.164 108.164,252.104 109.694,252.732 110.867 C 254.946 115.006,256.134 117.009,256.850 117.811 C 257.247 118.258,257.856 119.425,258.202 120.406 C 258.548 121.386,259.248 122.641,259.757 123.194 C 260.266 123.747,261.218 125.190,261.872 126.400 C 265.035 132.250,270.228 141.107,271.018 142.000 C 271.505 142.550,272.122 143.683,272.389 144.518 C 272.655 145.352,273.450 146.792,274.155 147.718 C 274.860 148.643,275.758 150.210,276.150 151.200 C 276.543 152.190,277.198 153.360,277.606 153.800 C 278.013 154.240,278.775 155.500,279.298 156.600 C 280.256 158.616,281.581 160.883,283.815 164.327 C 284.483 165.357,285.602 167.370,286.301 168.800 C 287.000 170.230,288.203 172.300,288.974 173.400 C 289.746 174.500,290.754 176.210,291.215 177.200 C 291.677 178.190,292.393 179.362,292.808 179.805 C 293.223 180.248,293.860 181.328,294.223 182.205 C 294.840 183.691,296.916 187.365,298.370 189.544 C 298.716 190.064,299.630 191.642,300.400 193.053 C 301.943 195.879,304.495 200.208,306.617 203.600 C 307.374 204.810,308.645 207.150,309.443 208.800 C 310.240 210.450,311.129 212.070,311.418 212.400 C 311.875 212.922,313.362 215.479,317.999 223.720 C 318.593 224.776,319.452 225.901,319.908 226.220 C 320.363 226.539,321.031 227.690,321.393 228.778 C 321.754 229.865,322.391 231.189,322.809 231.721 C 323.227 232.252,323.949 233.703,324.414 234.945 C 324.878 236.187,325.609 237.391,326.037 237.620 C 326.465 237.849,327.235 238.883,327.747 239.918 C 329.009 242.466,331.599 246.946,331.955 247.197 C 332.113 247.309,332.915 248.750,333.735 250.400 C 336.561 256.082,339.300 260.896,340.452 262.205 C 340.842 262.648,341.547 263.883,342.019 264.949 C 342.491 266.016,343.913 268.444,345.179 270.344 C 346.446 272.245,347.933 274.700,348.483 275.800 C 350.699 280.225,352.591 283.401,354.609 286.084 C 355.873 287.763,356.918 289.653,357.193 290.752 C 357.446 291.769,358.092 293.388,358.627 294.350 C 360.351 297.451,359.470 298.531,355.058 298.727 C 347.042 299.085,95.699 299.185,93.787 298.831 C 92.446 298.584,91.178 298.577,90.355 298.813 C 88.089 299.463,77.295 299.354,76.252 298.671 C 75.366 298.090,73.200 298.186,73.200 298.805 C 73.200 299.360,76.007 301.600,76.714 301.609 C 100.208 301.929,360.569 301.501,361.145 301.142 C 364.002 299.357,363.322 293.339,360.035 291.309 C 359.576 291.026,359.132 290.179,358.985 289.309 C 358.579 286.904,358.434 286.552,357.211 285.014 C 356.575 284.214,355.938 283.027,355.795 282.378 C 355.653 281.729,355.001 280.662,354.347 280.009 C 353.693 279.355,352.888 278.028,352.559 277.060 C 352.229 276.093,351.516 274.885,350.975 274.377 C 350.434 273.868,349.801 272.745,349.568 271.882 C 349.336 271.018,348.750 269.926,348.267 269.456 C 347.785 268.985,346.954 267.700,346.421 266.600 C 345.888 265.500,344.814 263.610,344.034 262.400 C 343.254 261.190,342.020 259.030,341.292 257.600 C 339.338 253.761,336.907 249.886,336.023 249.202 C 335.596 248.871,334.853 247.520,334.373 246.200 C 333.892 244.880,333.191 243.440,332.814 243.000 C 332.438 242.560,331.896 241.609,331.611 240.887 C 331.326 240.165,330.560 238.905,329.909 238.087 C 329.259 237.269,327.841 234.760,326.758 232.511 C 325.676 230.263,324.455 228.244,324.046 228.025 C 323.637 227.805,323.107 226.855,322.869 225.913 C 322.620 224.929,321.833 223.561,321.018 222.699 C 320.238 221.874,319.600 220.906,319.600 220.548 C 319.600 219.814,316.753 214.437,315.378 212.575 C 314.880 211.901,314.197 210.687,313.859 209.878 C 313.521 209.069,312.765 207.929,312.180 207.344 C 311.595 206.759,310.928 205.722,310.697 205.040 C 310.466 204.358,309.675 202.881,308.939 201.759 C 308.202 200.636,307.600 199.517,307.600 199.273 C 307.600 199.028,307.059 198.211,306.397 197.457 C 305.735 196.704,304.813 195.212,304.347 194.143 C 303.882 193.075,303.260 191.923,302.965 191.585 C 302.670 191.246,301.441 189.024,300.232 186.646 C 299.024 184.268,297.605 181.755,297.078 181.061 C 296.552 180.367,295.907 179.147,295.646 178.348 C 295.384 177.550,294.798 176.560,294.344 176.149 C 293.890 175.738,293.021 174.305,292.413 172.964 C 291.805 171.624,291.036 170.423,290.704 170.295 C 290.373 170.168,289.982 169.427,289.836 168.649 C 289.666 167.744,289.090 166.831,288.240 166.117 C 286.735 164.853,286.223 163.983,285.860 162.069 C 285.721 161.338,285.066 160.082,284.404 159.278 C 283.742 158.475,283.200 157.613,283.200 157.363 C 283.200 157.113,282.799 156.397,282.308 155.774 C 281.817 155.150,280.995 153.731,280.481 152.620 C 279.967 151.509,279.215 150.240,278.809 149.800 C 278.404 149.360,277.860 148.203,277.601 147.228 C 277.341 146.247,276.620 144.979,275.988 144.389 C 275.360 143.802,274.730 142.860,274.588 142.296 C 274.447 141.732,273.807 140.803,273.166 140.232 C 272.524 139.661,272.000 138.829,272.000 138.384 C 272.000 137.197,270.894 134.748,269.839 133.600 C 269.333 133.050,268.608 131.790,268.227 130.800 C 267.529 128.985,265.564 125.782,263.565 123.200 C 262.969 122.430,262.362 121.400,262.217 120.910 C 262.072 120.421,261.542 119.698,261.039 119.302 C 260.537 118.907,259.727 117.430,259.239 116.020 C 258.119 112.785,257.787 112.165,256.127 110.215 C 255.385 109.343,254.333 107.690,253.790 106.542 C 253.247 105.394,252.454 104.344,252.028 104.209 C 251.512 104.045,250.971 103.115,250.409 101.428 C 249.945 100.034,249.241 98.599,248.844 98.240 C 248.447 97.881,247.907 96.867,247.643 95.987 C 247.380 95.107,246.660 93.805,246.045 93.093 C 245.429 92.382,244.708 90.900,244.443 89.800 C 243.944 87.732,242.423 85.229,240.189 82.800 C 239.481 82.030,238.586 80.548,238.199 79.506 C 237.812 78.464,237.270 77.424,236.994 77.195 C 236.718 76.966,235.895 75.613,235.164 74.189 C 234.434 72.765,233.695 71.600,233.523 71.600 C 233.351 71.600,232.930 70.927,232.586 70.105 C 232.243 69.283,231.628 68.248,231.220 67.805 C 230.813 67.362,229.923 65.830,229.243 64.400 C 227.850 61.472,225.885 58.197,224.801 57.000 C 224.403 56.560,223.780 55.480,223.418 54.600 C 223.056 53.720,222.257 52.460,221.643 51.800 C 221.029 51.140,220.126 50.015,219.636 49.300 C 218.774 48.042,218.336 47.846,217.315 48.260 " stroke="none" fill="#9ecdb2" fill-rule="evenodd"></path><path id="path4" d="M180.611 49.700 C 180.024 50.415,179.118 51.630,178.598 52.400 C 177.035 54.717,171.600 65.693,171.600 66.534 C 171.600 66.965,170.835 68.167,169.900 69.207 C 167.998 71.321,165.706 75.186,164.573 78.190 C 164.160 79.285,163.221 80.709,162.486 81.354 C 160.753 82.876,159.278 85.823,158.586 89.148 C 158.203 90.989,157.776 91.973,157.191 92.366 C 155.962 93.191,154.315 95.732,151.548 101.076 C 150.202 103.674,148.524 106.430,147.817 107.200 C 145.702 109.507,144.053 112.373,143.775 114.226 C 143.574 115.566,143.206 116.206,142.189 116.981 C 141.445 117.549,140.650 118.650,140.374 119.496 C 140.104 120.323,138.989 121.886,137.894 122.969 C 136.678 124.173,135.458 125.933,134.755 127.499 C 133.505 130.287,131.742 133.008,129.767 135.200 C 128.927 136.133,128.020 138.026,127.051 140.872 C 125.751 144.691,122.289 152.016,121.035 153.600 C 120.774 153.930,120.209 154.896,119.780 155.747 C 119.351 156.597,118.613 157.551,118.140 157.866 C 117.120 158.546,116.550 159.911,116.204 162.500 C 116.014 163.930,115.781 164.400,115.264 164.400 C 113.891 164.400,112.878 165.640,111.440 169.085 C 110.632 171.018,109.799 172.870,109.588 173.200 C 109.378 173.530,108.591 174.970,107.840 176.400 C 107.060 177.883,105.423 180.031,104.028 181.400 C 101.322 184.056,99.119 188.044,98.359 191.659 C 98.112 192.837,97.678 194.070,97.395 194.400 C 97.111 194.730,96.385 195.900,95.780 197.000 C 95.175 198.100,94.289 199.471,93.811 200.047 C 93.332 200.623,92.692 201.703,92.387 202.447 C 92.083 203.191,90.905 204.931,89.770 206.314 C 88.486 207.877,87.321 209.869,86.688 211.583 C 85.440 214.964,83.037 219.014,80.389 222.200 C 78.067 224.995,75.028 230.864,74.304 233.953 C 73.945 235.486,73.547 236.220,72.919 236.508 C 72.435 236.729,71.749 237.561,71.395 238.355 C 71.041 239.150,70.391 240.430,69.951 241.200 C 69.510 241.970,68.788 243.376,68.346 244.324 C 67.903 245.272,67.278 246.149,66.957 246.272 C 65.611 246.788,60.970 255.006,59.864 258.830 C 59.509 260.056,58.828 261.406,58.352 261.830 C 57.875 262.253,57.067 263.536,56.556 264.679 C 55.626 266.764,53.247 270.338,51.860 271.735 C 51.452 272.145,50.749 273.318,50.297 274.340 C 49.845 275.363,48.971 276.830,48.354 277.600 C 47.185 279.058,46.000 281.926,46.000 283.294 C 46.000 283.730,45.655 284.473,45.234 284.944 C 42.545 287.951,41.606 289.380,40.284 292.478 C 37.893 298.081,38.319 300.308,42.107 302.003 C 43.300 302.537,44.011 302.626,44.947 302.358 C 47.278 301.689,59.480 301.921,61.886 302.680 C 63.749 303.267,64.216 303.286,65.321 302.820 C 66.025 302.523,68.674 302.105,71.209 301.890 L 75.818 301.499 74.043 299.750 C 72.106 297.840,71.551 297.720,68.676 298.593 C 66.473 299.261,50.191 299.616,47.306 299.059 C 45.084 298.630,42.988 296.753,43.581 295.723 C 43.809 295.325,44.636 293.381,45.418 291.402 C 46.199 289.423,47.262 287.353,47.778 286.802 C 48.295 286.251,49.570 284.090,50.612 282.000 C 51.654 279.910,53.449 276.760,54.601 275.000 C 55.753 273.240,57.011 271.170,57.395 270.400 C 57.780 269.630,58.530 268.418,59.063 267.706 C 59.595 266.995,60.281 265.705,60.586 264.840 C 60.891 263.974,61.762 262.364,62.520 261.262 C 63.278 260.159,64.012 258.807,64.150 258.256 C 64.289 257.705,65.456 255.662,66.744 253.716 C 68.033 251.771,69.406 249.553,69.795 248.789 C 70.184 248.025,71.088 246.909,71.804 246.310 C 73.211 245.131,74.139 243.192,74.589 240.489 C 74.811 239.155,75.219 238.501,76.443 237.518 C 77.579 236.604,78.173 235.712,78.599 234.279 C 79.341 231.779,81.365 228.101,84.805 223.000 C 86.288 220.800,87.805 218.100,88.175 217.000 C 88.584 215.782,89.532 214.296,90.598 213.200 C 91.560 212.210,92.480 210.860,92.642 210.200 C 93.072 208.441,94.394 205.519,95.176 204.600 C 97.445 201.931,101.600 193.758,101.600 191.964 C 101.600 191.420,102.303 190.390,103.373 189.364 C 104.348 188.430,105.456 187.066,105.835 186.333 C 106.213 185.600,107.019 184.370,107.624 183.600 C 108.230 182.830,109.586 180.580,110.638 178.600 C 111.689 176.620,112.946 174.460,113.430 173.800 C 114.512 172.325,116.400 168.602,116.400 167.943 C 116.400 167.676,117.186 166.275,118.146 164.829 C 120.897 160.687,125.901 152.562,126.851 150.697 C 127.326 149.764,128.124 148.460,128.624 147.800 C 129.124 147.140,129.846 145.790,130.227 144.800 C 130.609 143.810,131.243 142.640,131.635 142.200 C 132.027 141.760,133.509 139.060,134.929 136.200 C 136.349 133.340,138.476 129.527,139.655 127.727 C 143.138 122.413,144.400 120.244,144.400 119.572 C 144.400 119.224,144.837 118.529,145.371 118.028 C 145.905 117.526,146.748 116.100,147.245 114.858 C 147.741 113.616,148.744 111.893,149.474 111.028 C 150.203 110.164,151.714 107.677,152.831 105.501 C 153.949 103.325,155.546 100.571,156.380 99.380 C 157.214 98.189,158.128 96.626,158.411 95.907 C 158.694 95.188,159.506 93.970,160.216 93.200 C 160.926 92.430,161.730 91.080,162.003 90.200 C 162.276 89.320,162.954 87.992,163.509 87.249 C 164.065 86.505,165.010 84.582,165.609 82.975 C 166.332 81.038,167.375 79.268,168.703 77.726 C 170.822 75.265,171.705 73.758,172.176 71.802 C 172.335 71.144,172.979 70.154,173.609 69.602 C 174.310 68.988,175.620 66.667,176.990 63.611 C 178.221 60.867,179.548 58.257,179.940 57.811 C 180.332 57.365,180.943 56.531,181.298 55.957 C 182.234 54.446,184.766 54.054,185.600 55.291 C 185.930 55.781,186.667 56.725,187.238 57.391 C 187.809 58.056,189.306 60.565,190.565 62.966 C 191.824 65.367,193.443 68.067,194.162 68.966 C 194.881 69.865,195.867 71.604,196.353 72.831 C 197.626 76.045,200.400 79.228,200.400 77.475 C 200.400 77.186,201.120 75.756,202.000 74.297 C 202.880 72.838,203.597 71.499,203.594 71.322 C 203.591 71.145,203.434 71.242,203.247 71.538 C 202.777 72.279,200.729 71.203,199.120 69.370 C 198.458 68.616,197.700 68.000,197.434 68.000 C 197.169 68.000,196.722 67.106,196.442 66.013 C 196.162 64.919,195.434 63.397,194.824 62.630 C 194.214 61.863,193.410 60.149,193.038 58.821 C 192.634 57.381,192.059 56.246,191.613 56.007 C 191.202 55.787,190.754 55.099,190.617 54.479 C 190.466 53.790,189.453 52.544,188.012 51.276 C 184.286 47.997,182.349 47.584,180.611 49.700 " stroke="none" fill="#f4da9b" fill-rule="evenodd"></path></g></svg>